<svg xmlns="http://www.w3.org/2000/svg" width="20" height="14.063" viewBox="0 0 20 14.063">
  <g id="ico_mail" transform="translate(0 -76)">
    <g id="Сгруппировать_48" data-name="Сгруппировать 48" transform="translate(13.758 77.005)">
      <g id="Сгруппировать_47" data-name="Сгруппировать 47">
        <path id="Контур_302" data-name="Контур 302" d="M358.277,101.721l-6.066,6.027,6.066,6.027a1.738,1.738,0,0,0,.176-.753V102.474A1.738,1.738,0,0,0,358.277,101.721Z" transform="translate(-352.211 -101.721)" fill="#6f6f6f"/>
      </g>
    </g>
    <g id="Сгруппировать_50" data-name="Сгруппировать 50" transform="translate(1.005 76)">
      <g id="Сгруппировать_49" data-name="Сгруппировать 49">
        <path id="Контур_303" data-name="Контур 303" d="M42.958,76H26.474a1.737,1.737,0,0,0-.753.176l7.752,7.713a1.759,1.759,0,0,0,2.486,0l7.752-7.713A1.737,1.737,0,0,0,42.958,76Z" transform="translate(-25.721 -76)" fill="#6f6f6f"/>
      </g>
    </g>
    <g id="Сгруппировать_52" data-name="Сгруппировать 52" transform="translate(0 77.005)">
      <g id="Сгруппировать_51" data-name="Сгруппировать 51">
        <path id="Контур_304" data-name="Контур 304" d="M.176,101.721a1.737,1.737,0,0,0-.176.753v10.547a1.737,1.737,0,0,0,.176.753l6.066-6.027Z" transform="translate(0 -101.721)" fill="#6f6f6f"/>
      </g>
    </g>
    <g id="Сгруппировать_54" data-name="Сгруппировать 54" transform="translate(1.005 83.86)">
      <g id="Сгруппировать_53" data-name="Сгруппировать 53">
        <path id="Контур_305" data-name="Контур 305" d="M37.646,277.211l-.858.858a2.933,2.933,0,0,1-4.143,0l-.858-.858-6.066,6.027a1.737,1.737,0,0,0,.753.176H42.958a1.737,1.737,0,0,0,.753-.176Z" transform="translate(-25.721 -277.211)" fill="#6f6f6f"/>
      </g>
    </g>
  </g>
</svg>
