<svg xmlns="http://www.w3.org/2000/svg" width="26.25" height="35" viewBox="0 0 26.25 35"><g transform="translate(-64)"><g transform="translate(64)"><g transform="translate(0)"><path d="M90.036,7.505,82.745.214A.729.729,0,0,0,82.229,0H66.917A2.92,2.92,0,0,0,64,2.917V32.083A2.92,2.92,0,0,0,66.917,35H87.333a2.92,2.92,0,0,0,2.917-2.917V8.021A.729.729,0,0,0,90.036,7.505ZM82.958,2.489l4.8,4.8H84.417a1.46,1.46,0,0,1-1.458-1.458Zm5.833,29.594a1.46,1.46,0,0,1-1.458,1.458H66.917a1.46,1.46,0,0,1-1.458-1.458V2.917a1.46,1.46,0,0,1,1.458-1.458H81.5V5.833A2.92,2.92,0,0,0,84.417,8.75h4.375Z" transform="translate(-64)" fill="#f41111"/><path d="M140.468,180.405a21.13,21.13,0,0,1-1.744-1.5c-.555-.555-1.05-1.094-1.48-1.606a16.326,16.326,0,0,0,.965-3.711c0-2.42-.874-2.917-2.187-2.917-1,0-2.187.518-2.187,2.986a6.992,6.992,0,0,0,1.777,3.944c-.289.882-.629,1.9-1.01,3.047-.184.55-.383,1.06-.594,1.532-.172.076-.338.154-.5.234-.58.29-1.13.55-1.641.793-2.329,1.1-3.867,1.831-3.867,3.271,0,1.045,1.136,1.693,2.188,1.693,1.356,0,3.4-1.811,4.9-4.861a29.01,29.01,0,0,1,5.005-1.35c1.22.939,2.568,1.836,3.221,1.836,1.808,0,2.188-1.045,2.188-1.922,0-1.724-1.97-1.724-2.917-1.724A17.271,17.271,0,0,0,140.468,180.405Zm-10.28,6.3a1.152,1.152,0,0,1-.729-.234c0-.517,1.542-1.248,3.033-1.954l.288-.136C131.684,185.971,130.6,186.708,130.188,186.708Zm5.1-13.055c0-1.528.474-1.528.729-1.528.516,0,.729,0,.729,1.458a11.692,11.692,0,0,1-.58,2.277A4.48,4.48,0,0,1,135.292,173.652Zm.559,7.837q.068-.19.132-.385c.271-.812.514-1.541.731-2.2q.454.5.978,1.024c.137.137.476.444.927.83C137.721,180.957,136.765,181.2,135.851,181.49Zm8.191.38c0,.328,0,.464-.676.468a5.374,5.374,0,0,1-1.225-.7c.206-.023.357-.034.443-.034C143.661,181.6,143.966,181.709,144.042,181.869Z" transform="translate(-123.625 -158.999)" fill="#f41111"/></g></g></g></svg>