<svg xmlns="http://www.w3.org/2000/svg" width="57" height="57" viewBox="0 0 57 57">
  <g id="Korea_circle" transform="translate(-793 -59)">
    <circle id="Ellipse_4" data-name="Ellipse 4" cx="28.5" cy="28.5" r="28.5" transform="translate(793 59)" fill="#fff"/>
    <g id="Korea_flag" transform="translate(696.066 -21.892)">
      <g id="Group_9" data-name="Group 9" transform="translate(112.334 99.204)">
        <g id="Group_4" data-name="Group 4" transform="translate(6.864 3.926)">
          <path id="Path_30" data-name="Path 30" d="M425.813,263.3a6.3,6.3,0,0,0-5.659,3.534,3.161,3.161,0,0,0,5.778,2.493,3.14,3.14,0,0,1,3.8-.849c1.835.79,2.1,2.79,1.457,4.383a6.291,6.291,0,0,0-5.376-9.561Z" transform="translate(-419.521 -263.3)" fill="#c60c30"/>
          <path id="Path_31" data-name="Path 31" d="M409.409,412.641a3.14,3.14,0,0,0-3.8.849A3.16,3.16,0,0,1,399.834,411a6.294,6.294,0,0,0,11.035,6.027C411.508,415.431,411.247,413.431,409.409,412.641Z" transform="translate(-399.2 -407.466)" fill="#003478"/>
        </g>
        <g id="Group_5" data-name="Group 5" transform="translate(0 0.049)">
          <rect id="Rectangle_4" data-name="Rectangle 4" width="6.295" height="1.022" transform="translate(0 5.207) rotate(-55.813)" fill="#231f20"/>
          <rect id="Rectangle_5" data-name="Rectangle 5" width="6.295" height="1.022" transform="translate(1.309 6.077) rotate(-55.813)" fill="#231f20"/>
          <rect id="Rectangle_6" data-name="Rectangle 6" width="6.295" height="1.022" transform="matrix(0.562, -0.827, 0.827, 0.562, 2.648, 6.95)" fill="#231f20"/>
        </g>
        <g id="Group_6" data-name="Group 6" transform="translate(19.243 0)">
          <rect id="Rectangle_7" data-name="Rectangle 7" width="1.022" height="2.876" transform="translate(0 2.371) rotate(-33.841)" fill="#231f20"/>
          <rect id="Rectangle_8" data-name="Rectangle 8" width="1.022" height="2.876" transform="translate(1.871 5.212) rotate(-33.841)" fill="#231f20"/>
          <rect id="Rectangle_9" data-name="Rectangle 9" width="1.022" height="6.295" transform="translate(1.299 1.483) rotate(-33.841)" fill="#231f20"/>
          <rect id="Rectangle_10" data-name="Rectangle 10" width="1.022" height="2.933" transform="translate(2.607 0.569) rotate(-33.841)" fill="#231f20"/>
          <rect id="Rectangle_11" data-name="Rectangle 11" width="1.022" height="2.876" transform="translate(4.498 3.445) rotate(-33.844)" fill="#231f20"/>
        </g>
        <g id="Group_7" data-name="Group 7" transform="translate(0.059 12.872)">
          <rect id="Rectangle_12" data-name="Rectangle 12" width="1.022" height="6.187" transform="translate(0 2.328) rotate(-33.841)" fill="#231f20"/>
          <rect id="Rectangle_13" data-name="Rectangle 13" width="1.022" height="6.187" transform="translate(2.632 0.569) rotate(-33.841)" fill="#231f20"/>
          <rect id="Rectangle_14" data-name="Rectangle 14" width="1.022" height="2.933" transform="translate(1.273 1.363) rotate(-33.841)" fill="#231f20"/>
          <rect id="Rectangle_15" data-name="Rectangle 15" width="1.022" height="2.876" transform="translate(3.166 4.238) rotate(-33.841)" fill="#231f20"/>
        </g>
        <g id="Group_8" data-name="Group 8" transform="translate(19.167 12.853)">
          <path id="Path_32" data-name="Path 32" d="M913.4,756.488l.845.574,1.634-2.4-.854-.562Z" transform="translate(-913.4 -751.284)" fill="#231f20"/>
          <path id="Path_33" data-name="Path 33" d="M996.36,636.972l-.845-.572-1.615,2.371.854.562Z" transform="translate(-991.974 -636.4)" fill="#231f20"/>
          <path id="Path_34" data-name="Path 34" d="M1051.255,673.374l-.845-.574-1.61,2.366.854.562Z" transform="translate(-1045.56 -671.929)" fill="#231f20"/>
          <path id="Path_35" data-name="Path 35" d="M968.1,792.7l.845.572,1.639-2.407-.854-.56Z" transform="translate(-966.791 -786.618)" fill="#231f20"/>
          <path id="Path_36" data-name="Path 36" d="M1107.057,709.872l-.845-.572-1.613,2.371.852.562Z" transform="translate(-1100.025 -707.556)" fill="#231f20"/>
          <path id="Path_37" data-name="Path 37" d="M1024.1,829.388l.842.574,1.634-2.4-.852-.56Z" transform="translate(-1021.451 -822.44)" fill="#231f20"/>
        </g>
      </g>
    </g>
  </g>
</svg>
