<svg xmlns="http://www.w3.org/2000/svg" width="46.195" height="35.928" viewBox="0 0 46.195 35.928">
  <g id="Korea_flag2" transform="translate(-112.334 -99.204)">
    <g id="Group_92" data-name="Group 92" transform="translate(112.334 99.204)">
      <g id="Group_42" data-name="Group 42" transform="translate(12.103 6.923)">
        <path id="Path_302" data-name="Path 302" d="M430.236,263.3a11.1,11.1,0,0,0-9.978,6.231,5.539,5.539,0,0,0,2.266,6.375c4.181,2.768,7.341-.945,7.923-1.979a5.537,5.537,0,0,1,6.7-1.5c3.236,1.392,3.7,4.919,2.569,7.729a11.093,11.093,0,0,0-9.48-16.859Z" transform="translate(-419.14 -263.3)" fill="#c60c30"/>
        <path id="Path_312" data-name="Path 312" d="M417.2,413.894a5.537,5.537,0,0,0-6.7,1.5c-.582,1.034-3.742,4.746-7.923,1.979a5.536,5.536,0,0,1-2.261-6.37,11.1,11.1,0,0,0,19.457,10.627C420.9,418.813,420.442,415.286,417.2,413.894Z" transform="translate(-399.2 -404.769)" fill="#003478"/>
      </g>
      <g id="Group_52" data-name="Group 52" transform="translate(0 0.086)">
        <rect id="Rectangle_42" data-name="Rectangle 42" width="11.1" height="1.801" transform="translate(0 9.182) rotate(-55.813)" fill="#231f20"/>
        <rect id="Rectangle_52" data-name="Rectangle 52" width="11.1" height="1.801" transform="translate(2.308 10.715) rotate(-55.813)" fill="#231f20"/>
        <rect id="Rectangle_62" data-name="Rectangle 62" width="11.1" height="1.801" transform="matrix(0.562, -0.827, 0.827, 0.562, 4.669, 12.255)" fill="#231f20"/>
      </g>
      <g id="Group_62" data-name="Group 62" transform="translate(33.93 0)">
        <rect id="Rectangle_72" data-name="Rectangle 72" width="1.801" height="5.071" transform="translate(0 4.18) rotate(-33.841)" fill="#231f20"/>
        <rect id="Rectangle_82" data-name="Rectangle 82" width="1.801" height="5.071" transform="translate(3.299 9.189) rotate(-33.841)" fill="#231f20"/>
        <rect id="Rectangle_92" data-name="Rectangle 92" width="1.801" height="11.1" transform="translate(2.291 2.614) rotate(-33.841)" fill="#231f20"/>
        <rect id="Rectangle_102" data-name="Rectangle 102" width="1.801" height="5.172" transform="translate(4.596 1.003) rotate(-33.841)" fill="#231f20"/>
        <rect id="Rectangle_112" data-name="Rectangle 112" width="1.801" height="5.071" transform="translate(7.931 6.075) rotate(-33.844)" fill="#231f20"/>
      </g>
      <g id="Group_72" data-name="Group 72" transform="translate(0.104 22.698)">
        <rect id="Rectangle_122" data-name="Rectangle 122" width="1.801" height="10.91" transform="translate(0 4.105) rotate(-33.841)" fill="#231f20"/>
        <rect id="Rectangle_132" data-name="Rectangle 132" width="1.801" height="10.91" transform="translate(4.641 1.003) rotate(-33.841)" fill="#231f20"/>
        <rect id="Rectangle_142" data-name="Rectangle 142" width="1.801" height="5.172" transform="translate(2.244 2.404) rotate(-33.841)" fill="#231f20"/>
        <rect id="Rectangle_152" data-name="Rectangle 152" width="1.801" height="5.071" transform="translate(5.583 7.472) rotate(-33.841)" fill="#231f20"/>
      </g>
      <g id="Group_82" data-name="Group 82" transform="translate(33.796 22.664)">
        <path id="Path_322" data-name="Path 322" d="M913.4,758.311l1.489,1.012,2.881-4.231-1.506-.992Z" transform="translate(-913.4 -749.134)" fill="#231f20"/>
        <path id="Path_332" data-name="Path 332" d="M998.237,637.408l-1.489-1.008-2.848,4.181,1.506.992Z" transform="translate(-990.504 -636.4)" fill="#231f20"/>
        <path id="Path_342" data-name="Path 342" d="M1053.129,673.813l-1.49-1.012-2.839,4.172,1.506.991Z" transform="translate(-1043.088 -671.264)" fill="#231f20"/>
        <path id="Path_352" data-name="Path 352" d="M968.1,794.523l1.489,1.008,2.89-4.244-1.506-.987Z" transform="translate(-965.792 -783.807)" fill="#231f20"/>
        <path id="Path_362" data-name="Path 362" d="M1108.933,710.308l-1.489-1.008-2.844,4.181,1.5.991Z" transform="translate(-1096.534 -706.224)" fill="#231f20"/>
        <path id="Path_372" data-name="Path 372" d="M1024.1,831.21l1.485,1.012,2.881-4.236-1.5-.987Z" transform="translate(-1019.43 -818.959)" fill="#231f20"/>
      </g>
    </g>
  </g>
</svg>
