<svg xmlns="http://www.w3.org/2000/svg" width="151.353" height="60" viewBox="0 0 151.353 60"><g transform="translate(-163.6 -366.4)"><g transform="translate(260.775 370.996)"><path d="M362.632,375.451v8.681c0,3.217-1.991,4.6-4.391,4.6-3.268,0-4.136-1.838-4.34-4.443h2.809c0,.919.2,2.4,1.583,2.4,1.481,0,1.481-1.685,1.583-2.655V375.4h2.757Z" transform="translate(-353.9 -375.4)" fill="#1d1d1b"/><path d="M374.36,385.608a2.42,2.42,0,0,1,1.226-2.247,4.972,4.972,0,0,1,2.655-.562c1.838,0,3.881.664,3.881,3.37v4.953c0,.46.1.715.1.97h-2.451a9.912,9.912,0,0,1-.1-1.226h-.051a2.968,2.968,0,0,1-2.757,1.481,2.683,2.683,0,0,1-2.962-2.757,3.194,3.194,0,0,1,1.94-2.86,9.373,9.373,0,0,1,3.523-.511v-.868a1.178,1.178,0,0,0-1.226-1.123,1.264,1.264,0,0,0-1.225,1.277H374.36Zm2.2,3.677a1.247,1.247,0,0,0,1.328,1.277c1.481,0,1.532-1.634,1.532-2.706C378.5,387.8,376.555,387.8,376.555,389.285Z" transform="translate(-363.687 -379.021)" fill="#1d1d1b"/><path d="M396.509,384.028h0a3.227,3.227,0,0,1,2.451-1.328c2.809,0,4.238,2.349,4.238,4.8,0,2.349-1.226,4.8-3.881,4.8a3.009,3.009,0,0,1-2.757-1.532h-.051v4.749H393.8V384.794c0-.613-.051-1.226-.1-1.787h2.757Zm1.991,6.485c1.736,0,1.94-1.583,1.94-3.013,0-1.379-.2-3.013-1.94-3.013-1.481,0-1.94,1.736-1.94,3.013C396.509,388.777,397.019,390.513,398.5,390.513Z" transform="translate(-373.377 -378.972)" fill="#1d1d1b"/><path d="M414.909,385.608a2.419,2.419,0,0,1,1.225-2.247,4.973,4.973,0,0,1,2.655-.562c1.838,0,3.881.664,3.881,3.37v4.953c0,.46.1.715.1.97h-2.4a9.912,9.912,0,0,1-.1-1.226h-.051a2.968,2.968,0,0,1-2.757,1.481,2.683,2.683,0,0,1-2.962-2.757,3.194,3.194,0,0,1,1.94-2.86,9.373,9.373,0,0,1,3.523-.511v-.868a1.178,1.178,0,0,0-1.226-1.123,1.264,1.264,0,0,0-1.226,1.277h-2.6Zm2.2,3.677a1.247,1.247,0,0,0,1.328,1.277c1.481,0,1.532-1.634,1.532-2.706C419.045,387.8,417.1,387.8,417.1,389.285Z" transform="translate(-383.555 -379.021)" fill="#1d1d1b"/><path d="M437.006,384.028l.051.051a3.137,3.137,0,0,1,2.757-1.379c.919,0,2.655.664,2.962,1.992a5.917,5.917,0,0,1,.2,1.43v5.923h-2.706v-5.464c0-.97-.306-2.094-1.634-2.094-.868,0-1.583.766-1.634,2.094v5.464H434.3v-9.038h2.706Z" transform="translate(-393.245 -378.972)" fill="#1d1d1b"/><path d="M455.5,398.7v-2.4h2.3v2.4Z" transform="translate(-403.619 -385.628)" fill="#1d1d1b"/></g><g transform="translate(255.719 390.809)"><path d="M344,427.221V414.2h7.711v1.072h-6.587v4.647h6.332v1.072h-6.332V426.1h6.843v1.072H344Z" transform="translate(-344 -414.2)" fill="#1d1d1b"/><path d="M365.774,430.794H364.7v-7c0-.715-.051-1.43-.1-2.043h1.123l.051,1.328.051.051a3.042,3.042,0,0,1,2.808-1.634c2.962,0,3.217,2.6,3.217,3.677v5.668h-1.072v-5.821a2.256,2.256,0,0,0-2.4-2.5c-1.787,0-2.6,1.481-2.6,3.115v5.157Z" transform="translate(-354.081 -417.772)" fill="#1d1d1b"/><path d="M389.294,425.894l-.051-.051a3.681,3.681,0,0,1-3.115,1.685c-2.706,0-3.728-2.553-3.728-4.851,0-2.349,1.021-4.749,3.728-4.749a3.634,3.634,0,0,1,3.115,1.634l.051-.051V414.2h1.072v10.979c0,.715.051,1.43.1,2.043h-1.123Zm-2.911-7c-2.043,0-2.706,1.889-2.706,3.626,0,1.685.511,3.983,2.553,3.983,2.349,0,3.064-1.94,3.064-4.034C389.294,420.634,388.477,418.9,386.383,418.9Z" transform="translate(-362.792 -414.2)" fill="#1d1d1b"/><path d="M404.472,427.221H403.4V414.2h1.072Z" transform="translate(-373.068 -414.2)" fill="#1d1d1b"/><path d="M411.226,426.5c.051,1.94.919,3.574,3.115,3.574a2.677,2.677,0,0,0,2.6-2.145h1.123a3.808,3.808,0,0,1-4.085,3.166c-2.706,0-3.983-2.349-3.983-4.8s1.328-4.8,4.034-4.8c3.013,0,4.136,2.2,4.136,5.055h-6.945Zm5.821-.97c-.1-1.736-1.072-3.064-2.962-3.064-1.787,0-2.706,1.481-2.86,3.064Z" transform="translate(-376.298 -417.772)" fill="#1d1d1b"/><path d="M432.526,421.4c1.736,0,3.166.613,3.319,2.5H434.67c-.1-1.123-1.123-1.532-2.247-1.532-1.021,0-2.043.409-2.043,1.481,0,1.328,1.736,1.226,4.187,2.094a2.191,2.191,0,0,1,1.532,2.094c0,2.043-1.889,2.962-3.779,2.962-1.583,0-3.37-.766-3.421-2.757h1.174c.1,1.379,1.277,1.736,2.5,1.736,1.174,0,2.349-.562,2.349-1.787,0-1.277-1.43-1.532-2.86-1.838-1.43-.357-2.86-.766-2.86-2.451C429.206,422.064,430.943,421.4,432.526,421.4Z" transform="translate(-385.547 -417.723)" fill="#1d1d1b"/><path d="M449.526,421.4c1.736,0,3.166.613,3.319,2.5H451.67c-.1-1.123-1.123-1.532-2.247-1.532-1.021,0-2.043.409-2.043,1.481,0,1.328,1.736,1.226,4.187,2.094a2.191,2.191,0,0,1,1.532,2.094c0,2.043-1.889,2.962-3.779,2.962-1.583,0-3.37-.766-3.421-2.757h1.174c.1,1.379,1.277,1.736,2.5,1.736,1.174,0,2.349-.562,2.349-1.787,0-1.277-1.43-1.532-2.86-1.838-1.43-.357-2.86-.766-2.86-2.451C446.206,422.064,447.943,421.4,449.526,421.4Z" transform="translate(-393.866 -417.723)" fill="#1d1d1b"/></g><g transform="translate(236.009 407.404)"><path d="M308.923,446.7c4.289,0,6.689,2.2,6.689,6.485s-2.451,6.536-6.689,6.536H305.4V446.7Zm.306,11.9c3.677,0,5.157-2.145,5.157-5.413,0-3.83-2.247-5.515-5.975-5.413h-1.838V458.6Z" transform="translate(-305.4 -446.7)" fill="#1d1d1b"/><path d="M331.677,448.028H330.4V446.7h1.277Zm-.1,2.6v9.038H330.5v-9.038Z" transform="translate(-317.634 -446.7)" fill="#1d1d1b"/><path d="M340.826,453.9c1.736,0,3.166.613,3.319,2.5H342.97c-.1-1.123-1.123-1.532-2.247-1.532-1.021,0-2.043.409-2.043,1.481,0,1.328,1.736,1.226,4.187,2.094a2.191,2.191,0,0,1,1.532,2.094c0,2.043-1.889,2.962-3.779,2.962-1.583,0-3.37-.715-3.421-2.757h1.174c.1,1.328,1.277,1.736,2.5,1.736,1.174,0,2.349-.562,2.349-1.787,0-1.277-1.43-1.532-2.86-1.838-1.43-.357-2.86-.766-2.86-2.451C337.506,454.564,339.243,453.9,340.826,453.9Z" transform="translate(-320.962 -450.223)" fill="#1d1d1b"/><path d="M361.132,457.013c-.1-1.379-.97-2.043-2.451-2.043-1.685,0-2.706,1.736-2.706,3.779,0,2.094,1.021,3.83,2.706,3.83a2.234,2.234,0,0,0,2.451-2.094h1.174a3.221,3.221,0,0,1-3.523,3.115c-2.706,0-3.983-2.349-3.983-4.8s1.328-4.8,4.034-4.8a3.234,3.234,0,0,1,3.472,3.064h-1.174Z" transform="translate(-329.574 -450.272)" fill="#1d1d1b"/><path d="M381.577,458.7c0,2.4-1.328,4.8-4.238,4.8s-4.238-2.4-4.238-4.8,1.328-4.8,4.238-4.8S381.577,456.3,381.577,458.7Zm-4.238-3.83c-2.2,0-3.064,2.145-3.064,3.83s.868,3.779,3.064,3.779,3.064-2.145,3.064-3.779C380.4,457.015,379.534,454.87,377.338,454.87Z" transform="translate(-338.53 -450.223)" fill="#1d1d1b"/><path d="M392.174,454.4l3.115,7.557L398.3,454.4h1.174l-3.574,9.038h-1.226L391,454.4Z" transform="translate(-347.289 -450.468)" fill="#1d1d1b"/><path d="M410.326,459c.051,1.94.919,3.574,3.115,3.574a2.677,2.677,0,0,0,2.6-2.145h1.123a3.808,3.808,0,0,1-4.085,3.166c-2.706,0-3.983-2.349-3.983-4.8s1.328-4.8,4.034-4.8c3.013,0,4.136,2.2,4.136,5.055h-6.945Zm5.821-1.021c-.1-1.736-1.072-3.064-2.911-3.064-1.787,0-2.706,1.481-2.86,3.064Z" transform="translate(-356.147 -450.272)" fill="#1d1d1b"/><path d="M430.874,463.294H429.8v-7c0-.715-.051-1.43-.1-2.043h1.123l.051,1.328h.051A2.226,2.226,0,0,1,432.968,454h1.072v1.021c-.2,0-.46-.051-.664-.051-1.583,0-2.451,1.174-2.5,2.911Z" transform="translate(-366.228 -450.272)" fill="#1d1d1b"/><path d="M441.877,454.4l3.064,7.557,3.013-7.557h1.174l-5,12.511h-1.174l1.379-3.472L440.6,454.4Z" transform="translate(-371.562 -450.468)" fill="#1d1d1b"/><path d="M457.2,470.732V469.2h1.43v1.532Z" transform="translate(-379.685 -457.711)" fill="#1d1d1b"/></g><g transform="translate(163.6 366.4)"><path d="M221.3,401.992c.2-2.247,2.043-4.851,5.26-6.281a7.921,7.921,0,0,1,2.145-.613,30.014,30.014,0,0,0-60,1.328c0,.511,0,1.021.051,1.532a8.31,8.31,0,0,1,.613-.562,6.065,6.065,0,0,1,.562,2.86,5.62,5.62,0,0,1,2.094-1.992,8.7,8.7,0,0,1,0,4.545,7.434,7.434,0,0,1-1.787,2.911,30.034,30.034,0,0,0,45.294,15.574,1.354,1.354,0,0,1-.255-.306,6.9,6.9,0,0,1-1.072-6.128,6.286,6.286,0,0,1,5.464,2.911c0,.051.051.051.051.1a29.974,29.974,0,0,0,8.374-15.115A9.274,9.274,0,0,1,221.3,401.992Zm-7.864-10.468a8.049,8.049,0,0,1,2.349-3.472,5.216,5.216,0,0,1,.562,2.655,4.858,4.858,0,0,1,1.889-1.889,8.033,8.033,0,0,1,.1,4.187,6.614,6.614,0,0,1-3.932,4.34A6.208,6.208,0,0,1,213.438,391.523Zm-14.5,5.923a11.843,11.843,0,0,1,6.485,0,7.886,7.886,0,0,1-2.86,3.013,7.959,7.959,0,0,1,4.085.766,11.974,11.974,0,0,1-5.26,3.779,10.106,10.106,0,0,1-8.936-1.277C192.962,401.328,195.26,398.621,198.936,397.447Zm-24.1,3.779a8.64,8.64,0,0,1,4.085-.766,8.433,8.433,0,0,1-2.86-3.013,12.983,12.983,0,0,1,6.485,0,10.118,10.118,0,0,1,6.485,6.281c-1.838,1.685-5.26,2.451-8.936,1.277A12.891,12.891,0,0,1,174.834,401.226Zm13.277,13.43a12.556,12.556,0,0,1-5.209,3.83,8.036,8.036,0,0,1,.562-4.136,8.639,8.639,0,0,1-3.728,1.787,12.61,12.61,0,0,1,1.991-6.128,10.1,10.1,0,0,1,7.966-4.238C190.715,408.017,190.357,411.54,188.111,414.655Zm-1.328-20.272a12.847,12.847,0,0,1,1.991-6.179,8.182,8.182,0,0,1,1.992,3.626,8.182,8.182,0,0,1,1.991-3.626,12.365,12.365,0,0,1,1.991,6.179,10.13,10.13,0,0,1-3.983,8.119C188.57,401.277,186.783,398.213,186.783,394.383ZM201.8,416.136a7.745,7.745,0,0,1-3.728-1.787,9.567,9.567,0,0,1,.562,4.136,12.556,12.556,0,0,1-5.208-3.83,10.291,10.291,0,0,1-1.583-8.885c2.451-.255,5.719,1.123,7.966,4.238A12.61,12.61,0,0,1,201.8,416.136Zm.664-4.34a5.613,5.613,0,0,1,2.809-.511,4.868,4.868,0,0,1-1.94-2.094,8.33,8.33,0,0,1,4.443,0,7.085,7.085,0,0,1,4.443,4.289,6.422,6.422,0,0,1-6.128.868A9.163,9.163,0,0,1,202.46,411.8Zm9.14,9.192a8.109,8.109,0,0,1-3.574,2.6,6.138,6.138,0,0,1,.357-2.809,5.606,5.606,0,0,1-2.553,1.226,8.783,8.783,0,0,1,1.379-4.238,7.086,7.086,0,0,1,5.464-2.911A6.423,6.423,0,0,1,211.6,420.987Zm1.787-8.323a6.3,6.3,0,0,1-2.706-5.566,8.389,8.389,0,0,1,1.379-4.238,5.423,5.423,0,0,1,1.379,2.5,4.946,4.946,0,0,1,1.379-2.5A8.165,8.165,0,0,1,216.2,407.1,7.167,7.167,0,0,1,213.387,412.664Zm7.3,1.685a6.99,6.99,0,0,1-6.128-.868A6.34,6.34,0,0,1,219,409.191a8.33,8.33,0,0,1,4.443,0,5.873,5.873,0,0,1-1.94,2.094,5.613,5.613,0,0,1,2.809.511A8.338,8.338,0,0,1,220.689,414.349Zm-54.026-13.226a6.536,6.536,0,0,0,.919,6.281,7.059,7.059,0,0,0,2.6-1.634,28.2,28.2,0,0,1-1.43-7.813A8.347,8.347,0,0,0,166.664,401.123ZM218.8,423.592a6.138,6.138,0,0,0-.357-2.809A5.606,5.606,0,0,0,221,422.009a8.827,8.827,0,0,0-1.328-4.136,29.868,29.868,0,0,1-4.187,3.421A8.009,8.009,0,0,0,218.8,423.592Zm-48.511-7.251a5.879,5.879,0,0,0,1.634-2.4,8.823,8.823,0,0,0-4.494.715,6.593,6.593,0,0,0-3.83,5.055,7.213,7.213,0,0,0,6.332-.1,8.587,8.587,0,0,0,3.217-3.217A5.053,5.053,0,0,0,170.289,416.34Zm66.23-34.877a6.6,6.6,0,0,0,2.809-2.5,11.327,11.327,0,0,0-5.821-.511c-3.421.766-5.719,2.962-6.383,5.106a9.209,9.209,0,0,0,7.966,1.889,11.864,11.864,0,0,0,5.055-2.962A7.5,7.5,0,0,0,236.519,381.464Zm-6.434,16.6a7.348,7.348,0,0,0,2.3-3.013,10.047,10.047,0,0,0-3.677.051c0,.46.051.868.051,1.328a32.073,32.073,0,0,1-.664,6.332,8,8,0,0,0,1.43-.511,10.832,10.832,0,0,0,4.34-3.932A9.024,9.024,0,0,0,230.085,398.06Z" transform="translate(-163.6 -366.4)" fill="#e20613"/></g></g></svg>