<svg xmlns="http://www.w3.org/2000/svg" width="133.137" height="58.335" viewBox="0 0 133.137 58.335"><g transform="translate(-25.5 -21.7)"><path d="M155.834,39.867a.234.234,0,1,0-.234-.234A.251.251,0,0,0,155.834,39.867Z" transform="translate(-54.13 -7.364)" fill="#313131"/><path d="M156.723,42.167a.234.234,0,1,0-.234-.234C156.431,42.05,156.548,42.167,156.723,42.167Z" transform="translate(-54.494 -8.321)" fill="#313131"/><path d="M158.734,40.167a.234.234,0,1,0-.234-.234A.251.251,0,0,0,158.734,40.167Z" transform="translate(-55.337 -7.489)" fill="#313131"/><path d="M157.123,40.167a.234.234,0,1,0-.234-.234C156.831,40.05,156.948,40.167,157.123,40.167Z" transform="translate(-54.66 -7.489)" fill="#313131"/><path d="M158.234,42.267a.234.234,0,1,0-.234-.234A.214.214,0,0,0,158.234,42.267Z" transform="translate(-55.129 -8.363)" fill="#313131"/><path d="M163.623,26.867a.234.234,0,1,0-.234-.234C163.331,26.75,163.448,26.867,163.623,26.867Z" transform="translate(-57.365 -1.956)" fill="#313131"/><path d="M161.034,39.5a.234.234,0,1,0,.234.234A.251.251,0,0,0,161.034,39.5Z" transform="translate(-56.294 -7.406)" fill="#313131"/><path d="M160.734,41.7a.234.234,0,1,0,.234.234A.214.214,0,0,0,160.734,41.7Z" transform="translate(-56.169 -8.321)" fill="#313131"/><path d="M165.434,27.7a.234.234,0,1,0,.234.234C165.726,27.817,165.609,27.7,165.434,27.7Z" transform="translate(-58.125 -2.496)" fill="#313131"/><path d="M166.309,25.318a.409.409,0,1,0-.409-.409A.4.4,0,0,0,166.309,25.318Z" transform="translate(-58.416 -1.165)" fill="#313131"/><path d="M159.6,42.994c-.292.058-.467.409-.409.818a.58.58,0,0,0,.642.526c.292-.058.467-.409.409-.818C160.126,43.169,159.893,42.935,159.6,42.994Z" transform="translate(-55.62 -8.856)" fill="#313131"/><path d="M159.534,41.667a.234.234,0,1,0-.234-.234A.251.251,0,0,0,159.534,41.667Z" transform="translate(-55.67 -8.113)" fill="#313131"/><path d="M159.034,46.2a.234.234,0,1,0,.234.234C159.326,46.317,159.209,46.2,159.034,46.2Z" transform="translate(-55.462 -10.194)" fill="#313131"/><path d="M160.234,45.7a.234.234,0,1,0,.234.234A.214.214,0,0,0,160.234,45.7Z" transform="translate(-55.961 -9.986)" fill="#313131"/><path d="M157.734,45.6a.234.234,0,1,0,.234.234A.251.251,0,0,0,157.734,45.6Z" transform="translate(-54.921 -9.944)" fill="#313131"/><path d="M160.694,30.9c-.35-.058-.817.35-1.051.934-.175.584-.058,1.109.292,1.168s.817-.35,1.051-.934S161.044,30.954,160.694,30.9Z" transform="translate(-55.779 -3.824)" fill="#313131"/><path d="M161.834,30.367a.234.234,0,1,0-.234-.234A.251.251,0,0,0,161.834,30.367Z" transform="translate(-56.627 -3.412)" fill="#313131"/><path d="M165.823,26.767a.234.234,0,1,0-.234-.234C165.531,26.65,165.648,26.767,165.823,26.767Z" transform="translate(-58.28 -1.914)" fill="#313131"/><path d="M159.734,39.467a.234.234,0,1,0-.234-.234A.251.251,0,0,0,159.734,39.467Z" transform="translate(-55.753 -7.198)" fill="#313131"/><path d="M160.809,38.518a.409.409,0,1,0-.409-.409A.439.439,0,0,0,160.809,38.518Z" transform="translate(-56.127 -6.657)" fill="#313131"/><path d="M163.238,30.609c.292.117.7-.175.993-.7.234-.526.234-1.051-.058-1.226-.292-.117-.7.175-.993.7C162.946,29.908,162.946,30.492,163.238,30.609Z" transform="translate(-57.214 -2.894)" fill="#313131"/><path d="M161.834,28.867a.234.234,0,1,0-.234-.234A.251.251,0,0,0,161.834,28.867Z" transform="translate(-56.627 -2.788)" fill="#313131"/><path d="M162.534,27.867a.234.234,0,1,0-.234-.234A.251.251,0,0,0,162.534,27.867Z" transform="translate(-56.918 -2.372)" fill="#313131"/><path d="M156.1,31.423a.234.234,0,1,0,.234-.234C156.217,31.131,156.1,31.248,156.1,31.423Z" transform="translate(-54.338 -3.942)" fill="#313131"/><path d="M149.13,44.33a.85.85,0,0,0,.759-.934.808.808,0,0,0-.934-.7.85.85,0,0,0-.759.934A.808.808,0,0,0,149.13,44.33Z" transform="translate(-51.047 -8.732)" fill="#313131"/><path d="M147.6,41.423a.234.234,0,1,0,.234-.234C147.717,41.131,147.6,41.248,147.6,41.423Z" transform="translate(-50.802 -8.102)" fill="#313131"/><path d="M147.534,40.667a.234.234,0,1,0-.234-.234A.251.251,0,0,0,147.534,40.667Z" transform="translate(-50.677 -7.697)" fill="#313131"/><path d="M155.523,41.667a.234.234,0,1,0-.234-.234C155.231,41.55,155.348,41.667,155.523,41.667Z" transform="translate(-53.995 -8.113)" fill="#313131"/><path d="M150.723,39.667a.234.234,0,1,0-.234-.234C150.431,39.55,150.548,39.667,150.723,39.667Z" transform="translate(-51.998 -7.281)" fill="#313131"/><path d="M149.234,40.367a.234.234,0,1,0-.234-.234A.251.251,0,0,0,149.234,40.367Z" transform="translate(-51.384 -7.572)" fill="#313131"/><path d="M149.034,42.167a.234.234,0,1,0-.234-.234A.251.251,0,0,0,149.034,42.167Z" transform="translate(-51.301 -8.321)" fill="#313131"/><path d="M147.423,46.767a.234.234,0,1,0-.234-.234C147.131,46.65,147.248,46.767,147.423,46.767Z" transform="translate(-50.625 -10.235)" fill="#313131"/><path d="M143.723,39.867a.234.234,0,1,0-.234-.234C143.431,39.75,143.548,39.867,143.723,39.867Z" transform="translate(-49.085 -7.364)" fill="#313131"/><path d="M144.523,42.167a.234.234,0,1,0-.234-.234C144.231,42.05,144.348,42.167,144.523,42.167Z" transform="translate(-49.418 -8.321)" fill="#313131"/><path d="M143,41.434a.234.234,0,1,0,.234-.234A.214.214,0,0,0,143,41.434Z" transform="translate(-48.888 -8.113)" fill="#313131"/><path d="M146.3,42.023a.234.234,0,1,0,.234-.234C146.417,41.731,146.3,41.848,146.3,42.023Z" transform="translate(-50.261 -8.352)" fill="#313131"/><path d="M146.034,40.767a.234.234,0,1,0-.234-.234A.251.251,0,0,0,146.034,40.767Z" transform="translate(-50.053 -7.739)" fill="#313131"/><path d="M144.934,40.567a.234.234,0,1,0-.234-.234A.214.214,0,0,0,144.934,40.567Z" transform="translate(-49.595 -7.656)" fill="#313131"/><path d="M150.434,42.267a.234.234,0,1,0-.234-.234A.251.251,0,0,0,150.434,42.267Z" transform="translate(-51.884 -8.363)" fill="#313131"/><path d="M156.334,33.8a.234.234,0,1,0,.234.234A.251.251,0,0,0,156.334,33.8Z" transform="translate(-54.338 -5.034)" fill="#313131"/><path d="M156.3,32.823a.234.234,0,1,0,.234-.234C156.417,32.531,156.3,32.648,156.3,32.823Z" transform="translate(-54.422 -4.524)" fill="#313131"/><path d="M155.734,35a.234.234,0,1,0,.234.234A.251.251,0,0,0,155.734,35Z" transform="translate(-54.089 -5.534)" fill="#313131"/><path d="M154.209,38.1a.409.409,0,1,0,.409.409A.4.4,0,0,0,154.209,38.1Z" transform="translate(-53.381 -6.824)" fill="#313131"/><path d="M154.734,35.9a.234.234,0,1,0,.234.234C155.026,36.017,154.909,35.9,154.734,35.9Z" transform="translate(-53.673 -5.908)" fill="#313131"/><path d="M150.867,34.534a.234.234,0,1,0-.234.234A.251.251,0,0,0,150.867,34.534Z" transform="translate(-51.967 -5.242)" fill="#313131"/><path d="M156.319,42.894a.721.721,0,0,0-.526.818.609.609,0,0,0,.7.584.721.721,0,0,0,.526-.818A.585.585,0,0,0,156.319,42.894Z" transform="translate(-54.207 -8.814)" fill="#313131"/><path d="M150.634,31.967a.234.234,0,1,0-.234-.234A.251.251,0,0,0,150.634,31.967Z" transform="translate(-51.967 -4.077)" fill="#313131"/><path d="M150.434,33.267a.234.234,0,1,0-.234-.234A.251.251,0,0,0,150.434,33.267Z" transform="translate(-51.884 -4.618)" fill="#313131"/><path d="M151.223,30.767a.234.234,0,1,0-.234-.234C150.931,30.65,151.048,30.767,151.223,30.767Z" transform="translate(-52.206 -3.578)" fill="#313131"/><path d="M155.509,30.118a.409.409,0,1,0-.409-.409A.4.4,0,0,0,155.509,30.118Z" transform="translate(-53.922 -3.162)" fill="#313131"/><path d="M153.961,28.934a.467.467,0,1,0-.467-.467C153.435,28.7,153.669,28.934,153.961,28.934Z" transform="translate(-53.25 -2.621)" fill="#313131"/><path d="M152.109,29.518a.409.409,0,1,0-.409-.409A.4.4,0,0,0,152.109,29.518Z" transform="translate(-52.508 -2.912)" fill="#313131"/><path d="M142.3,38.734a.234.234,0,1,0,.234-.234A.251.251,0,0,0,142.3,38.734Z" transform="translate(-48.597 -6.99)" fill="#313131"/><path d="M126.6,42.023a.234.234,0,1,0,.234-.234C126.717,41.731,126.6,41.848,126.6,42.023Z" transform="translate(-42.064 -8.352)" fill="#313131"/><path d="M127.955,43.671a.783.783,0,0,0-.642-.876.727.727,0,0,0-.818.642.783.783,0,0,0,.642.876A.727.727,0,0,0,127.955,43.671Z" transform="translate(-42.017 -8.774)" fill="#313131"/><path d="M127.334,45.6a.234.234,0,1,0,.234.234A.251.251,0,0,0,127.334,45.6Z" transform="translate(-42.272 -9.944)" fill="#313131"/><path d="M128.534,45.7a.234.234,0,1,0,.234.234A.251.251,0,0,0,128.534,45.7Z" transform="translate(-42.772 -9.986)" fill="#313131"/><path d="M126.1,38.509a.409.409,0,1,0,.409-.409A.439.439,0,0,0,126.1,38.509Z" transform="translate(-41.856 -6.824)" fill="#313131"/><path d="M127.886,31.309l-.117-.292-.175-.234-.175-.234-.234-.175-.234-.117-.292-.058h-.292l-.292.058-.234.117-.234.175-.175.234-.117.234-.058.292-.058.292v.292l.058.292.117.292.175.234.175.234.234.175.234.117.292.058h.292l.292-.058.234-.117.234-.175.175-.234.117-.234.058-.292.058-.292V31.6ZM126.718,33a1.187,1.187,0,0,1-1.168-1.109,1.126,1.126,0,0,1,.876-1.343,1.187,1.187,0,0,1,1.168,1.109A1.207,1.207,0,0,1,126.718,33Z" transform="translate(-41.482 -3.537)" fill="#313131"/><path d="M137.934,46.2a.234.234,0,1,0,.234.234A.251.251,0,0,0,137.934,46.2Z" transform="translate(-46.683 -10.194)" fill="#313131"/><path d="M129.334,35.4a.234.234,0,1,0,.234.234C129.626,35.517,129.509,35.4,129.334,35.4Z" transform="translate(-43.105 -5.7)" fill="#313131"/><path d="M134.934,45.6a.234.234,0,1,0,.234.234C135.226,45.717,135.109,45.6,134.934,45.6Z" transform="translate(-45.435 -9.944)" fill="#313131"/><path d="M136.734,45.7a.234.234,0,1,0,.234.234A.251.251,0,0,0,136.734,45.7Z" transform="translate(-46.183 -9.986)" fill="#313131"/><path d="M129.734,46.2a.234.234,0,1,0,.234.234A.251.251,0,0,0,129.734,46.2Z" transform="translate(-43.271 -10.194)" fill="#313131"/><path d="M131.034,45.6a.234.234,0,1,0,.234.234A.251.251,0,0,0,131.034,45.6Z" transform="translate(-43.812 -9.944)" fill="#313131"/><path d="M129.467,41.434a.234.234,0,1,0-.234.234A.251.251,0,0,0,129.467,41.434Z" transform="translate(-43.063 -8.113)" fill="#313131"/><path d="M132.434,45.7a.234.234,0,1,0,.234.234A.251.251,0,0,0,132.434,45.7Z" transform="translate(-44.394 -9.986)" fill="#313131"/><path d="M115.867,27.934a.234.234,0,1,0-.234.234C115.75,28.226,115.867,28.109,115.867,27.934Z" transform="translate(-37.404 -2.496)" fill="#313131"/><path d="M129.109,38.618a.409.409,0,1,0-.409-.409A.4.4,0,0,0,129.109,38.618Z" transform="translate(-42.938 -6.699)" fill="#313131"/><path d="M120.567,41.934a.234.234,0,1,0-.234.234A.251.251,0,0,0,120.567,41.934Z" transform="translate(-39.36 -8.321)" fill="#313131"/><path d="M168.009,24.618a.409.409,0,1,0-.409-.409A.4.4,0,0,0,168.009,24.618Z" transform="translate(-59.123 -0.874)" fill="#313131"/><path d="M170.1,24.6a.7.7,0,0,0,0-1.4.7.7,0,1,0,0,1.4Z" transform="translate(-59.872 -0.624)" fill="#313131"/><path d="M120.734,45.7a.234.234,0,1,0,.234.234A.214.214,0,0,0,120.734,45.7Z" transform="translate(-39.526 -9.986)" fill="#313131"/><path d="M120.267,39.734a.234.234,0,1,0-.234.234A.251.251,0,0,0,120.267,39.734Z" transform="translate(-39.235 -7.406)" fill="#313131"/><path d="M127.567,36.2a.467.467,0,1,0,.467.467C128.093,36.434,127.859,36.2,127.567,36.2Z" transform="translate(-42.272 -6.033)" fill="#313131"/><path d="M128.034,41.7a.234.234,0,1,0,.234.234A.251.251,0,0,0,128.034,41.7Z" transform="translate(-42.564 -8.321)" fill="#313131"/><path d="M126.034,46.2a.234.234,0,1,0,.234.234A.251.251,0,0,0,126.034,46.2Z" transform="translate(-41.732 -10.194)" fill="#313131"/><path d="M121.934,46.2a.234.234,0,1,0,.234.234C122.226,46.317,122.109,46.2,121.934,46.2Z" transform="translate(-40.026 -10.194)" fill="#313131"/><path d="M124.834,45.7a.234.234,0,1,0,.234.234A.251.251,0,0,0,124.834,45.7Z" transform="translate(-41.232 -9.986)" fill="#313131"/><path d="M123.334,45.6a.234.234,0,1,0,.234.234A.251.251,0,0,0,123.334,45.6Z" transform="translate(-40.608 -9.944)" fill="#313131"/><path d="M141,37.309a.409.409,0,1,0,.409-.409A.4.4,0,0,0,141,37.309Z" transform="translate(-48.056 -6.324)" fill="#313131"/><path d="M153.344,33.42l.234-.175.175-.234.175-.234.117-.292.058-.292V31.9l-.058-.292-.117-.292-.117-.234-.175-.234-.234-.175-.234-.117-.292-.058h-.292l-.292.058-.234.117-.234.175-.175.234-.175.234-.117.292-.058.292v.292l.058.292.117.292.117.234.175.234.234.175.234.117.292.058h.292l.292-.058Zm-.818-.175a1.256,1.256,0,0,1,.292-2.453,1.17,1.17,0,0,1,.876,1.343C153.577,32.836,153.11,33.3,152.526,33.244Z" transform="translate(-52.341 -3.661)" fill="#313131"/><path d="M152.7,41.934a.234.234,0,1,0,.234-.234A.251.251,0,0,0,152.7,41.934Z" transform="translate(-52.924 -8.321)" fill="#313131"/><path d="M151.534,35.867a.234.234,0,1,0-.234-.234A.251.251,0,0,0,151.534,35.867Z" transform="translate(-52.341 -5.7)" fill="#313131"/><path d="M153.634,36.667a.467.467,0,1,0-.467.467C153.4,37.193,153.634,36.959,153.634,36.667Z" transform="translate(-52.924 -6.033)" fill="#313131"/><path d="M150.034,45.6a.234.234,0,1,0,.234.234A.251.251,0,0,0,150.034,45.6Z" transform="translate(-51.717 -9.944)" fill="#313131"/><path d="M140.242,34.6a.642.642,0,1,0,.642.642A.648.648,0,0,0,140.242,34.6Z" transform="translate(-47.473 -5.367)" fill="#313131"/><path d="M151.334,46.2a.234.234,0,1,0,.234.234A.251.251,0,0,0,151.334,46.2Z" transform="translate(-52.258 -10.194)" fill="#313131"/><circle cx="0.234" cy="0.234" r="0.234" transform="translate(100.477 33.437)" fill="#313131"/><path d="M155.034,46.2a.234.234,0,1,0,.234.234A.251.251,0,0,0,155.034,46.2Z" transform="translate(-53.797 -10.194)" fill="#313131"/><path d="M152.067,41.434a.234.234,0,1,0-.234.234A.251.251,0,0,0,152.067,41.434Z" transform="translate(-52.466 -8.113)" fill="#313131"/><path d="M152.837,42.795a.783.783,0,0,0-.642.876.727.727,0,0,0,.818.642.783.783,0,0,0,.642-.876A.727.727,0,0,0,152.837,42.795Z" transform="translate(-52.71 -8.774)" fill="#313131"/><path d="M152.534,45.7a.234.234,0,1,0,.234.234A.214.214,0,0,0,152.534,45.7Z" transform="translate(-52.757 -9.986)" fill="#313131"/><path d="M153.734,45.6a.234.234,0,1,0,.234.234A.251.251,0,0,0,153.734,45.6Z" transform="translate(-53.257 -9.944)" fill="#313131"/><path d="M151.709,38.618a.409.409,0,1,0-.409-.409A.4.4,0,0,0,151.709,38.618Z" transform="translate(-52.341 -6.699)" fill="#313131"/><path d="M139.234,45.6a.234.234,0,1,0,.234.234A.251.251,0,0,0,139.234,45.6Z" transform="translate(-47.224 -9.944)" fill="#313131"/><path d="M138.8,42.023a.234.234,0,1,0,.234-.234C138.917,41.731,138.8,41.848,138.8,42.023Z" transform="translate(-47.14 -8.352)" fill="#313131"/><path d="M141.834,45.6a.234.234,0,1,0,.234.234A.251.251,0,0,0,141.834,45.6Z" transform="translate(-48.305 -9.944)" fill="#313131"/><path d="M148.634,45.7a.234.234,0,1,0,.234.234A.251.251,0,0,0,148.634,45.7Z" transform="translate(-51.135 -9.986)" fill="#313131"/><path d="M156.234,45.7a.234.234,0,1,0,.234.234A.251.251,0,0,0,156.234,45.7Z" transform="translate(-54.297 -9.986)" fill="#313131"/><path d="M139,37.309a.409.409,0,1,0,.409-.409A.4.4,0,0,0,139,37.309Z" transform="translate(-47.224 -6.324)" fill="#313131"/><path d="M140.94,43.489a.97.97,0,0,0-.934-.993,1,1,0,0,0-1.109.876.97.97,0,0,0,.934.993A1.031,1.031,0,0,0,140.94,43.489Z" transform="translate(-47.178 -8.65)" fill="#313131"/><path d="M141.934,41.7a.234.234,0,1,0,.234.234A.214.214,0,0,0,141.934,41.7Z" transform="translate(-48.347 -8.321)" fill="#313131"/><path d="M144.676,42.6a.948.948,0,0,0-.876.934.961.961,0,0,0,.993.818.88.88,0,1,0-.117-1.752Z" transform="translate(-49.221 -8.692)" fill="#313131"/><path d="M146.034,45.6a.234.234,0,1,0,.234.234C146.326,45.717,146.209,45.6,146.034,45.6Z" transform="translate(-50.053 -9.944)" fill="#313131"/><path d="M143.134,46.2a.234.234,0,1,0,.234.234A.251.251,0,0,0,143.134,46.2Z" transform="translate(-48.846 -10.194)" fill="#313131"/><path d="M144.334,45.7a.234.234,0,1,0,.234.234A.214.214,0,0,0,144.334,45.7Z" transform="translate(-49.346 -9.986)" fill="#313131"/><path d="M164.834,26.067a.234.234,0,1,0-.234-.234A.251.251,0,0,0,164.834,26.067Z" transform="translate(-57.875 -1.623)" fill="#313131"/><path d="M130.168,52.461h0a.975.975,0,0,0,0-.818.671.671,0,0,0-.526-.35.711.711,0,0,0-.7.292,1.017,1.017,0,0,0-.467-.7.522.522,0,0,0-.7.234,2.924,2.924,0,0,0-.409-.467,1.015,1.015,0,0,0-.642-.35.37.37,0,0,0-.35.292.977.977,0,0,0,.058.7,1.071,1.071,0,0,0,.409.584,2.074,2.074,0,0,0,.526.234.977.977,0,0,0,.35.993.717.717,0,0,0,.818-.292c0,.35.175.7.409.759a.858.858,0,0,0,.7-.234,1.83,1.83,0,0,0,.467-.642c-.234-.058-.467-.058-.642-.117a1.749,1.749,0,0,1-.234.467c-.175.234-.175.175-.058-.058a4.024,4.024,0,0,0,.175-.467,3.406,3.406,0,0,1-1.051-.467,1.047,1.047,0,0,1-.292.409c-.117.117-.175.175-.058-.058.058-.117.175-.292.234-.409a5.478,5.478,0,0,1-.7-.526c-.234-.175-.234-.175.058-.058a3.146,3.146,0,0,0,.759.409,4.023,4.023,0,0,0,.175-.467c.058-.175.117-.234.058,0a1.705,1.705,0,0,1-.117.526,7.8,7.8,0,0,0,1.051.409,1.7,1.7,0,0,0,.117-.526c.058-.234.058-.175.058.058a1.617,1.617,0,0,1-.058.526A1.465,1.465,0,0,0,130.168,52.461Z" transform="translate(-41.954 -11.9)" fill="#313131"/><path d="M127.294,71.137a4.024,4.024,0,0,1,.175-.467c-.117-.058-.175-.058-.292-.117s-.175-.117,0-.058c.117.058.234.058.35.117.058-.234.117-.526.175-.818a.446.446,0,0,1-.292-.117c-.117-.058-.117-.117,0-.058a.526.526,0,0,0,.292.058c0-.175.058-.409.058-.642s0-.234.058,0v.642h.292c.175,0,.117.058,0,.058s-.234.058-.35,0a2.061,2.061,0,0,1-.175.818,2.529,2.529,0,0,1,.292.058c.175,0,.175.058,0,.058h-.35c-.058.175-.117.292-.175.467a1.617,1.617,0,0,0,.526-.058.617.617,0,0,0,.409-.35.508.508,0,0,0-.234-.526.668.668,0,0,0,.467-.409.7.7,0,0,0-.409-.584.866.866,0,0,0,.058-.409.942.942,0,0,0-.175-.526,1.548,1.548,0,0,0-.35-.292.213.213,0,0,0-.292.117,1.45,1.45,0,0,0-.058.526c0,.175.058.292.058.409a.386.386,0,0,0-.35.409,1.127,1.127,0,0,0,.175.584.617.617,0,0,0-.409.35.645.645,0,0,0,0,.467,1.129,1.129,0,0,0,.526.292Z" transform="translate(-42.116 -19.248)" fill="#313131"/><path d="M137.144,82.3a2.411,2.411,0,0,0,.409.642h0a1.138,1.138,0,0,0,.584-.584.772.772,0,0,0-.117-.7.81.81,0,0,0-.7-.409,1.2,1.2,0,0,0,.175-.876.633.633,0,0,0-.642-.467,1.194,1.194,0,0,0,0-.642,1.461,1.461,0,0,0-.175-.759.3.3,0,0,0-.467-.058,1.379,1.379,0,0,0-.467.526,1.284,1.284,0,0,0-.117.818,1.749,1.749,0,0,0,.234.584,1.084,1.084,0,0,0-.467.993.934.934,0,0,0,.759.526.9.9,0,0,0-.234.876.842.842,0,0,0,.642.409,1.681,1.681,0,0,0,.759-.058,6.369,6.369,0,0,0-.35-.642,1.374,1.374,0,0,1-.467.117c-.292.058-.234,0,0-.058a4.023,4.023,0,0,1,.467-.175,5.611,5.611,0,0,1-.409-1.168,1.451,1.451,0,0,1-.467.058c-.175,0-.234-.058,0-.117.175-.058.292-.058.467-.117a5.111,5.111,0,0,1-.117-.934c-.058-.35,0-.35.058,0a4.374,4.374,0,0,0,.234.934,2.846,2.846,0,0,0,.409-.175c.175-.058.234-.058.058.058a1.174,1.174,0,0,1-.467.234A6.958,6.958,0,0,0,137.2,82.3c.175-.058.292-.175.467-.234.175-.117.175-.058,0,.117A.71.71,0,0,0,137.144,82.3Z" transform="translate(-45.718 -23.575)" fill="#313131"/><path d="M129.913,78.1c-.117.117-.292.175-.409.292a2.76,2.76,0,0,0,.409.7,1.044,1.044,0,0,0,.584-.526.977.977,0,0,0-.058-.7.9.9,0,0,0-.7-.467.981.981,0,0,0,.175-.876.694.694,0,0,0-.642-.526,2.189,2.189,0,0,0,.058-.642,1.461,1.461,0,0,0-.175-.759.366.366,0,0,0-.467-.117,1.379,1.379,0,0,0-.467.526,1.8,1.8,0,0,0-.175.759,1.714,1.714,0,0,0,.175.584,1.058,1.058,0,0,0-.526.934.834.834,0,0,0,.759.584.717.717,0,0,0-.292.818.9.9,0,0,0,.642.467,1.924,1.924,0,0,0,.818,0,7.82,7.82,0,0,1-.35-.7,1.286,1.286,0,0,1-.467.058c-.292,0-.234-.058,0-.058.175-.058.292-.058.467-.117a4.847,4.847,0,0,1-.35-1.226.64.64,0,0,1-.467,0c-.175,0-.234-.058,0-.117.175,0,.292-.058.467-.058a5.023,5.023,0,0,1-.058-.934c0-.35,0-.35.058,0s.117.642.175.934a1.526,1.526,0,0,0,.467-.175c.175-.058.234-.058.058.058a1.174,1.174,0,0,1-.467.234,6.87,6.87,0,0,0,.409,1.168,1.748,1.748,0,0,0,.467-.234C130.146,77.862,130.088,77.979,129.913,78.1Z" transform="translate(-42.516 -21.943)" fill="#313131"/><path d="M131.233,59.4a.471.471,0,0,0-.175-.526,1.245,1.245,0,0,0-.7-.175,1.077,1.077,0,0,0-.7.292,1.379,1.379,0,0,0-.35.526.954.954,0,0,0-1.051.058c-.234.234-.175.642,0,1.051a.67.67,0,0,0-.818.234,1.129,1.129,0,0,0,0,.876,2.674,2.674,0,0,0,.467.759,7.819,7.819,0,0,1,.35-.7,2.54,2.54,0,0,1-.35-.409c-.175-.234-.117-.234.058-.058l.35.35a4.859,4.859,0,0,1,.759-1.051,1.271,1.271,0,0,1-.292-.467c-.117-.175-.058-.234.058-.058.117.117.234.292.35.409a7,7,0,0,1,.7-.642c.292-.234.234-.175,0,.058s-.409.467-.642.7a2.54,2.54,0,0,0,.409.35c.175.117.175.175-.058.058a2.049,2.049,0,0,1-.467-.292,10.956,10.956,0,0,0-.7,1.051,3.238,3.238,0,0,0,.467.35c.234.117.117.117-.058.058a1.748,1.748,0,0,1-.467-.234c-.117.234-.234.467-.35.759h0a.878.878,0,0,0,.759.234.829.829,0,0,0,.526-.467,1.066,1.066,0,0,0-.058-.934,1.06,1.06,0,0,0,.818-.35.794.794,0,0,0,0-.876,2.186,2.186,0,0,0,.584-.35A.959.959,0,0,0,131.233,59.4Z" transform="translate(-42.376 -15.394)" fill="#313131"/><path d="M122.657,73.226a5.785,5.785,0,0,0,.642.993h0a1.475,1.475,0,0,0,.818-.993,1.407,1.407,0,0,0-.234-1.051,1.359,1.359,0,0,0-1.168-.584,1.977,1.977,0,0,0,.175-1.4,1.021,1.021,0,0,0-1.051-.642,3.17,3.17,0,0,0,0-1.051,3.774,3.774,0,0,0-.35-1.226.54.54,0,0,0-.759-.058,2.124,2.124,0,0,0-.7.876,1.962,1.962,0,0,0-.117,1.285,1.753,1.753,0,0,0,.409.876,1.72,1.72,0,0,0-.642,1.577,1.287,1.287,0,0,0,1.285.7,1.214,1.214,0,0,0-.292,1.4,1.374,1.374,0,0,0,1.051.584,2.055,2.055,0,0,0,1.168-.175c-.234-.35-.467-.7-.642-.993a2.891,2.891,0,0,1-.759.234c-.409.058-.409,0-.058-.117.234-.117.467-.175.7-.292a9.249,9.249,0,0,1-.759-1.81,3.418,3.418,0,0,1-.759.117c-.292,0-.35-.058,0-.175a3.292,3.292,0,0,0,.7-.234,11.657,11.657,0,0,1-.292-1.518c-.058-.526-.058-.526.058,0a7.88,7.88,0,0,0,.467,1.4,1.973,1.973,0,0,0,.7-.35c.234-.175.35-.117.058.117a2.593,2.593,0,0,1-.642.467,12.185,12.185,0,0,0,.818,1.752c.234-.117.467-.292.7-.409.292-.234.234-.117,0,.117A1.241,1.241,0,0,1,122.657,73.226Z" transform="translate(-39.173 -18.884)" fill="#313131"/><path d="M123.5,65.512c0,.234.175.409.409.584a2.159,2.159,0,0,0,.642.292,2.619,2.619,0,0,1-.058-.642,1.083,1.083,0,0,1-.409-.117c-.234-.058-.175-.117,0-.058.117,0,.292.058.409.058a6.705,6.705,0,0,1,.058-1.109c-.117-.058-.292-.058-.409-.175-.175-.058-.175-.117,0-.058.117.058.292.058.409.117a4.3,4.3,0,0,1,.234-.818c.117-.292.117-.292.058,0a4.581,4.581,0,0,0-.117.818c.117,0,.292.058.409.058.175,0,.175,0,0,.058a.5.5,0,0,1-.409,0,3.53,3.53,0,0,0,0,1.109h.467c.175,0,.117,0,0,.058a.994.994,0,0,1-.409.058,2.931,2.931,0,0,0,.117.7h0a.728.728,0,0,0,.642-.234.986.986,0,0,0,.175-.584.844.844,0,0,0-.409-.584,1.11,1.11,0,0,0,.409-.642.733.733,0,0,0-.35-.642,1.1,1.1,0,0,0,.234-.526,3.5,3.5,0,0,0,.117-.7.32.32,0,0,0-.35-.234,1.049,1.049,0,0,0-.526.234.993.993,0,0,0-.35.584.789.789,0,0,0,0,.526.823.823,0,0,0-.7.584c-.058.292.175.526.467.7C123.675,64.986,123.5,65.278,123.5,65.512Z" transform="translate(-40.775 -16.892)" fill="#313131"/><path d="M134.1,57c.175-.058.234-.175.292-.409a.632.632,0,0,0,.35.058.994.994,0,0,0,.409-.058c.117-.058.117-.175.058-.292a1.221,1.221,0,0,0-.234-.35,1.083,1.083,0,0,0-.409-.117.446.446,0,0,0-.292.117.548.548,0,0,0-.467-.35.462.462,0,0,0-.292.467.342.342,0,0,0-.409-.175.492.492,0,0,0-.234.409.645.645,0,0,0,0,.467l.35-.175c0-.117-.058-.175-.058-.292,0-.175,0-.175.058,0,0,.117.058.175.058.292a1.331,1.331,0,0,1,.642-.175v-.292c0-.117.058-.175.058,0a.526.526,0,0,0,.058.292c.175,0,.35-.058.526-.058s.175,0,0,.058a1.1,1.1,0,0,0-.467.117c0,.117.058.175.058.292.058.117,0,.117-.058,0s-.058-.175-.117-.292a2.847,2.847,0,0,0-.642.234c0,.117.058.175.117.292s0,.117-.058,0a.446.446,0,0,1-.117-.292,1.222,1.222,0,0,0-.35.234h0a.578.578,0,0,0,.292.409.372.372,0,0,0,.35,0A.492.492,0,0,0,133.8,57,.456.456,0,0,0,134.1,57Z" transform="translate(-44.654 -14.105)" fill="#313131"/><path d="M157.056,68.387a2.135,2.135,0,0,0-.642-.876.54.54,0,0,0-.759.058,3.065,3.065,0,0,0-.35,1.168,3.17,3.17,0,0,0,0,1.051.978.978,0,0,0-1.051.642,1.538,1.538,0,0,0,.175,1.4,1.282,1.282,0,0,0-1.109.526,1.407,1.407,0,0,0-.234,1.051,1.475,1.475,0,0,0,.817.993h0a9.51,9.51,0,0,0,.642-.993,1.656,1.656,0,0,1-.584-.526c-.234-.234-.292-.35,0-.117a4.355,4.355,0,0,0,.7.409,12.185,12.185,0,0,0,.818-1.752,1.656,1.656,0,0,1-.642-.467c-.234-.234-.175-.234.058-.117a6.371,6.371,0,0,1,.642.35,8,8,0,0,0,.409-1.4c.117-.526.175-.526.058,0a10.759,10.759,0,0,1-.292,1.46c.234.058.467.175.7.234.35.117.292.175,0,.175a3.418,3.418,0,0,1-.759-.117,9.248,9.248,0,0,1-.759,1.81,5.688,5.688,0,0,0,.642.292c.35.117.35.175-.058.117a3.776,3.776,0,0,1-.759-.234c-.175.292-.409.642-.642.993a4.361,4.361,0,0,0,1.168.175c.467-.058.876-.175,1.051-.584A1.224,1.224,0,0,0,156,72.766a1.287,1.287,0,0,0,1.285-.7,1.593,1.593,0,0,0-.642-1.577,3.051,3.051,0,0,0,.409-.876A1.771,1.771,0,0,0,157.056,68.387Z" transform="translate(-53.075 -19.009)" fill="#313131"/><path d="M154.911,63.018a1.212,1.212,0,0,0-.35-.584,1.049,1.049,0,0,0-.526-.234.32.32,0,0,0-.35.234,1.6,1.6,0,0,0,.117.7,1.443,1.443,0,0,0,.234.526.588.588,0,0,0-.35.642.884.884,0,0,0,.409.642.7.7,0,0,0-.409.584.56.56,0,0,0,.175.584.728.728,0,0,0,.642.234h0c.058-.234.058-.467.117-.7a.994.994,0,0,1-.409-.058c-.175-.058-.234-.117,0-.058h.467V64.419h-.409c-.175-.058-.117-.058,0-.058a.994.994,0,0,0,.409-.058,4.582,4.582,0,0,0-.117-.818c-.058-.292-.058-.292.058,0,.058.292.175.526.234.818.117-.058.292-.058.409-.117.175-.058.175,0,0,.058-.117.058-.292.117-.409.175a6.705,6.705,0,0,1,.058,1.109.994.994,0,0,0,.409-.058c.175-.058.234,0,0,.058a1.083,1.083,0,0,1-.409.117c0,.234-.058.409-.058.642a1.3,1.3,0,0,0,.642-.292.987.987,0,0,0,.409-.584.672.672,0,0,0-.467-.584.824.824,0,0,0,.467-.7.757.757,0,0,0-.7-.584A.508.508,0,0,1,154.911,63.018Z" transform="translate(-53.324 -16.851)" fill="#313131"/><path d="M137.436,53.769h0a.954.954,0,0,0,0-.7c-.117-.175-.234-.292-.409-.292a.6.6,0,0,0-.584.234.739.739,0,0,0-.409-.584.428.428,0,0,0-.584.175c-.117-.117-.175-.234-.35-.409-.175-.117-.35-.292-.526-.292s-.234.117-.292.292a1.009,1.009,0,0,0,.058.584,1.188,1.188,0,0,0,.35.526.776.776,0,0,0,.467.175.77.77,0,0,0,.292.818c.234.117.467,0,.7-.234,0,.292.117.584.35.642a.643.643,0,0,0,.584-.234,1.818,1.818,0,0,0,.409-.526c-.175-.058-.409-.058-.584-.117a3.349,3.349,0,0,1-.234.409c-.117.175-.117.175-.058,0a2.847,2.847,0,0,0,.175-.409,3.051,3.051,0,0,1-.876-.409c-.058.117-.175.234-.234.35-.117.117-.175.117-.058-.058l.175-.35a4.091,4.091,0,0,1-.584-.467c-.234-.175-.175-.175,0-.058.234.117.409.234.642.35a.844.844,0,0,0,.117-.409c.058-.175.058-.175.058,0a.844.844,0,0,1-.117.409l.876.35c.058-.117.058-.292.117-.467s.058-.117.058.058a.866.866,0,0,1-.058.409A.713.713,0,0,0,137.436,53.769Z" transform="translate(-45.251 -12.565)" fill="#313131"/><path d="M119.467,30.034a.234.234,0,1,0-.234.234C119.35,30.326,119.467,30.209,119.467,30.034Z" transform="translate(-38.902 -3.37)" fill="#313131"/><path d="M116.134,26.067a.234.234,0,1,0-.234-.234A.251.251,0,0,0,116.134,26.067Z" transform="translate(-37.612 -1.623)" fill="#313131"/><path d="M115,26.434a.234.234,0,1,0,.234-.234A.251.251,0,0,0,115,26.434Z" transform="translate(-37.238 -1.872)" fill="#313131"/><path d="M149.736,77.895h.584v-.817l-.058-.058-.058-.058-.058-.058-.058-.058-.058-.058-.175-.175.117-.175.058-.058.058-.058.058-.058.058-.058v-.876l-.058-.058-.058-.058-.058-.058-.058-.058-.058-.058-.058-.058-.058-.058-.058-.058-.058-.058h-.234l-.058.058-.058.058-.058.058-.058.117-.058.117-.058.117v.934h-.467l-.058.058-.058.058-.058.058-.058.058-.058.058-.058.058v.526l.058.117.117.35h-.584l-.058.058-.058.058-.058.058-.058.058-.058.058-.058.058-.058.058-.058.058v.409l.058.058.058.058.058.058.058.058.058.058.117.058h.058l.35-.526a.992.992,0,0,1-.35-.35c-.117-.175-.175-.234,0-.117.117.117.292.175.409.292a6.658,6.658,0,0,0,.584-1.109,1.047,1.047,0,0,1-.409-.292c-.175-.175-.117-.175.058-.058a1.464,1.464,0,0,0,.409.234l.35-.876c.117-.292.117-.35.058,0s-.175.642-.234.934c.175.058.292.117.467.175.234.058.175.117,0,.117a1.1,1.1,0,0,1-.467-.117,5.455,5.455,0,0,1-.584,1.168c.117.058.292.117.409.175.175.117.234.117-.058.058a1.526,1.526,0,0,1-.467-.175c-.117.175-.234.292-.35.467h.934l.058-.058.058-.058.058-.058.058-.058.058-.058h0v-.759l-.058-.058-.234-.292h.409Z" transform="translate(-50.719 -22.093)" fill="#313131"/><path d="M117.434,26.867a.234.234,0,1,0-.234-.234A.251.251,0,0,0,117.434,26.867Z" transform="translate(-38.153 -1.956)" fill="#313131"/><path d="M115.838,29.168c-.292.117-.292.7-.058,1.226s.7.818.993.7.292-.7.058-1.226S116.13,28.992,115.838,29.168Z" transform="translate(-37.492 -3.088)" fill="#313131"/><path d="M118.434,27.867a.234.234,0,1,0-.234-.234A.251.251,0,0,0,118.434,27.867Z" transform="translate(-38.569 -2.372)" fill="#313131"/><path d="M118.9,28.534a.234.234,0,1,0,.234-.234A.251.251,0,0,0,118.9,28.534Z" transform="translate(-38.861 -2.746)" fill="#313131"/><path d="M112.809,24.618a.409.409,0,1,0-.409-.409A.4.4,0,0,0,112.809,24.618Z" transform="translate(-36.156 -0.874)" fill="#313131"/><path d="M155.093,81.9a2.494,2.494,0,0,0,.058-1.46.818.818,0,0,0-.876-.642,4.869,4.869,0,0,0-2.394,1.693,1.548,1.548,0,0,0-1.752-.35,1.893,1.893,0,0,0-1.051,1.4,1.991,1.991,0,0,0-1.752-.526,1.559,1.559,0,0,0-1.168.759,1.89,1.89,0,0,0,0,1.693h0a13.58,13.58,0,0,0,1.635-.292,2.728,2.728,0,0,1-.175-.993c0-.409,0-.584.175-.117l.35,1.051a20.571,20.571,0,0,0,2.453-.876,2.875,2.875,0,0,1-.35-.993c-.058-.467.058-.35.175,0s.292.642.409.934a16.308,16.308,0,0,0,1.752-.876c.584-.35.642-.35.058.058-.526.409-1.109.759-1.635,1.109.175.292.409.584.584.876.292.409.117.409-.175.117a3.073,3.073,0,0,1-.7-.818,13.43,13.43,0,0,1-2.453.993,6.381,6.381,0,0,0,.467.876c.234.409.234.526-.175.058a3.812,3.812,0,0,1-.584-.876q-.7.175-1.577.35a3.906,3.906,0,0,0,1.168,1.226,2.119,2.119,0,0,0,1.693.467,1.361,1.361,0,0,0,.876-1.518,2.015,2.015,0,0,0,2.044.526,1.779,1.779,0,0,0,.7-1.985A2.665,2.665,0,0,0,154.1,83.3,4.418,4.418,0,0,0,155.093,81.9Z" transform="translate(-50.12 -24.168)" fill="#313131"/><path d="M107.6,23.452l.117.234.175.234.234.175.234.175.292.117.292.117.35.058h.818l.35.058.234.058.175.117.117.117.117.175.117.175.117.234.058.292.117.292.117.35.117.35.175.409.175.409.234.409.409.526.292.058.058.058.117.058.117.117.117.117.117.175.058.175.058.175.058.175.058.175.058.175v.467l-.058.117v1.577l.058.175.058.175.058.175.117.175.058.058-.058.175v.292l.058.117.058.117V35.13l.117.292.234.234h.058v.876l.058.234.175.409h24.35l.175-.409.058-.234v-.876h.058l.234-.234.117-.292v-1.4h-.058l.058-.117.058-.117.058-.117v-.292l-.058-.175.058-.058.117-.175.058-.175.058-.175.058-.175V30.576l-.058-.117v-.467l.058-.175.058-.175.058-.175.058-.175.058-.175.117-.175.117-.117.117-.117.117-.058L141,28.59l.292-.058.409-.526.234-.409.175-.409.175-.409.117-.35.117-.35.117-.292.058-.292.117-.234.117-.175.117-.175.117-.117.175-.117.234-.058.35-.058h.818l.35-.058.292-.117.292-.117.234-.175.234-.175.175-.234.117-.234.058-.292v-.292l-.058-.292-.117-.292-.234-.234-.292-.175-.35-.117-.409-.058h-.7l-.234.058-.234.058-.234.058-.234.058-.234.058-.234.058-.175.058-.175.058-.175.058-.175.058-.117.058-.117.058-.117.058-.234.117-.234.117-.234.117-.234.117-.234.175-.234.175-.175.175-.175.175-.175.175-.175.175-.175.175-.175.175-.175.175-.175.175-.175.175-.175.234-.175.35-.175.292-.117.292-.117.292-.117.292-.117.234-.117.234-.117.234-.117.234V27.6h0v-.234l-.058-.234-.058-.234-.117-.35-.117-.058h0l-.058-.175-.058-.175-.058-.175-.058-.175-.058-.175-.117-.175-.117-.175-.117-.117-.117-.117-.117-.117-.175-.117-.175-.117-.175-.117-.175-.058-.292-.117-.292.058-.175.058-.175.058-.175.058-.175.058-.175.058-.175.117-.175.117-.117.117-.117.117-.117.117-.117.117-.117.117-.117.175L133,25.9v.058h-.175l-.175.058-.117.35-.058.175-.058.175-.058.175-.058.175-.058.175-.467.467-.058.175v1.051l.058.234v.292l.058.292v.058l.058.058-.058.117-.058.175v.409l.117.234.175.175.175.117-.058.234h0l-.058.058-.058.058-.058.058-.117.058h0l-.117.058-.234.058-.234.058-.234.058h-.7l-.234-.058-.234-.058-.175-.058-.175-.117-.117-.117-.117-.117-.117-.117-.058-.175-.117-.35-.175-.175L128.8,30.4l-.058-.058-.058-.058-.058-.058v-.058h0l.234.175.292.117.292.058h.409l.35-.117.292-.175.234-.175.175-.234.175-.234.117-.234.117-.292.058-.292.058-.292V27.306l-.058-.234-.058-.234-.058-.234-.058-.175-.058-.175-.058-.175-.058-.175-.058-.117-.058-.117-.058-.117-.058-.117-.058-.117-.058-.117-.058-.117-.058-.117-.058-.117-.058-.117-.117-.117h0V24.5l-.058-.234-.117-.234-.175-.175-.175-.117-.175-.058-.175-.058h-.117l-.058-.058-.058-.058-.058-.058v-.876l-.058-.175-.117-.175-.175-.175-.175-.117-.234-.117-.175-.058L128.1,21.7h-1.4l-.117.058-.175.058-.234.117-.175.117-.175.175-.117.175-.058.175v.876l-.058.058-.058.058-.058.058h-.117l-.175.058-.175.058-.175.117-.175.175-.117.234-.058.234v.117h0l-.117.117-.058.117-.058.117-.058.117-.058.117-.058.117-.058.117-.058.117-.058.117-.058.117-.058.117-.058.175-.058.175-.058.175-.058.175-.058.234-.058.234-.058.234v1.168l.058.292.058.292.117.292.117.234.175.234.175.234.234.175.292.175.35.117h.409l.292-.058.292-.117.234-.175h0v.058l-.058.058-.058.058-.058.058-.058.058-.175.175-.117.35-.058.175-.117.117-.117.117-.117.117-.175.117-.175.058-.234.058-.234.058h-.7l-.234-.058-.234-.058-.234-.058-.117-.058h0l-.117-.058-.058-.058-.058-.058-.058-.058h0l-.058-.234.175-.117.175-.175.117-.234v-.409l-.058-.175-.058-.117.058-.058v-.058l.058-.234.058-.234.058-.234V28.006l-.058-.175-.058-.175-.058-.175-.058-.175-.058-.175-.058-.175-.058-.175-.117-.35-.175-.058h-.175v-.058l-.117-.175-.117-.175-.117-.117-.117-.117-.117-.117-.117-.117-.117-.117-.175-.117-.175-.117-.175-.058-.175-.058-.175-.058-.175-.058-.175-.058-.292-.058-.292.117-.175.058-.175.117-.175.117-.175.117-.117.117-.117.117-.117.117-.117.175-.117.175-.058.175-.058.175-.058.175-.058.175-.058.175h0l-.117.058-.117.35-.058.234-.058.234v.234h0v-.058l-.117-.234-.117-.234-.117-.234-.117-.234-.117-.292L117,26.43l-.117-.292-.175-.292-.175-.35-.175-.234-.175-.175-.175-.175-.175-.175-.175-.175-.175-.175-.175-.175-.175-.175-.175-.175-.175-.175-.234-.175-.234-.117-.234-.117-.234-.117-.234-.117-.234-.117-.117-.058-.117-.058-.117-.058-.175-.058-.175-.058-.175-.058-.175-.058-.234-.058-.234-.058-.234-.058-.234-.058-.234-.058-.234-.058h-.7l-.409.058-.35.117-.292.175-.234.234-.117.292-.058.292v.292Zm29.313,6.131.058-.175.058-.175.058-.175v.117l.175.584.175-.058.175.234.234.175.292.117.234.058-.175.117-.117.175-.117.175-.058.175-.058.117h-.058l-.175.175-.058.058-.058.058-.058.058-.117.058-.117.058h-.993l-.058-.117-.058-.058-.058-.058h0V31.16l.117-.058.175-.175.117-.175.058-.234v-.058l.117-.058.175-.234.058-.117.058-.175Zm-20.671.058.175.058.175-.584V29l.058.175.058.175.058.175.058.175.058.175.058.117.175.234.117.058v.058l.058.234.117.175.175.175.117.058V31.1h0l-.058.058-.058.058-.058.117h-.993l-.117-.058-.117-.058-.058-.058-.058-.058-.058-.058-.234-.292h-.058l-.058-.117-.058-.175-.117-.175-.117-.175-.175-.117.234-.058.292-.117.234-.175Zm-7.3-7.533a6.4,6.4,0,0,1,2.92.876,10.093,10.093,0,0,1,3.095,2.511c.818,1.693,1.577,2.8,1.226,3.679h-.058c-.35.584-.876.876-1.46.35a3.2,3.2,0,0,0,.292.993c.292.058.467.642.642.934h.117a1.879,1.879,0,0,0,2.1.409c0-.175.175-.234.292-.292v-.234a.32.32,0,0,0,.234-.35c-.409-.058-.642-.117-.642-.642a.456.456,0,0,0-.234-.234,3.775,3.775,0,0,1-.409-2.978c.058,0,.175-.117.175-.117.292-.876.642-1.635,1.577-1.869a2.869,2.869,0,0,1,2.044,1.518c.058.058.175.058.292.117a4.093,4.093,0,0,1,.35,3.036s-.175.175-.058.292c.117.175.234.584-.117.759a3.72,3.72,0,0,0-.409.117c0,.234-.058.234,0,.35,0,0,.234.117.234.175,0,.234.35.409.526.584,1.226.409,3.153.409,3.445-1.109a1.239,1.239,0,0,0,.058-1.927c0,.759-.292,1.109-1.109,1.109-1.4-.35-1.343-2.219-1.051-3.328a6.043,6.043,0,0,1,1.226-1.985c.058-.7.175-.642.818-.759.934-.7-.292-1.343.818-1.869a2.017,2.017,0,0,1,.993-.117,2.086,2.086,0,0,1,.993.117c1.168.526-.117,1.168.818,1.869.642.117.759.058.817.759a8.2,8.2,0,0,1,1.226,1.985c.292,1.109.35,2.978-1.051,3.328-.818,0-1.109-.35-1.109-1.109a1.24,1.24,0,0,0,.058,1.927c.292,1.518,2.219,1.518,3.445,1.109.175-.175.526-.35.526-.584,0,0,.234-.117.234-.175.058-.117,0-.117,0-.35a3.723,3.723,0,0,0-.409-.117c-.409-.175-.234-.584-.117-.759.058-.117-.117-.292-.058-.292a4.055,4.055,0,0,1,.35-3.036c.058-.058.175-.058.292-.117a2.869,2.869,0,0,1,2.044-1.518,2.355,2.355,0,0,1,1.577,1.869c.058,0,.175.117.175.117a3.732,3.732,0,0,1-.409,2.978.456.456,0,0,0-.234.234c0,.526-.234.584-.642.642,0,.175,0,.292.234.35v.234c.117.117.292.175.292.292a1.859,1.859,0,0,0,2.1-.409h.117c.175-.292.35-.876.642-.934a1.968,1.968,0,0,0,.292-.993c-.526.526-1.051.292-1.46-.35h-.058c-.409-.876.409-1.985,1.226-3.679a8.179,8.179,0,0,1,3.095-2.511,7.2,7.2,0,0,1,2.92-.876c1.869.292.934,2.1-.759,2.1-2.686,0-1.518,1.869-3.212,4.029-.993.058-1.46,2.161-1.226,2.511,0,.292.058,1.927-.409,1.985-.234.058-.234.058-.117.292.292.117.117.409.058.584-.292,0-.234.584,0,.526-.058.7.292,1.109-.409,1.4,0,.409.175.993-.058,1.4H114.958c-.234-.35-.058-.934-.058-1.4-.7-.292-.292-.7-.409-1.4.234.058.292-.526,0-.526-.058-.175-.234-.467.058-.584.117-.234.117-.234-.117-.292-.467-.058-.409-1.693-.409-1.985.234-.35-.234-2.453-1.226-2.511-1.693-2.161-.526-4.029-3.212-4.029C108.009,24.269,107.074,22.4,108.943,22.109Z" transform="translate(-34.159 0)" fill="#313131"/><path d="M110.3,24.6a.7.7,0,1,0,0-1.4.7.7,0,0,0,0,1.4Z" transform="translate(-34.991 -0.624)" fill="#313131"/><path d="M143.712,82.587a1.255,1.255,0,0,0-.234-1.226,1.49,1.49,0,0,0,.409-.584,1.7,1.7,0,0,0,.058-.934,1.529,1.529,0,0,0-.35-.759c-.175-.175-.409-.234-.526-.058a2.675,2.675,0,0,0-.409.818,1.856,1.856,0,0,0-.117.759.627.627,0,0,0-.817.292,1.172,1.172,0,0,0-.058.993.783.783,0,0,0-.876.234.967.967,0,0,0-.292.759,1.094,1.094,0,0,0,.467.818h0a3.061,3.061,0,0,0,.584-.642,3.24,3.24,0,0,1-.35-.467c-.117-.175-.175-.292.058-.117a1.574,1.574,0,0,0,.467.409,10.1,10.1,0,0,0,.817-1.168,1.364,1.364,0,0,1-.409-.409c-.175-.234-.058-.234.058-.058a3.239,3.239,0,0,0,.467.35,4.657,4.657,0,0,0,.467-.934c.175-.35.175-.35.058,0a5.052,5.052,0,0,1-.409.993,3.259,3.259,0,0,1,.467.292c.234.117.175.175-.058.117a2.074,2.074,0,0,1-.526-.234A5.008,5.008,0,0,1,141.9,83a2.048,2.048,0,0,0,.467.292c.234.117.234.175-.058.058a2.366,2.366,0,0,1-.526-.292c-.175.175-.35.409-.584.642a2.779,2.779,0,0,0,.818.292.791.791,0,0,0,.817-.234.986.986,0,0,0-.058-1.051A.6.6,0,0,0,143.712,82.587Z" transform="translate(-47.848 -23.807)" fill="#313131"/><path d="M114.509,25.318a.409.409,0,1,0-.409-.409A.4.4,0,0,0,114.509,25.318Z" transform="translate(-36.864 -1.165)" fill="#313131"/><path d="M140.192,55.138a1.6,1.6,0,0,0,.759.117,1.155,1.155,0,0,0,.642-.117.771.771,0,0,0,.526.7.907.907,0,0,0,.818-.292,1.019,1.019,0,0,0,.467.759.977.977,0,0,0,.7.058,1.129,1.129,0,0,0,.526-.7h0c-.234-.117-.467-.292-.7-.409a1.174,1.174,0,0,1-.234.467c-.117.175-.175.234-.058,0,.058-.175.117-.35.175-.584a6.869,6.869,0,0,0-1.168-.409l-.175.526c-.117.234-.117.117-.058-.058a1.7,1.7,0,0,0,.117-.526l-.876-.175c-.35-.058-.35-.058,0-.058a4.72,4.72,0,0,1,.934.058c0-.175.058-.35.058-.584,0-.292.058-.234.117,0V54.5a4.449,4.449,0,0,1,1.168.35c.058-.175.058-.35.117-.526.058-.234.058-.292.058,0a1.987,1.987,0,0,1-.058.584c.234.117.409.234.642.35a2.152,2.152,0,0,0-.058-.876,1.019,1.019,0,0,0-.467-.759c-.234-.117-.584.058-.818.35-.058-.467-.234-.818-.584-.876-.292-.058-.642.234-.876.642a.987.987,0,0,0-.584-.175,1.284,1.284,0,0,0-.759.234,1.1,1.1,0,0,0-.467.584C140.017,54.788,140.017,55.022,140.192,55.138Z" transform="translate(-47.656 -13.059)" fill="#313131"/><path d="M144.609,96.4c-.234-.7-.467-1.343-.759-2.1l-.35.175a20.4,20.4,0,0,1,.876,1.985,1.413,1.413,0,0,0,1.635.759A1.341,1.341,0,0,1,144.609,96.4Z" transform="translate(-49.096 -30.206)" fill="#313131"/><path d="M146.9,93.217a6.813,6.813,0,0,1,.993,1.81c-.175-.876-.35-1.168-.526-1.927Z" transform="translate(-50.511 -29.707)" fill="#313131"/><path d="M145.413,91.3h.117a.411.411,0,0,0,.234-.584.527.527,0,0,0-.642-.234H145a1.887,1.887,0,0,0-2.394-.876c-.058,0-.117.058-.175.058l-.117.058a1.687,1.687,0,0,0-.876,1.752,4.479,4.479,0,0,1,1.577-.409,7.166,7.166,0,0,0-1.518.7.427.427,0,0,0-.234.584.491.491,0,0,0,.642.234l.117-.058.993,2.277a1.838,1.838,0,0,0,2.277.818,1.461,1.461,0,0,0,.818-2.044Zm-.467-.058h-.058c.058-.292-.058-.584-.234-.642C144.946,90.6,145.063,91.012,144.946,91.245Zm-.526-.584c.292,0,.409.409.35.642h-.058C144.713,91.012,144.6,90.72,144.421,90.661Zm-.234.058a.416.416,0,0,1,.292.642h-.058A.5.5,0,0,0,144.187,90.72Zm-1.4-1.051a1.976,1.976,0,0,1,1.985.818l-.409.117C144.3,89.9,143.486,89.669,142.786,89.669Zm-.759,2.744c-.292,0-.642-.467-.35-.7a.822.822,0,0,0,.35.7Zm3.153,2.861a1.582,1.582,0,0,1-1.985-.759l-.818-2.1a8.878,8.878,0,0,1,2.686-1.051l.759,2.1A1.255,1.255,0,0,1,145.18,95.274Z" transform="translate(-48.148 -28.203)" fill="#313131"/><path d="M137.664,89.486c-.409-.35-.818-.642-1.226-.934a9.723,9.723,0,0,1,1.343.7,1.464,1.464,0,0,0-.409-1.752l-.117-.117-.117-.117a1.715,1.715,0,0,0-2.336.292l-.117-.058a.533.533,0,0,0-.642.117.4.4,0,0,0,.117.584l.117.058-1.109,1.869a1.373,1.373,0,0,0,.292,2.044,1.69,1.69,0,0,0,2.219-.234l1.4-1.81.058.058a.427.427,0,0,0,.642-.117C137.956,89.895,137.839,89.661,137.664,89.486Zm-.642-2.1c-.642-.175-1.4-.058-1.635.526l-.35-.175A1.715,1.715,0,0,1,137.021,87.384Zm-1.518.642a.591.591,0,0,0-.35.526l-.058-.058A.35.35,0,0,1,135.5,88.026Zm-.526.467-.058-.058c-.058-.234.175-.584.409-.526A.615.615,0,0,0,134.977,88.494Zm.175-.642a.591.591,0,0,0-.35.526h-.058C134.686,88.143,134.861,87.793,135.153,87.851Zm.409,3.854a1.491,1.491,0,0,1-1.927.234,1.165,1.165,0,0,1-.175-1.752l1.168-1.693a7.153,7.153,0,0,1,2.219,1.518Zm1.518-1.693h0c.292-.058.526-.35.467-.526C137.722,89.72,137.372,90.07,137.08,90.012Z" transform="translate(-44.661 -27.145)" fill="#313131"/><path d="M146.592,93.4l-.292.058a3.09,3.09,0,0,1,.642,1.226A4.14,4.14,0,0,0,146.592,93.4Z" transform="translate(-50.261 -29.832)" fill="#313131"/><path d="M150.526,94.148a.742.742,0,0,0,.7,0,1.077,1.077,0,0,0,.234.759.532.532,0,0,0,.7.058,2.075,2.075,0,0,0,.234.526,1.05,1.05,0,0,0,.467.526c.175.058.292,0,.409-.175a1.177,1.177,0,0,0,.175-.642,1.019,1.019,0,0,0-.234-.7.785.785,0,0,0-.409-.35.869.869,0,0,0-.058-.993c-.175-.234-.526-.175-.818,0a.682.682,0,0,0-.175-.818.735.735,0,0,0-.7,0,1.78,1.78,0,0,0-.584.409c.175.117.409.234.584.35l.35-.35c.175-.175.175-.117.058.058-.117.117-.175.234-.292.35a5.042,5.042,0,0,1,.818.759,1.548,1.548,0,0,1,.35-.292c.175-.117.234-.058.058.058a1.548,1.548,0,0,1-.35.292,4.87,4.87,0,0,1,.467.7c.175.292.175.234-.058,0-.175-.234-.35-.409-.526-.642-.117.117-.175.234-.292.35s-.117.175-.058-.058a.941.941,0,0,1,.234-.409,8.72,8.72,0,0,0-.818-.7c-.117.117-.175.292-.292.409-.117.175-.117.117-.058-.058a2.847,2.847,0,0,1,.175-.409,5.136,5.136,0,0,0-.584-.35h0a1.414,1.414,0,0,0-.234.759A2.73,2.73,0,0,0,150.526,94.148Z" transform="translate(-51.8 -29.354)" fill="#313131"/><path d="M186.282,71.2a.79.79,0,0,0,.526-.759c0-1.577-.058-3.153-.117-4.73-1.752-2.628-3.5-2.394-2.277-5.9,2.569-2.044,2.978-3.971,1.518-5.664-1.226-1.285-3.328-2.686-4.029-4.029-.817-1.518,1.46-.876,2.92-2.1-.35-.234-.818-.058-.467-.292.7-.409,1.869-.876,1.985-1.226-.526,0-1.226.234-1.109,0,.175-.584,1.226-.175,1.46-.35-1.285-1.518-4.029-2.044-6.482.058a7.366,7.366,0,0,0,.175-7.591,5.946,5.946,0,0,0-2.453-2.336,4.7,4.7,0,0,0-3.328-.292,6.354,6.354,0,0,0-1.927,1.518,7.086,7.086,0,0,0-.818.584c-.526,1.109-.7,1.577-.292,2.569.7.058,1.46.175,2.161.234-.759.35-2.336.818-3.153-.058a2.593,2.593,0,0,1-.058-1.985c-.467.234-.876.818-1.109.759s-.292-.818-.759-.818c-.292,2.219-.35,2.978,1.343,3.679a3.762,3.762,0,0,0,2.161,0c.35,1.109,2.511.759,2.277,1.4a17.156,17.156,0,0,0-3.562.234c-1.518-.234-3.387-1.4-3.62-3.153-.234-1.226-.058-2.044-.584-3.095a2.264,2.264,0,0,0-1.518-1.051,2.372,2.372,0,0,0-1.109,0c-.467.175-.467.409-.409.818a2.515,2.515,0,0,1-.175,1.635,1.45,1.45,0,0,0,.7,1.285c.234.175.642.526.292,1.635-.175.642.642,1.4,1.051,1.285l.35-.175a14.784,14.784,0,0,1,.058,2.569c.292.642.409.759.409,1.168-.818,1.693-.35,5.723.526,5.839,0-.584,0-1.46.35-1.4a23.8,23.8,0,0,1,0,3.445,5.335,5.335,0,0,1-1.343,1.226,7.783,7.783,0,0,0-2.511.409c-1.285.934-1.343,1.226-1.109,2.394.058.292.35.818.876.759a23.478,23.478,0,0,1,3.5-.175,13.106,13.106,0,0,0,3.62-3.562c1.109-.409,1.927-.058,3.095-.467l.934.175a3.494,3.494,0,0,1,1.635,1.343c-1.752-.35-3.912,2.161-5.839,2.453.234.7.7.409.467.876-1.635,1.285-3.036,3.095-2.92,5.255a1.064,1.064,0,0,1,1.051-.234c.817.818.409,2.161-.175,2.978-1.4.467-3.8-.234-3.8,2.453a.67.67,0,0,0,.642.526c1.4,0,2.628.117,3.971,0,.409,0,.409,0,.584-.292.993-1.81,2.277-2.92,4.263-2.744a4.185,4.185,0,0,1-.409-3.212c.759-1.46,1.285-1.927,3.328-1.752A4.6,4.6,0,0,1,177,64.542c1.051-.467,1.4,1.4.876,2.628a12.268,12.268,0,0,1,3.27.058c.584-.818.876-1.051,1.635-.584a1.462,1.462,0,0,1,.175,1.46,7.817,7.817,0,0,1-2.628.117l-1.577,1.4c0,1.985.117,1.577,2.161,1.752Zm-4.088-17.635c.876.642,2.92,2.161,1.4,2.92-1.285.409-3.8-2.161-4.847-3.562a3.849,3.849,0,0,1-.934-2.161c.234-1.109,1.518-1.927,2.161-3.679C179.683,48.659,178.749,50.586,182.194,53.564ZM171.1,42.177a1.929,1.929,0,0,1-2.277-2.219c.175.234.292.526.467.526s.526-.526.7-.467c.058,2.569,2.1,1.051,3.912,1.752A11.9,11.9,0,0,0,171.1,42.177Zm-6.014.175c-.058-.876-.058-1.752-.117-2.628-.35-.526-.759-.467-.993-.876.409-.409.7-.292,1.051-.35a1.373,1.373,0,0,0-1.051-.759.931.931,0,0,1,.7-.234c2.336.234,1.752,2.219,1.869,4.088,0,1.109,1.81,2.569,3.036,3.153a11.121,11.121,0,0,0-2.628,1.81c-.7-.117-.526-2.92-.7-3.737C165.727,42.995,165.143,43.17,165.085,42.352Zm1.518,8.584a3.834,3.834,0,0,1-.058-2.8A5.719,5.719,0,0,1,169,45.564c.642-.409.934-.876,1.752-.993,1.693-.35,3.445-.175,4.38-.409.584-.117.818-.467.584-.818a8.424,8.424,0,0,0-2.686-.526v-.234c.584.117.642.058,1.518-.234a1.173,1.173,0,0,0,0-1.985,5.657,5.657,0,0,1-2.277-.409c0-1.869.35-2.161,1.577-3.036,2.277-1.051,4.321-.409,5.781,1.81,2.8,3.328-.234,8.642-2.569,11.036-.934.7-2.161,1.81-3.212,1.343.117-.35-.7-1.343-1.051-1.752-.234-.292,1.285-1.752,3.095-2.219,1.81-.526,2.628-2.8,2.686-3.445-.584,1.4-1.109,2.686-3.212,3.27a7.57,7.57,0,0,0-3.036,1.577c-1.109.876-2.161,1.81-2.219,2.277-.058.35-.058-1.4-.642-2.044-.058-.292,1.051-1.577,3.62-2.628-2.219.409-3.737,1.46-4.2,2.686C167.888,48.892,167.362,49.359,166.6,50.936Zm10.219,11.5a4.339,4.339,0,0,0-1.752.292c-2.394,1.109-2.394,3.387-1.985,4.963a5.29,5.29,0,0,0-1.869.35c-.584.292-1.518,1.985-2.1,2.628-.642-.058-.934-.117-1.109-.818h-.467c-.058.117-.175.759-.234.876-.234.117-.7-.642-.584-.993a1.451,1.451,0,0,0-.467.058,1.846,1.846,0,0,0-.35.993c-.642-.175-.292-1.343.058-1.518a7.991,7.991,0,0,1,1.985-.234c1.051-.409,1.168-.876,1.577-1.752a2.808,2.808,0,0,0-.058-2.277c-.292-.409-.35-.642-1.343-.35-.175-1.46,2.686-4.2,3.445-4.263l-.642-.642c1.226.058,3.387-2.686,5.314-2.1.584.175.818.292.876.993C177.172,59.695,176.18,59.461,176.822,62.439Zm3.445,7.241c-.117.234-.117.934-.234,1.168-.993-.058-.818-1.109-.292-1.577.876-.759,2.277-.526,3.679-.584.409-.993-.175-3.212-1.577-3.153-1.168,1.168-1.518.818-3.27.759a1.977,1.977,0,0,0-.467-2.1c-.058-.058-.35-.409-.642-.409a2.479,2.479,0,0,0,0-1.46,4.881,4.881,0,0,1,.467-4.029c-.584-1.343-2.569-2.978-4.671-3.737-.993.642-2.511.35-3.62.642A11.354,11.354,0,0,1,166.9,58.41a1.878,1.878,0,0,1-1.4.409c-.234-.409,0-.642-.175-.876a1.3,1.3,0,0,0-.759.934c-.759,0-.467-.759-.876-.876a1.121,1.121,0,0,0-.35,1.051c-.292,0-.584-.409-.642-.7-.175-1.635,1.927-1.577,2.978-1.635,1.343-1.109,1.635-1.4,1.927-1.985a29.327,29.327,0,0,1,0-3.971c.175-.993.584-1.635,1.577-1.635.35.35.292,2.161.642,2.511.818-.876,1.577-2.044,2.277-2.044a1.592,1.592,0,0,1,1.051,1.985c.993.526,3.62-.35,3.8-.7a12.362,12.362,0,0,0,2.8,4.263,8.069,8.069,0,0,0,3.679,2.044,1.353,1.353,0,0,0,1.051-2.219c-1.051-1.343-2.92-1.927-3.854-4.379-1.168-3.679,1.693-5.956,4.671-5.022a5.98,5.98,0,0,1-2.044.642,4.186,4.186,0,0,1,1.285.584c-.292.642-1.226.234-1.693.934.234.117.526.234.759.35-.526.292-2.628-.117-2.277,1.927,0,1.051,3.62,3.8,4.438,4.671,1.46,2.044-.526,3.8-1.927,4.847a5.711,5.711,0,0,0-.35,3.5c.759,1.109,1.752,1.693,2.394,2.861a24.186,24.186,0,0,1,.058,3.562c0,.584,0,.993-.467,1.109-1.752-.058-1.869.058-2.978,0a2.242,2.242,0,0,0-.526-1.051c-.058,0-.175.058-.234.058-.117.234-.117.993-.234,1.226a1.405,1.405,0,0,1-.759-1.285A.484.484,0,0,1,180.267,69.68Z" transform="translate(-56.842 -5.879)" fill="#313131"/><path d="M198.284,53.8h0Z" transform="translate(-71.88 -13.356)" fill="#313131"/><path d="M135.626,90.075l-.35-.175a10.074,10.074,0,0,0-.876,1.577A5.576,5.576,0,0,1,135.626,90.075Z" transform="translate(-45.31 -28.376)" fill="#313131"/><path d="M179.647,41.045a5.343,5.343,0,0,0-.058.993,2.2,2.2,0,0,1,1.168-.876A1.255,1.255,0,0,0,179.647,41.045Z" transform="translate(-64.104 -8.017)" fill="#313131"/><path d="M182.4,38.758v.35a1.191,1.191,0,0,0,.876.467,2.286,2.286,0,0,0,.467-.584c-.058-.117-.117-.175-.175-.292H182.4Z" transform="translate(-65.281 -7.073)" fill="#313131"/><path d="M185.917,42.587c.175-.292,2.219-2.044,2.277,1.343.234-1.693-.759-3.8.234-2.978-.234-.7-.934-1.635-1.635-1.752.409,1.109.526,1.927-.35,2.511a1.418,1.418,0,0,1-1.285.058,2.41,2.41,0,0,1-.058,2.1,1.748,1.748,0,0,1,.467.234A2.661,2.661,0,0,1,185.917,42.587Z" transform="translate(-66.404 -7.281)" fill="#313131"/><path d="M122.32,85.724a2.167,2.167,0,0,0,2.044-.467,1.417,1.417,0,0,0,.876,1.46,2.071,2.071,0,0,0,1.693-.409A4.442,4.442,0,0,0,128.1,85.14a10.552,10.552,0,0,1-1.577-.35,7.609,7.609,0,0,1-.584.876c-.409.409-.409.35-.175-.058a6.382,6.382,0,0,0,.467-.876,13.4,13.4,0,0,1-2.453-.934,4.709,4.709,0,0,1-.7.818c-.292.292-.467.292-.175-.117.175-.292.409-.526.584-.818a9.724,9.724,0,0,1-1.635-1.051c-.584-.409-.526-.409.058-.058a12.257,12.257,0,0,0,1.752.876,6.383,6.383,0,0,0,.467-.876c.117-.35.234-.409.175,0a2.875,2.875,0,0,1-.35.993,20.571,20.571,0,0,0,2.453.876,4.969,4.969,0,0,0,.35-.993c.117-.467.175-.292.175.117a3.07,3.07,0,0,1-.234.993,13.578,13.578,0,0,0,1.635.292h0a1.62,1.62,0,0,0,0-1.635,1.674,1.674,0,0,0-1.168-.759,2.04,2.04,0,0,0-1.752.526,1.8,1.8,0,0,0-1.051-1.343,1.673,1.673,0,0,0-1.752.35,4.7,4.7,0,0,0-.934-.934,4.383,4.383,0,0,0-1.46-.759.809.809,0,0,0-.876.584,2.318,2.318,0,0,0,.058,1.4,2.768,2.768,0,0,0,.934,1.226,2.665,2.665,0,0,0,1.226.467A1.658,1.658,0,0,0,122.32,85.724Z" transform="translate(-39.011 -24.375)" fill="#313131"/><path d="M92.269,42.545a2.212,2.212,0,0,1,.292,1.46,3.468,3.468,0,0,1,.467-.234,2.4,2.4,0,0,1-.058-2.1,1.628,1.628,0,0,1-1.285-.058c-.818-.584-.759-1.343-.35-2.511-.642.117-1.343,1.051-1.635,1.752.934-.818-.058,1.285.234,2.978C90.05,40.443,92.153,42.195,92.269,42.545Z" transform="translate(-26.712 -7.24)" fill="#313131"/><path d="M97.243,39.15V38.8H96.075c-.058.117-.117.175-.175.292a2.286,2.286,0,0,1,.467.584A1.49,1.49,0,0,0,97.243,39.15Z" transform="translate(-29.291 -7.115)" fill="#313131"/><path d="M100.168,41.949a6.006,6.006,0,0,0-.058-.993A1.508,1.508,0,0,0,99,41.073,2.436,2.436,0,0,1,100.168,41.949Z" transform="translate(-30.581 -7.987)" fill="#313131"/><path d="M146.484,59.4a1.026,1.026,0,0,0,.526.584,1.556,1.556,0,0,0,.584.35.794.794,0,0,0,0,.876.98.98,0,0,0,.817.35,1.057,1.057,0,0,0-.058.934.829.829,0,0,0,.526.467.8.8,0,0,0,.759-.234h0c-.117-.234-.234-.526-.35-.759a1.174,1.174,0,0,1-.467.234c-.175.058-.292.058-.058-.058.175-.117.292-.234.467-.35a5.485,5.485,0,0,0-.7-1.051,1.271,1.271,0,0,1-.467.292c-.234.117-.175,0-.058-.058.117-.117.292-.234.409-.35a7,7,0,0,0-.642-.7c-.234-.234-.234-.292,0-.058s.467.409.7.642c.117-.117.234-.292.35-.409.175-.175.175-.117.058.058a1.271,1.271,0,0,1-.292.467,4.858,4.858,0,0,1,.759,1.051l.35-.35c.175-.175.234-.175.058.058a2.539,2.539,0,0,1-.35.409l.35.7a3.311,3.311,0,0,0,.467-.759c.117-.35.175-.642,0-.876a.67.67,0,0,0-.818-.234c.175-.409.234-.818,0-1.051a.858.858,0,0,0-1.051-.058,1.379,1.379,0,0,0-.35-.526,1.077,1.077,0,0,0-.7-.292,1.387,1.387,0,0,0-.7.175A.6.6,0,0,0,146.484,59.4Z" transform="translate(-50.328 -15.394)" fill="#313131"/><path d="M151.483,50a1.415,1.415,0,0,0-.642.35,2.924,2.924,0,0,0-.409.467c-.234-.234-.467-.35-.7-.234a.9.9,0,0,0-.467.7.711.711,0,0,0-.7-.292.85.85,0,0,0-.526.35.975.975,0,0,0,0,.818h0c.234-.058.467-.058.7-.117a1.617,1.617,0,0,1-.058-.526c0-.175,0-.292.058-.058.058.175.058.35.117.526a7.8,7.8,0,0,0,1.051-.409,1.7,1.7,0,0,1-.117-.526c0-.234,0-.175.058,0s.117.292.175.467c.234-.117.467-.234.759-.409.234-.175.292-.175.058.058l-.7.526a2.539,2.539,0,0,0,.234.409c.117.234.058.175-.058.058a1.774,1.774,0,0,1-.292-.409,4.382,4.382,0,0,1-1.051.467c.058.175.117.292.175.467.117.234.058.234-.058.058a1.174,1.174,0,0,1-.234-.467,2.1,2.1,0,0,1-.642.117,2.593,2.593,0,0,0,.467.642.7.7,0,0,0,.7.234c.234-.058.409-.35.409-.759.292.292.584.409.818.292s.35-.526.35-.993a.713.713,0,0,0,.526-.234,1.071,1.071,0,0,0,.409-.584,1.491,1.491,0,0,0,.058-.7C151.775,50.117,151.658,50,151.483,50Z" transform="translate(-50.947 -11.775)" fill="#313131"/><path d="M152.209,70.77h-.35c-.175,0-.175-.058,0-.058a.526.526,0,0,0,.292-.058c-.058-.292-.117-.584-.175-.818h-.35c-.117,0-.175-.058,0-.058h.292v-.642c0-.234,0-.234.058,0,0,.234.058.409.058.642.117,0,.175-.058.292-.058.117-.058.175,0,0,.058a.987.987,0,0,1-.292.117c.058.292.117.526.175.818a.83.83,0,0,0,.35-.117c.117-.058.117,0,0,.058s-.175.117-.292.117a4.021,4.021,0,0,0,.175.467h0a.578.578,0,0,0,.409-.292.64.64,0,0,0,0-.467.617.617,0,0,0-.409-.35.706.706,0,0,0,.175-.584.5.5,0,0,0-.35-.409.866.866,0,0,0,.058-.409,1.45,1.45,0,0,0-.058-.526.213.213,0,0,0-.292-.117,1.548,1.548,0,0,0-.35.292.815.815,0,0,0-.175.526c0,.175.058.292.058.409a.7.7,0,0,0-.409.584c0,.234.234.35.467.409a.466.466,0,0,0,.175.876,1.617,1.617,0,0,0,.526.058A.659.659,0,0,0,152.209,70.77Z" transform="translate(-52.258 -19.289)" fill="#313131"/><path d="M134.4,93.861a1.351,1.351,0,0,0,1.693-.35,16.244,16.244,0,0,1,1.226-1.577l-.234-.234c-.409.584-.759,1.168-1.168,1.693A1.454,1.454,0,0,1,134.4,93.861Z" transform="translate(-45.31 -29.125)" fill="#313131"/><path d="M129.595,93.589a.85.85,0,0,0,.35-.526.839.839,0,0,0-.234-.759h0c-.175.117-.409.234-.584.35a1.237,1.237,0,0,1,.175.409c.058.175.058.292-.058.058a1.048,1.048,0,0,0-.292-.409,3.073,3.073,0,0,0-.818.7,1.464,1.464,0,0,1,.234.409c.058.175,0,.175-.058.058a1.548,1.548,0,0,0-.292-.35,6.207,6.207,0,0,0-.526.642c-.175.234-.234.234-.058,0s.292-.467.467-.7a1.548,1.548,0,0,0-.35-.292c-.175-.175-.117-.175.058-.058a1.549,1.549,0,0,1,.35.292,3.413,3.413,0,0,1,.818-.759c-.117-.117-.175-.234-.292-.35-.117-.175-.117-.234.058-.058a1.983,1.983,0,0,1,.35.35,5.136,5.136,0,0,1,.584-.35,1.779,1.779,0,0,0-.584-.409.735.735,0,0,0-.7,0,.873.873,0,0,0-.175.818.7.7,0,0,0-.818,0,1.155,1.155,0,0,0-.058.993.785.785,0,0,0-.409.35,1.431,1.431,0,0,0-.234.7,1.177,1.177,0,0,0,.175.642c.117.175.234.234.409.175a1.05,1.05,0,0,0,.467-.526,3.685,3.685,0,0,0,.234-.526.532.532,0,0,0,.7-.058,1.077,1.077,0,0,0,.234-.759A1.43,1.43,0,0,0,129.595,93.589Z" transform="translate(-42.023 -29.146)" fill="#313131"/><path d="M97.789,71.215a.67.67,0,0,0,.642-.526c0-2.686-2.394-1.985-3.8-2.453-.584-.818-.993-2.161-.175-2.978a.858.858,0,0,1,1.051.234c.117-2.161-1.285-3.971-2.92-5.255-.234-.467.234-.175.467-.876-1.927-.292-4.146-2.744-5.839-2.453a4.271,4.271,0,0,1,1.635-1.343l.934-.175c1.168.409,1.985.058,3.095.467A11.7,11.7,0,0,0,96.5,59.42c1.051,0,2.394.058,3.5.175.467.058.759-.467.876-.759.234-1.226.175-1.518-1.109-2.394a7.783,7.783,0,0,0-2.511-.409,5.336,5.336,0,0,1-1.343-1.226c-.117-.409-.058-.526,0-3.445.35,0,.35.818.35,1.4.818-.175,1.343-4.146.526-5.839,0-.409.117-.526.409-1.168a14.786,14.786,0,0,1,.058-2.569l.35.175c.409.117,1.226-.642,1.051-1.285-.35-1.051.058-1.46.292-1.635a1.45,1.45,0,0,0,.7-1.285,2.515,2.515,0,0,1-.175-1.635c.058-.409.058-.642-.409-.818a2.375,2.375,0,0,0-1.109,0,2.468,2.468,0,0,0-1.518,1.051c-.526,1.051-.35,1.869-.584,3.095-.234,1.752-2.044,2.92-3.62,3.153a16.956,16.956,0,0,0-3.562-.234c-.234-.642,1.869-.292,2.277-1.4a3.762,3.762,0,0,0,2.161,0c1.693-.7,1.577-1.46,1.343-3.679-.526,0-.526.818-.759.818-.234.058-.642-.526-1.109-.759a2.593,2.593,0,0,1-.058,1.985c-.759.876-2.336.409-3.153.058.7-.058,1.46-.175,2.161-.234.409-.993.234-1.46-.292-2.569-.234-.234-.584-.35-.818-.584A7.159,7.159,0,0,0,88.5,35.887a4.7,4.7,0,0,0-3.328.292,5.946,5.946,0,0,0-2.453,2.336,7.37,7.37,0,0,0,.175,7.591c-2.511-2.1-5.255-1.577-6.482-.058.234.234,1.285-.234,1.46.35.058.292-.642,0-1.109,0,.175.35,1.343.818,1.985,1.226.409.234-.117.058-.467.292,1.46,1.168,3.679.584,2.92,2.1-.7,1.343-2.861,2.686-4.029,4.029-1.46,1.693-1.109,3.62,1.518,5.664,1.226,3.5-.526,3.328-2.277,5.9-.058,1.577-.058,3.153-.117,4.73a.875.875,0,0,0,.526.759l5.489.117c2.044-.175,2.161.234,2.161-1.752l-1.577-1.4a6.654,6.654,0,0,1-2.628-.117,1.639,1.639,0,0,1,.175-1.46c.759-.467,1.051-.234,1.635.584a12.268,12.268,0,0,1,3.27-.058c-.526-1.226-.175-3.095.876-2.628a3.009,3.009,0,0,1-.058-1.226c2.044-.175,2.569.292,3.328,1.752a4.185,4.185,0,0,1-.409,3.212c1.985-.117,3.27.934,4.263,2.744.175.292.175.234.584.292A28.008,28.008,0,0,0,97.789,71.215ZM96.5,41.493c.117-1.81-.526-3.8,1.869-4.088a1.66,1.66,0,0,1,.7.234,1.373,1.373,0,0,0-1.051.759,1.616,1.616,0,0,1,1.051.35c-.292.409-.642.35-.993.876-.058.876-.058,1.752-.117,2.628,0,.818-.642.642-1.168.35-.175.759,0,3.62-.7,3.737a16.161,16.161,0,0,0-2.628-1.81C94.752,44.062,96.562,42.6,96.5,41.493Zm-3.445-1.518c.175,0,.526.467.7.467s.292-.292.467-.526a1.907,1.907,0,0,1-2.277,2.219,9.07,9.07,0,0,0-2.8-.35C90.957,41.026,93,42.544,93.059,39.975Zm-9.693-1.343c1.46-2.219,3.5-2.861,5.781-1.81,1.226.876,1.577,1.168,1.577,3.036-.467.409-1.635.35-2.277.409a1.149,1.149,0,0,0,0,1.985c.934.292.934.35,1.518.234v.234a11.841,11.841,0,0,0-2.686.526c-.234.35.058.7.584.818.934.175,2.744.058,4.379.409a5.231,5.231,0,0,1,1.752.993,5.719,5.719,0,0,1,2.453,2.569,3.846,3.846,0,0,1-.058,2.8c-.759-1.635-1.285-2.044-2.277-2.219-.467-1.226-1.985-2.277-4.2-2.686,2.569.993,3.679,2.336,3.62,2.628-.584.642-.584,2.394-.642,2.044a7.577,7.577,0,0,0-2.219-2.277,9.4,9.4,0,0,0-3.036-1.577c-2.161-.584-2.686-1.869-3.212-3.27.058.7.876,2.978,2.686,3.445,1.81.526,3.328,1.927,3.095,2.219-.35.467-1.226,1.46-1.051,1.752-1.051.467-2.277-.584-3.212-1.343C83.6,47.274,80.563,41.96,83.366,38.632Zm-.234,8.409c.584,1.752,1.927,2.569,2.161,3.679.117.584-.7,1.869-.934,2.161-1.109,1.4-3.562,3.971-4.847,3.562-1.518-.759.526-2.336,1.4-2.92C84.3,50.544,83.366,48.617,83.132,47.04Zm2.336,15.3a3.061,3.061,0,0,0,0,1.46c-.292,0-.526.292-.642.409a2.1,2.1,0,0,0-.467,2.1c-1.752.058-2.044.409-3.27-.759-1.4-.058-1.985,2.1-1.577,3.153,1.4.058,2.8-.234,3.679.584.467.467.7,1.518-.292,1.577-.117-.234-.117-.934-.234-1.168-.175,0-.292-.058-.467-.058a1.348,1.348,0,0,1-.759,1.285,9.066,9.066,0,0,1-.234-1.226.351.351,0,0,0-.234-.058,2.242,2.242,0,0,0-.526,1.051c-1.109.058-1.285-.058-2.978,0C77,70.573,77,70.164,77,69.58c-.117-1.46.058-2.1.058-3.562.642-1.168,1.635-1.752,2.394-2.861a5.317,5.317,0,0,0-.35-3.5c-1.4-1.051-3.445-2.8-1.927-4.847.818-.876,4.438-3.562,4.438-4.671.292-2.044-1.752-1.635-2.277-1.927.234-.117.467-.234.759-.35-.467-.642-1.4-.234-1.693-.934a4.186,4.186,0,0,1,1.285-.584,5.98,5.98,0,0,1-2.044-.642c2.978-.934,5.9,1.285,4.671,5.022-.934,2.394-2.8,2.978-3.854,4.379a1.368,1.368,0,0,0,1.051,2.219,8.069,8.069,0,0,0,3.679-2.044,10.864,10.864,0,0,0,2.8-4.263c.175.35,2.861,1.226,3.8.7a1.592,1.592,0,0,1,1.051-1.985c.7,0,1.46,1.168,2.277,2.044.35-.35.292-2.161.642-2.511.993.058,1.4.642,1.577,1.635a29.419,29.419,0,0,1,0,3.971c.292.584.584.876,1.927,1.985,1.051.058,3.095,0,2.978,1.635-.058.292-.35.7-.642.7a1.524,1.524,0,0,0-.35-1.051c-.35.117-.117.876-.876.876a1.3,1.3,0,0,0-.759-.934c-.175.234.058.409-.175.876a1.878,1.878,0,0,1-1.4-.409,12.208,12.208,0,0,1-2.744-3.212c-1.051-.292-2.569,0-3.62-.642-2.1.759-4.088,2.394-4.671,3.737A4.372,4.372,0,0,1,85.468,62.339ZM91.774,68a5.29,5.29,0,0,0-1.869-.35c.467-1.577.467-3.854-1.985-4.963a4.483,4.483,0,0,0-1.752-.292c.7-2.978-.292-2.744-.175-3.737.058-.7.292-.818.876-.993,1.927-.584,4.088,2.161,5.314,2.1l-.642.642c.759.058,3.62,2.8,3.445,4.263-.993-.292-1.051,0-1.343.35a2.819,2.819,0,0,0-.058,2.277c.35.876.526,1.343,1.577,1.752.876.058,1.518-.058,1.985.234.35.175.7,1.343.058,1.518a2.5,2.5,0,0,0-.35-.993c-.175,0-.292-.058-.467-.058.117.35-.35,1.109-.584.993a4.864,4.864,0,0,1-.234-.876H95.1c-.175.7-.467.759-1.109.818C93.292,69.989,92.358,68.3,91.774,68Z" transform="translate(-21.136 -5.837)" fill="#313131"/><path d="M82.217,53.8h0Z" transform="translate(-23.549 -13.356)" fill="#313131"/><path d="M136.376,90.417l-.234-.117a9.343,9.343,0,0,0-.642,1.109A4.651,4.651,0,0,1,136.376,90.417Z" transform="translate(-45.767 -28.542)" fill="#313131"/><path d="M125.209,30.118a.409.409,0,1,0-.409-.409A.4.4,0,0,0,125.209,30.118Z" transform="translate(-41.315 -3.162)" fill="#313131"/><path d="M130.3,42.023a.234.234,0,1,0,.234-.234C130.417,41.731,130.3,41.848,130.3,42.023Z" transform="translate(-43.604 -8.352)" fill="#313131"/><path d="M135.072,44.347a.849.849,0,0,0,.993-.818.873.873,0,0,0-.876-.934.849.849,0,0,0-.993.818A.905.905,0,0,0,135.072,44.347Z" transform="translate(-45.223 -8.691)" fill="#313131"/><path d="M134.934,40.767a.234.234,0,1,0-.234-.234A.251.251,0,0,0,134.934,40.767Z" transform="translate(-45.435 -7.739)" fill="#313131"/><path d="M136.3,41.934a.234.234,0,1,0,.234-.234A.214.214,0,0,0,136.3,41.934Z" transform="translate(-46.1 -8.321)" fill="#313131"/><path d="M136.123,40.567a.234.234,0,1,0-.234-.234C135.831,40.45,135.948,40.567,136.123,40.567Z" transform="translate(-45.923 -7.656)" fill="#313131"/><path d="M133.4,46.523a.234.234,0,1,0,.234-.234C133.517,46.231,133.4,46.348,133.4,46.523Z" transform="translate(-44.894 -10.224)" fill="#313131"/><path d="M131.734,40.367a.234.234,0,1,0-.234-.234A.251.251,0,0,0,131.734,40.367Z" transform="translate(-44.103 -7.572)" fill="#313131"/><path d="M130.1,43.485a.855.855,0,1,0,.934-.7A.772.772,0,0,0,130.1,43.485Z" transform="translate(-43.516 -8.763)" fill="#313131"/><path d="M137.334,39.867a.234.234,0,1,0-.234-.234A.251.251,0,0,0,137.334,39.867Z" transform="translate(-46.433 -7.364)" fill="#313131"/><path d="M133.134,41.667a.234.234,0,1,0-.234-.234A.251.251,0,0,0,133.134,41.667Z" transform="translate(-44.686 -8.113)" fill="#313131"/><path d="M133.434,40.667a.234.234,0,1,0-.234-.234A.251.251,0,0,0,133.434,40.667Z" transform="translate(-44.81 -7.697)" fill="#313131"/><path d="M131.7,41.934a.234.234,0,1,0,.234-.234A.251.251,0,0,0,131.7,41.934Z" transform="translate(-44.186 -8.321)" fill="#313131"/><path d="M134.534,42.267a.234.234,0,1,0-.234-.234A.214.214,0,0,0,134.534,42.267Z" transform="translate(-45.268 -8.363)" fill="#313131"/><path d="M139.976,24.3a.718.718,0,1,0-.876-.7A.8.8,0,0,0,139.976,24.3Z" transform="translate(-47.265 -0.499)" fill="#313131"/><path d="M143.234,26.867a.234.234,0,1,0-.234-.234A.251.251,0,0,0,143.234,26.867Z" transform="translate(-48.888 -1.956)" fill="#313131"/><path d="M137.734,26.867a.234.234,0,1,0-.234-.234A.251.251,0,0,0,137.734,26.867Z" transform="translate(-46.6 -1.956)" fill="#313131"/><path d="M118.924,32.464c.175.584.642.993,1.051.934.35-.058.526-.584.292-1.168-.175-.584-.642-.993-1.051-.934C118.866,31.354,118.691,31.88,118.924,32.464Z" transform="translate(-38.826 -3.99)" fill="#313131"/><path d="M144.209,28.118a.409.409,0,1,0-.409-.409A.4.4,0,0,0,144.209,28.118Z" transform="translate(-49.221 -2.33)" fill="#313131"/><path d="M137.018,27.809a.409.409,0,1,0-.409.409C136.784,28.159,137.018,27.984,137.018,27.809Z" transform="translate(-46.059 -2.372)" fill="#313131"/><path d="M135.667,30.134a.461.461,0,0,0,.467-.467.5.5,0,0,0-.467-.467.467.467,0,1,0,0,.934Z" transform="translate(-45.643 -3.121)" fill="#313131"/><path d="M138.076,30.463l.175.117.175.117.175.058.175.058.175.058h.467l.175-.058.175-.058.175-.058.175-.117.175-.117.175-.117.117-.175L140.7,30l.117-.175.117-.175L141,29.47l.058-.234.058-.234.058-.234v-.7l-.058-.234-.058-.234L141,27.426l-.117-.175-.117-.175-.117-.175-.117-.175-.175-.117-.175-.117L140,26.375l-.175-.058-.175-.058-.175-.058h-.467l-.234.058-.175.058-.175.058-.175.117-.175.117-.175.117-.117.175-.117.175-.117.175-.117.175-.058.175-.058.234-.058.234-.058.234V29l.058.234.058.234.058.175.117.175.117.175.117.175.117.175Zm-.409-1.927a1.608,1.608,0,1,1,3.153,0,1.783,1.783,0,0,1-1.577,1.927C138.309,30.521,137.667,29.645,137.667,28.536Z" transform="translate(-46.475 -1.872)" fill="#313131"/><path d="M138.434,39.067a.234.234,0,1,0-.234-.234A.251.251,0,0,0,138.434,39.067Z" transform="translate(-46.891 -7.032)" fill="#313131"/><path d="M137.5,41.423a.234.234,0,1,0,.234-.234C137.617,41.131,137.5,41.248,137.5,41.423Z" transform="translate(-46.6 -8.102)" fill="#313131"/><path d="M134.816,31.5c-.35.058-.526.584-.292,1.168.175.584.642.993,1.051.934.35-.058.526-.584.292-1.168S135.167,31.438,134.816,31.5Z" transform="translate(-45.317 -4.074)" fill="#313131"/><path d="M144.5,29.661a.467.467,0,0,0,.934,0,.5.5,0,0,0-.467-.467C144.734,29.135,144.5,29.369,144.5,29.661Z" transform="translate(-49.512 -3.114)" fill="#313131"/><path d="M124.1,41.934a.234.234,0,1,0,.234-.234A.251.251,0,0,0,124.1,41.934Z" transform="translate(-41.024 -8.321)" fill="#313131"/><path d="M123.934,40.167a.234.234,0,1,0-.234-.234A.251.251,0,0,0,123.934,40.167Z" transform="translate(-40.858 -7.489)" fill="#313131"/><path d="M125.223,39.867a.234.234,0,1,0-.234-.234C124.931,39.75,125.048,39.867,125.223,39.867Z" transform="translate(-41.388 -7.364)" fill="#313131"/><path d="M125.234,35a.234.234,0,1,0,.234.234A.251.251,0,0,0,125.234,35Z" transform="translate(-41.399 -5.534)" fill="#313131"/><path d="M130.1,39.434a.234.234,0,1,0,.234-.234A.251.251,0,0,0,130.1,39.434Z" transform="translate(-43.521 -7.281)" fill="#313131"/><path d="M125.3,41.423a.234.234,0,1,0,.234-.234C125.417,41.131,125.3,41.248,125.3,41.423Z" transform="translate(-41.523 -8.102)" fill="#313131"/><path d="M126.367,36.134a.234.234,0,1,0-.234.234C126.25,36.426,126.367,36.309,126.367,36.134Z" transform="translate(-41.773 -5.908)" fill="#313131"/><path d="M121.2,41.423a.234.234,0,1,0,.234-.234C121.317,41.131,121.2,41.248,121.2,41.423Z" transform="translate(-39.818 -8.102)" fill="#313131"/><path d="M120.292,43.519a.744.744,0,0,0,.409.818.58.58,0,0,0,.642-.526.744.744,0,0,0-.409-.818A.552.552,0,0,0,120.292,43.519Z" transform="translate(-39.435 -8.856)" fill="#313131"/><path d="M121.234,39.467a.234.234,0,1,0-.234-.234A.251.251,0,0,0,121.234,39.467Z" transform="translate(-39.734 -7.198)" fill="#313131"/><path d="M122.6,42.023a.234.234,0,1,0,.234-.234C122.717,41.731,122.6,41.848,122.6,42.023Z" transform="translate(-40.4 -8.352)" fill="#313131"/><path d="M120.009,38.518a.409.409,0,1,0-.409-.409A.439.439,0,0,0,120.009,38.518Z" transform="translate(-39.152 -6.657)" fill="#313131"/><path d="M124.867,34.034a.234.234,0,1,0-.234.234C124.75,34.326,124.867,34.209,124.867,34.034Z" transform="translate(-41.149 -5.034)" fill="#313131"/><path d="M122.323,40.167a.234.234,0,1,0-.234-.234C122.031,40.05,122.148,40.167,122.323,40.167Z" transform="translate(-40.181 -7.489)" fill="#313131"/><path d="M123.819,44.3a.609.609,0,0,0,.7-.584.689.689,0,0,0-.526-.818.609.609,0,0,0-.7.584A.689.689,0,0,0,123.819,44.3Z" transform="translate(-40.685 -8.814)" fill="#313131"/><path d="M126.661,28.934a.467.467,0,1,0-.467-.467C126.135,28.7,126.369,28.934,126.661,28.934Z" transform="translate(-41.892 -2.621)" fill="#313131"/><path d="M129.723,30.767a.234.234,0,1,0-.234-.234C129.431,30.65,129.548,30.767,129.723,30.767Z" transform="translate(-43.26 -3.578)" fill="#313131"/><path d="M128.509,29.518a.409.409,0,1,0-.409-.409A.4.4,0,0,0,128.509,29.518Z" transform="translate(-42.688 -2.912)" fill="#313131"/><path d="M130,31.723a.234.234,0,1,0,.234-.234C130.117,31.431,130,31.548,130,31.723Z" transform="translate(-43.479 -4.067)" fill="#313131"/><path d="M130.2,33.034a.234.234,0,1,0,.234-.234A.251.251,0,0,0,130.2,33.034Z" transform="translate(-43.562 -4.618)" fill="#313131"/><path d="M124.523,31.667a.234.234,0,1,0-.234-.234C124.231,31.55,124.348,31.667,124.523,31.667Z" transform="translate(-41.097 -3.953)" fill="#313131"/><path d="M124.567,32.834a.234.234,0,1,0-.234.234A.251.251,0,0,0,124.567,32.834Z" transform="translate(-41.024 -4.535)" fill="#313131"/><path d="M130.334,34.3a.234.234,0,1,0,.234.234A.251.251,0,0,0,130.334,34.3Z" transform="translate(-43.521 -5.242)" fill="#313131"/><path d="M144.243,32.13c-.175.584-.058,1.109.292,1.168s.818-.35,1.051-.934c.175-.584.058-1.109-.292-1.168S144.476,31.546,144.243,32.13Z" transform="translate(-49.371 -3.949)" fill="#313131"/><path d="M131.225,112.725a3.836,3.836,0,0,1-.934.642,3.053,3.053,0,0,1-.934.35,5.143,5.143,0,0,1-.993.117,3.811,3.811,0,0,1-.993-.117.85.85,0,0,1-.526-.35,1.06,1.06,0,0,1-.117-.642v-6.89a2.288,2.288,0,0,1,.117-.759.617.617,0,0,1,.409-.35,2.707,2.707,0,0,1,.817-.117h.234V104.2H123.4v.409a4.35,4.35,0,0,1,1.051.117.577.577,0,0,1,.409.409,2.707,2.707,0,0,1,.117.818v6.657a2.178,2.178,0,0,1-.117.7.617.617,0,0,1-.409.35,3.309,3.309,0,0,1-.934.117H123.4v.409h8.525l.934-2.511h-.642A8.686,8.686,0,0,1,131.225,112.725Zm-5.606.058q0,1.051-.7,1.051h-.234a.991.991,0,0,0,.35-.35,1.166,1.166,0,0,0,.117-.526v-7.241a1.677,1.677,0,0,0-.117-.7.841.841,0,0,0-.409-.35h.234c.35,0,.584.117.642.35a4.35,4.35,0,0,1,.117,1.051v6.715Zm5.606.993H129.94a4.483,4.483,0,0,0,1.051-.584,5.607,5.607,0,0,0,.876-.818Z" transform="translate(-40.733 -34.326)" fill="#313131"/><path d="M43.076,95.388,42.2,91.3H26.376L25.5,95.388h.759c.584-.7.993-1.226,1.285-1.518a4.471,4.471,0,0,1,1.109-.934,5.686,5.686,0,0,1,1.693-.7,12.716,12.716,0,0,1,2.336-.292v14.014a2.787,2.787,0,0,1-.292,1.4,1.2,1.2,0,0,1-.876.584,6.052,6.052,0,0,1-1.635.175v.7h8.7v-.7a10.807,10.807,0,0,1-1.693-.175,1.387,1.387,0,0,1-.876-.584,2.373,2.373,0,0,1-.292-1.226V91.942a12.953,12.953,0,0,1,2.394.175,5.318,5.318,0,0,1,1.985.876,8.149,8.149,0,0,1,1.985,2.336h.993ZM27.31,92.818A12.848,12.848,0,0,0,26.2,94.044l.467-2.1h2.044A4.85,4.85,0,0,0,27.31,92.818Zm6.6,12.847a5.344,5.344,0,0,1-.234,1.927c-.175.409-.526.584-1.168.584h-.292a1.825,1.825,0,0,0,.7-.818,3.411,3.411,0,0,0,.175-1.226V91.942a.718.718,0,0,1,.642.409,2.561,2.561,0,0,1,.175,1.109v12.2ZM40.39,92.7a4.957,4.957,0,0,0-1.577-.759h2.336l.584,1.985C41.266,93.461,40.8,93.052,40.39,92.7Z" transform="translate(0 -28.958)" fill="#313131"/><path d="M239.125,107.35a4.74,4.74,0,0,1-.993-1.693L232.352,91h-1.168l-2.978.993v.584a2.792,2.792,0,0,1,1.109.292,2.023,2.023,0,0,1,.7.818l-4.321,11.036c-.818,2.044-1.81,3.153-3.095,3.328v.7h5.781v-.7a1.813,1.813,0,0,1-1.46-.642,2.243,2.243,0,0,1-.526-1.46,4.4,4.4,0,0,1,.35-1.693l.818-2.1h5.9l1.4,3.562a3.545,3.545,0,0,1,.35,1.285.731.731,0,0,1-.467.759,5.725,5.725,0,0,1-1.46.292v.7h7.358v-.7A3.345,3.345,0,0,1,239.125,107.35Zm-15.182.642a4.56,4.56,0,0,0,.934-.876,8.2,8.2,0,0,0,.7-1.051v.409a1.852,1.852,0,0,0,.759,1.518Zm3.854-6.715,2.628-6.715,2.628,6.715Zm8.233,6.423a1.147,1.147,0,0,1-.876.292h-.292c.292-.234.467-.35.526-.467.117-.117.117-.292.117-.526a4.417,4.417,0,0,0-.409-1.577l-4.379-11.27a3.259,3.259,0,0,0-.584-1.109,1.651,1.651,0,0,0-.876-.642,1.8,1.8,0,0,1,.584-.058,1.233,1.233,0,0,1,.934.35,2.953,2.953,0,0,1,.642,1.226l4.438,11.27a6.26,6.26,0,0,1,.467,1.81A.756.756,0,0,1,236.03,107.7Z" transform="translate(-82.007 -28.833)" fill="#313131"/><path d="M212.3,104.692c.35.058.642.058.817.117a.53.53,0,0,1,.409.175.455.455,0,0,1,.175.409,3.1,3.1,0,0,1,.058.818v6.306a2.845,2.845,0,0,1-.117.876.7.7,0,0,1-.409.409,3.66,3.66,0,0,1-.934.117v.409h4.671v-.409c-.35,0-.584-.058-.759-.058a.626.626,0,0,1-.35-.117.536.536,0,0,1-.234-.35,2.1,2.1,0,0,1-.117-.642v-7.124a.718.718,0,0,1,.409-.642,2.44,2.44,0,0,1,1.051-.175V104.4H212.3Zm1.927.234a1.245,1.245,0,0,1,.175.7V113.1a.583.583,0,0,1-.292.584,2.072,2.072,0,0,1-.759.175.841.841,0,0,0,.409-.35,1.166,1.166,0,0,0,.117-.526v-7.241a1.059,1.059,0,0,0-.526-1.051C213.877,104.692,214.11,104.75,214.227,104.926Z" transform="translate(-77.721 -34.409)" fill="#313131"/><path d="M200.977,105.7a4.379,4.379,0,0,0-1.635-1.051,6.108,6.108,0,0,0-2.1-.35H191.4v.409a3.557,3.557,0,0,1,1.109.234.706.706,0,0,1,.35.7v7.066a2.178,2.178,0,0,1-.117.7.617.617,0,0,1-.409.35,2.845,2.845,0,0,1-.876.117v.409h5.606a6.211,6.211,0,0,0,2.161-.35,5.392,5.392,0,0,0,1.752-1.051,4.3,4.3,0,0,0,1.109-1.577,5.162,5.162,0,0,0,.409-1.927,5.455,5.455,0,0,0-.35-1.985A6.2,6.2,0,0,0,200.977,105.7Zm-7.416,7.066a1.057,1.057,0,0,1-.234.818c-.117.175-.409.234-.759.234a.583.583,0,0,0,.292-.234,1.943,1.943,0,0,0,.175-.35,2.406,2.406,0,0,0,.058-.7V105.76a2.178,2.178,0,0,0-.117-.7.7.7,0,0,0-.409-.409c.409,0,.7.117.818.35a2.872,2.872,0,0,1,.175,1.168v6.6Zm2.569,1.051a4.35,4.35,0,0,1-1.051-.117.7.7,0,0,1-.409-.409,3.363,3.363,0,0,1-.058-.876v-5.664a6.785,6.785,0,0,1,.058-1.285.89.89,0,0,1,.35-.584,1.743,1.743,0,0,1,.934-.175,4.949,4.949,0,0,1,1.693.234,2.784,2.784,0,0,1,1.285.7,4.646,4.646,0,0,1,1.46,3.8,6.025,6.025,0,0,1-.175,1.518,3.893,3.893,0,0,1-.526,1.226,4,4,0,0,1-.993.993,3.01,3.01,0,0,1-1.168.526A9.689,9.689,0,0,1,196.13,113.818Zm4.555-2.1a3.806,3.806,0,0,1-1.109,1.518,3.125,3.125,0,0,1-1.635.642,4.567,4.567,0,0,0,1.518-.993,3.381,3.381,0,0,0,.876-1.46,6.667,6.667,0,0,0,.292-1.927c0-2.453-.876-4.029-2.686-4.73.292.058.526.117.759.175a1.973,1.973,0,0,1,.7.35,3.555,3.555,0,0,1,.934.934,5.055,5.055,0,0,1,.584,1.4,8.091,8.091,0,0,1,.175,1.752A5.579,5.579,0,0,1,200.685,111.716Z" transform="translate(-69.026 -34.367)" fill="#313131"/><path d="M62.635,113.293a3.523,3.523,0,0,1-.467-.467c-.175-.175-.35-.409-.584-.7l-.234-.234c-.058-.058-.117-.117-.117-.175l-.7-.818a17.367,17.367,0,0,0-1.226-1.4,3.1,3.1,0,0,0,1.109-.35,2.931,2.931,0,0,0,.818-.584,2.969,2.969,0,0,0,.526-.759,2.343,2.343,0,0,0,.175-.876,2.1,2.1,0,0,0-.409-1.285,3.3,3.3,0,0,0-1.168-.993,4.353,4.353,0,0,0-1.81-.35H53v.409a4.35,4.35,0,0,1,1.051.117.577.577,0,0,1,.409.409,2.707,2.707,0,0,1,.117.818v6.6a2.288,2.288,0,0,1-.117.759.606.606,0,0,1-.467.35,4.193,4.193,0,0,1-.993.117v.409h4.905v-.409h-.467a1.7,1.7,0,0,1-.526-.117.606.606,0,0,1-.467-.35,2.178,2.178,0,0,1-.117-.7v-2.978h.759c.175,0,.35.117.584.35a9.535,9.535,0,0,1,.993,1.226l.993,1.226c.292.409.584.7.818.993a6.609,6.609,0,0,0,.759.584,2.133,2.133,0,0,0,.876.175h1.343v-.409c-.175-.058-.292-.117-.467-.175A.785.785,0,0,0,62.635,113.293Zm-7.3-.175c0,.467-.292.7-.934.7a.9.9,0,0,0,.467-.934v-6.949a2.845,2.845,0,0,0-.117-.876c-.058-.175-.234-.292-.467-.409.292,0,.526,0,.642.117a1.047,1.047,0,0,1,.292.409,3.1,3.1,0,0,1,.058.818v7.124Zm5.022-7.708a2.474,2.474,0,0,1,.467,1.518A2.337,2.337,0,0,1,60.3,108.5a2.055,2.055,0,0,1-1.46.7,2.334,2.334,0,0,0,1.109-.759,2.443,2.443,0,0,0,.35-1.46,3.4,3.4,0,0,0-.292-1.46,2.7,2.7,0,0,0-.934-.876A1.926,1.926,0,0,1,60.358,105.409Zm-3.971,3.854V106.11a1.994,1.994,0,0,1,.117-.876.617.617,0,0,1,.35-.409,1.614,1.614,0,0,1,.818-.117,3.867,3.867,0,0,1,.876.058,1.3,1.3,0,0,1,.642.292,2.189,2.189,0,0,1,.876,1.927,2,2,0,0,1-.584,1.635,2.029,2.029,0,0,1-.876.467,3.765,3.765,0,0,1-1.168.175H56.387Zm5.314,4.671a1.469,1.469,0,0,1-.7-.409,4.56,4.56,0,0,1-.876-.934c-.35-.467-.7-.876-1.051-1.343a8.777,8.777,0,0,1-.818-1.051,5.444,5.444,0,0,0-.584-.584h.584a1.274,1.274,0,0,1,.292.234c.058.058.117.175.175.234a9.529,9.529,0,0,1,.993,1.168c.35.409.642.818.934,1.168a6.843,6.843,0,0,0,.876.934,3.549,3.549,0,0,0,.818.584A1.194,1.194,0,0,1,61.7,113.935Z" transform="translate(-11.442 -34.367)" fill="#313131"/><path d="M156.965,111.791l-3.153-7.533H150.6v.409a4.508,4.508,0,0,1,.876.117,1.489,1.489,0,0,1,.7.467v6.54a2.176,2.176,0,0,1-.409,1.46,1.62,1.62,0,0,1-1.168.584v.409h3.562v-.409a1.675,1.675,0,0,1-1.226-.759,2.781,2.781,0,0,1-.35-1.518v-5.781l3.445,8.409h.409l3.5-8.7v6.832a3.362,3.362,0,0,1-.058.876.617.617,0,0,1-.35.409,2,2,0,0,1-.993.175v.409H163.1v-.409a2.845,2.845,0,0,1-.876-.117.785.785,0,0,1-.409-.35,2.178,2.178,0,0,1-.117-.7v-6.073a6.413,6.413,0,0,1,.058-1.226.671.671,0,0,1,.35-.526,2,2,0,0,1,.993-.175V104.2H160.06Zm-4.029,1.985h-1.518a2.052,2.052,0,0,0,.526-.409,1.531,1.531,0,0,0,.292-.526,1.1,1.1,0,0,0,.234.526A.781.781,0,0,0,152.936,113.776Zm3.212,0-3.27-7.766a3.3,3.3,0,0,0-.526-.934,2.1,2.1,0,0,0-.7-.467h.234a1.155,1.155,0,0,1,.818.292,2.607,2.607,0,0,1,.526.993l2.8,6.832a1.305,1.305,0,0,1,.175.584C156.323,113.426,156.264,113.6,156.147,113.776Zm4.029-1.051v-7.533a.53.53,0,0,1,.175-.409c.058-.117.234-.117.409-.175a4.166,4.166,0,0,0-.117,1.109v6.774a3,3,0,0,1-.117.934.583.583,0,0,1-.584.292h-.234a.841.841,0,0,0,.409-.35A1.479,1.479,0,0,0,160.176,112.725Z" transform="translate(-52.05 -34.326)" fill="#313131"/><path d="M113.766,112.8a4.774,4.774,0,0,1-1.168.7,3.533,3.533,0,0,1-1.4.234,4.739,4.739,0,0,1-.993-.058.986.986,0,0,1-.584-.175,1.047,1.047,0,0,1-.292-.409,3.1,3.1,0,0,1-.058-.818V109.18h1.635a1.645,1.645,0,0,1,1.226.409,1.822,1.822,0,0,1,.467,1.226h.409v-3.737h-.467c0,1.109-.642,1.693-1.869,1.693h-1.4v-3.095a1.8,1.8,0,0,1,.117-.642.92.92,0,0,1,.409-.409,2.29,2.29,0,0,1,.993-.117,4.354,4.354,0,0,1,1.518.234,5.884,5.884,0,0,1,1.343.7,5.074,5.074,0,0,1,.993.934h.526l-.876-2.277H106v.409a3.471,3.471,0,0,1,.993.117.745.745,0,0,1,.409.292,2.178,2.178,0,0,1,.117.7v6.949a1.8,1.8,0,0,1-.117.642.657.657,0,0,1-.467.292,3.659,3.659,0,0,1-.934.117v.409h8.7l.876-2.569h-.584A7.237,7.237,0,0,1,113.766,112.8Zm-1.285-4.5v1.4a.92.92,0,0,0-.409-.409,1.645,1.645,0,0,0-.642-.234A2.223,2.223,0,0,0,112.482,108.3Zm1.168-3.737.526.993a7.61,7.61,0,0,0-.876-.584,4.52,4.52,0,0,0-.934-.409Zm-5.431,7.941a2.154,2.154,0,0,1-.175.993.845.845,0,0,1-.759.292.785.785,0,0,0,.35-.409,2.288,2.288,0,0,0,.117-.759v-6.832a2.288,2.288,0,0,0-.117-.759.526.526,0,0,0-.35-.35c.35,0,.584.058.7.234a1.231,1.231,0,0,1,.234.818v6.774Zm5.723,1.226h-1.226c.409-.234.759-.409.934-.526a3.954,3.954,0,0,0,.759-.7Z" transform="translate(-33.493 -34.284)" fill="#313131"/><path d="M93.824,104.567a1.155,1.155,0,0,1,.818.292,1.434,1.434,0,0,1,.292.876,3.916,3.916,0,0,1-.409,1.577l-1.869,4.613-2.569-6.131a3.722,3.722,0,0,1-.117-.409.921.921,0,0,1-.058-.234.531.531,0,0,1,.234-.467,1.245,1.245,0,0,1,.7-.175h.117V104.1H86.7v.409a1.231,1.231,0,0,1,.818.234,4.428,4.428,0,0,1,.526.993l3.62,8.584h.409l2.92-7.358a7.283,7.283,0,0,1,.934-1.81,1.47,1.47,0,0,1,1.051-.642V104.1h-3.27v.467Zm-1.985,9.4-3.445-8.292c-.175-.35-.292-.642-.409-.818a.785.785,0,0,0-.409-.35,2.1,2.1,0,0,1,.642.117.526.526,0,0,1,.35.35,3.887,3.887,0,0,1,.35.7l2.978,7.066a2.865,2.865,0,0,1,.234.584A2.8,2.8,0,0,1,91.839,113.968Zm4.088-9.4a2.334,2.334,0,0,0-.759,1.109,1.255,1.255,0,0,0-.584-1.109Z" transform="translate(-25.463 -34.284)" fill="#313131"/><path d="M80.459,112.45l-3.27-8.35h-.642l-1.693.584v.35a1.049,1.049,0,0,1,.642.175,1.108,1.108,0,0,1,.409.467l-2.453,6.248c-.467,1.168-1.051,1.752-1.752,1.869v.409h3.27v-.409a.884.884,0,0,1-.818-.409,1.4,1.4,0,0,1-.292-.818,2.421,2.421,0,0,1,.175-.934l.467-1.226h3.328l.818,2.044a2.228,2.228,0,0,1,.234.759.389.389,0,0,1-.292.409,6.205,6.205,0,0,1-.818.175v.409h4.2v-.409a2.479,2.479,0,0,1-.876-.35A3.641,3.641,0,0,1,80.459,112.45Zm-8,1.285a2.23,2.23,0,0,0,.526-.526c.117-.175.234-.35.409-.584v.234a1.109,1.109,0,0,0,.467.876Zm2.219-3.8,1.46-3.8,1.518,3.8Zm4.671,3.62a.714.714,0,0,1-.526.175h-.175a1.315,1.315,0,0,0,.292-.292.438.438,0,0,0,.058-.292,1.962,1.962,0,0,0-.234-.876l-2.511-6.365a3.165,3.165,0,0,0-.35-.642.85.85,0,0,0-.526-.35h.35a.714.714,0,0,1,.526.175,3.126,3.126,0,0,1,.409.7l2.511,6.365a2.871,2.871,0,0,1,.234.993A.282.282,0,0,1,79.35,113.56Z" transform="translate(-19.222 -34.284)" fill="#313131"/><path d="M181.225,112.8a4.773,4.773,0,0,1-1.168.7,3.533,3.533,0,0,1-1.4.234,4.739,4.739,0,0,1-.993-.058.986.986,0,0,1-.584-.175,1.047,1.047,0,0,1-.292-.409,3.1,3.1,0,0,1-.058-.818V109.18h1.635a1.645,1.645,0,0,1,1.226.409,1.822,1.822,0,0,1,.467,1.226h.409v-3.737H180c0,1.109-.642,1.693-1.869,1.693h-1.4v-3.095a1.8,1.8,0,0,1,.117-.642.92.92,0,0,1,.409-.409,2.29,2.29,0,0,1,.993-.117,4.354,4.354,0,0,1,1.518.234,5.883,5.883,0,0,1,1.343.7,5.074,5.074,0,0,1,.993.934h.526l-.876-2.277H173.4v.409a3.472,3.472,0,0,1,.993.117.745.745,0,0,1,.409.292,2.178,2.178,0,0,1,.117.7v6.949a1.8,1.8,0,0,1-.117.642.657.657,0,0,1-.467.292,3.659,3.659,0,0,1-.934.117v.409h8.7l.876-2.569h-.584A4.58,4.58,0,0,1,181.225,112.8ZM180,108.3v1.4a.92.92,0,0,0-.409-.409,1.645,1.645,0,0,0-.642-.234A2.223,2.223,0,0,0,180,108.3Zm1.109-3.737.526.993a7.607,7.607,0,0,0-.876-.584,4.52,4.52,0,0,0-.934-.409Zm-5.431,7.941a2.154,2.154,0,0,1-.175.993.845.845,0,0,1-.759.292.785.785,0,0,0,.35-.409,2.288,2.288,0,0,0,.117-.759v-6.832a2.288,2.288,0,0,0-.117-.759.526.526,0,0,0-.35-.35c.35,0,.584.058.7.234a1.231,1.231,0,0,1,.234.818Zm5.723,1.226h-1.226c.409-.234.759-.409.934-.526a3.954,3.954,0,0,0,.759-.7Z" transform="translate(-61.536 -34.284)" fill="#313131"/></g></svg>
