<svg xmlns="http://www.w3.org/2000/svg" width="126.493" height="16.7" viewBox="0 0 126.493 16.7"><g transform="translate(-26 -286.4)"><path d="M419.421,289.871a2.644,2.644,0,0,1,1.033-1.771H416.3a2.7,2.7,0,0,1,1.012,1.666,8.22,8.22,0,0,1,.042,1.181V301.11a8.045,8.045,0,0,1-.042,1.16,2.85,2.85,0,0,1-1.012,1.687h4.154a2.728,2.728,0,0,1-1.033-1.771c-.021-.253-.021-.569-.021-1.075V290.947C419.4,290.441,419.4,290.1,419.421,289.871Z" transform="translate(-308.003 -1.342)" fill="#8c8c88"/><path d="M120.621,289.871a2.644,2.644,0,0,1,1.033-1.771H117.5a2.7,2.7,0,0,1,1.012,1.645,8.211,8.211,0,0,1,.042,1.181v10.163a8.211,8.211,0,0,1-.042,1.181,2.75,2.75,0,0,1-1.012,1.687h4.154a2.728,2.728,0,0,1-1.033-1.771c-.021-.253-.021-.569-.021-1.075V290.947A5.432,5.432,0,0,1,120.621,289.871Z" transform="translate(-72.207 -1.342)" fill="#8c8c88"/><path d="M195.119,298.145h0a.158.158,0,0,0,.021.105v.084c.021.211.021.506.021.928v.97l-.127.105a6.191,6.191,0,0,1-3.943,1.371c-3.395,0-5.756-2.952-5.756-7.169v-.126c0-3.88,2.53-6.684,6.03-6.684a4.684,4.684,0,0,1,2.235.443,4.1,4.1,0,0,1,.611.443,4.327,4.327,0,0,1,1.223,2.319l.042-.126,1.16-3.648h-.464a7.883,7.883,0,0,1-1.687-.3,14.245,14.245,0,0,0-3.1-.464,8.277,8.277,0,0,0-.148,16.552,10.6,10.6,0,0,0,4.133-1.118,5.042,5.042,0,0,1,1.349-.485h.337v-3.015a2.761,2.761,0,0,1,.759-1.708h-3.753A2.72,2.72,0,0,1,195.119,298.145Z" transform="translate(-123.975)" fill="#8c8c88"/><path d="M31.567,292.573c-1.413-.97-2.657-1.75-2.657-3.015a1.114,1.114,0,0,1,.021-.274,2.013,2.013,0,0,1,2.045-1.5,2.988,2.988,0,0,1,1.2.211H32.2a6.344,6.344,0,0,1,2.066,1.518v-2.277l-.654-.19c-.211-.063-.443-.127-.654-.211A6.96,6.96,0,0,0,31,286.5a4.166,4.166,0,0,0-1.645.337,3.619,3.619,0,0,0-2.235,3.31c.021,1.856,1.75,3.078,3.416,4.28.464.337.949.675,1.371,1.033a4.473,4.473,0,0,1,2,3.416v.084a2.646,2.646,0,0,1-2,2.488,4.353,4.353,0,0,1-1.413.253,4.148,4.148,0,0,1-1.434-.253,3.675,3.675,0,0,1-1.118-.675l-.021-.021-.021-.021A8.1,8.1,0,0,1,26,298.5v3.015l.169.105a1.944,1.944,0,0,1,.169.105,6.737,6.737,0,0,0,1.982.991,7.409,7.409,0,0,0,2.214.337,5.826,5.826,0,0,0,1.982-.337,4.705,4.705,0,0,0,1.919-1.265,4.421,4.421,0,0,0,1.2-2.973A5.556,5.556,0,0,0,34.1,294.6,12.857,12.857,0,0,0,31.567,292.573Z" transform="translate(0 -0.079)" fill="#8c8c88"/><path d="M579.357,301.474c-.042.042-.084.063-.127.105-.042.021-.084.063-.126.084a5.968,5.968,0,0,1-3.416.865c-1.961,0-2.045-.506-2.045-2.13v-9.552a7.378,7.378,0,0,1,.042-1.118A2.7,2.7,0,0,1,574.7,288h-4.091a2.561,2.561,0,0,1,.949,1.708,8.022,8.022,0,0,1,.042,1.16v10.163c0,1.139,0,1.6-.97,2.235l-.928.611h10.248l1.6-4.47A14.291,14.291,0,0,1,579.357,301.474Z" transform="translate(-429.058 -1.263)" fill="#8c8c88"/><path d="M303.8,288.991a1.582,1.582,0,0,1,.105.337c0,.021.021.063.021.084a1.394,1.394,0,0,1,.021.316c0,.169.021.337.021.569v9.362L293.7,288h-4.2l.675.316a6.443,6.443,0,0,1,2.762,2.066v11.2a5.161,5.161,0,0,1-.021.612c0,.126-.021.211-.021.3a1.4,1.4,0,0,1-.127.422,2.738,2.738,0,0,1-.822.97h3.479a2.4,2.4,0,0,1-.865-1.054,1.758,1.758,0,0,1-.084-.316c-.021-.105-.021-.232-.042-.4V291.9l11.028,12.462V290.319a4.412,4.412,0,0,1,.021-.548,2.682,2.682,0,0,1,.042-.464,1.853,1.853,0,0,1,.105-.316,2.691,2.691,0,0,1,.843-.991h-3.521A2.868,2.868,0,0,1,303.8,288.991Z" transform="translate(-207.939 -1.263)" fill="#8c8c88"/><path d="M490.073,301.368l-.316.253a5.8,5.8,0,0,1-3.437.907c-1.961,0-2.045-.506-2.045-2.13V295.76h3.838a2.424,2.424,0,0,1,1.771.928v-3.142a2.462,2.462,0,0,1-1.771.928h-3.838v-5.166h3.332a2.771,2.771,0,0,1,2.425,1.708V288H480.5a2.474,2.474,0,0,1,1.666,1.771,5.348,5.348,0,0,1,.063,1.075V301.01a5.348,5.348,0,0,1-.063,1.075,2.441,2.441,0,0,1-1.666,1.771h10.037l1.624-4.449A15,15,0,0,1,490.073,301.368Z" transform="translate(-358.666 -1.263)" fill="#8c8c88"/></g></svg>