<svg xmlns="http://www.w3.org/2000/svg" width="44" height="30.807" viewBox="0 0 44 30.807"><path d="M43.093,4.821A5.513,5.513,0,0,0,39.216.942C35.772,0,22,0,22,0S8.227,0,4.784.906A5.625,5.625,0,0,0,.906,4.821C0,8.263,0,15.4,0,15.4S0,22.58.906,25.987a5.514,5.514,0,0,0,3.878,3.878c3.479.942,17.216.942,17.216.942s13.772,0,17.216-.906a5.513,5.513,0,0,0,3.878-3.878C44,22.58,44,15.44,44,15.44S44.036,8.263,43.093,4.821Zm0,0" transform="translate(0)" fill="#f41111"/><path d="M204.969,115.915l11.659-6.715-11.659-6.715Zm0,0" transform="translate(-187.466 -93.796)" fill="#fff"/></svg>