<svg xmlns="http://www.w3.org/2000/svg" width="34" height="22" viewBox="0 0 34 22">
  <g id="Korea_mini_flag" transform="translate(-1072 87)">
    <rect id="Rectangle_16" data-name="Rectangle 16" width="34" height="22" transform="translate(1072 -87)" fill="#fff"/>
    <g id="Korea_flag3" transform="translate(966.666 -183.204)">
      <g id="Group_93" data-name="Group 93" transform="translate(112.334 99.204)">
        <g id="Group_43" data-name="Group 43" transform="translate(5.457 3.122)">
          <path id="Path_303" data-name="Path 303" d="M424.626,263.3a5.006,5.006,0,0,0-4.5,2.81,2.514,2.514,0,0,0,4.594,1.982,2.5,2.5,0,0,1,3.021-.675A2.56,2.56,0,0,1,428.9,270.9a5,5,0,0,0-4.275-7.6Z" transform="translate(-419.623 -263.3)" fill="#c60c30"/>
          <path id="Path_313" data-name="Path 313" d="M407.317,412.305a2.5,2.5,0,0,0-3.021.675A2.512,2.512,0,0,1,399.7,411a5,5,0,0,0,8.774,4.792A2.562,2.562,0,0,0,407.317,412.305Z" transform="translate(-399.2 -408.19)" fill="#003478"/>
        </g>
        <g id="Group_53" data-name="Group 53" transform="translate(0 0.039)">
          <rect id="Rectangle_43" data-name="Rectangle 43" width="5.005" height="0.812" transform="translate(0 4.14) rotate(-55.813)" fill="#231f20"/>
          <rect id="Rectangle_53" data-name="Rectangle 53" width="5.005" height="0.812" transform="translate(1.041 4.832) rotate(-55.813)" fill="#231f20"/>
          <rect id="Rectangle_63" data-name="Rectangle 63" width="5.005" height="0.812" transform="matrix(0.562, -0.827, 0.827, 0.562, 2.106, 5.526)" fill="#231f20"/>
        </g>
        <g id="Group_63" data-name="Group 63" transform="translate(15.3 0)">
          <rect id="Rectangle_73" data-name="Rectangle 73" width="0.812" height="2.287" transform="translate(0 1.885) rotate(-33.841)" fill="#231f20"/>
          <rect id="Rectangle_83" data-name="Rectangle 83" width="0.812" height="2.287" transform="translate(1.488 4.144) rotate(-33.841)" fill="#231f20"/>
          <rect id="Rectangle_93" data-name="Rectangle 93" width="0.812" height="5.005" transform="translate(1.033 1.179) rotate(-33.841)" fill="#231f20"/>
          <rect id="Rectangle_103" data-name="Rectangle 103" width="0.812" height="2.332" transform="translate(2.073 0.452) rotate(-33.841)" fill="#231f20"/>
          <rect id="Rectangle_113" data-name="Rectangle 113" width="0.812" height="2.287" transform="translate(3.576 2.739) rotate(-33.844)" fill="#231f20"/>
        </g>
        <g id="Group_73" data-name="Group 73" transform="translate(0.047 10.235)">
          <rect id="Rectangle_123" data-name="Rectangle 123" width="0.812" height="4.92" transform="translate(0 1.851) rotate(-33.841)" fill="#231f20"/>
          <rect id="Rectangle_133" data-name="Rectangle 133" width="0.812" height="4.92" transform="translate(2.093 0.452) rotate(-33.841)" fill="#231f20"/>
          <rect id="Rectangle_143" data-name="Rectangle 143" width="0.812" height="2.332" transform="translate(1.012 1.084) rotate(-33.841)" fill="#231f20"/>
          <rect id="Rectangle_153" data-name="Rectangle 153" width="0.812" height="2.287" transform="translate(2.518 3.369) rotate(-33.841)" fill="#231f20"/>
        </g>
        <g id="Group_83" data-name="Group 83" transform="translate(15.239 10.219)">
          <path id="Path_323" data-name="Path 323" d="M913.4,756l.672.456,1.3-1.908-.679-.447Z" transform="translate(-913.4 -751.861)" fill="#231f20"/>
          <path id="Path_333" data-name="Path 333" d="M995.856,636.855l-.672-.455-1.284,1.885.679.447Z" transform="translate(-992.369 -636.4)" fill="#231f20"/>
          <path id="Path_343" data-name="Path 343" d="M1050.752,673.257l-.672-.457-1.28,1.881.679.447Z" transform="translate(-1046.224 -672.108)" fill="#231f20"/>
          <path id="Path_353" data-name="Path 353" d="M968.1,792.2l.672.455,1.3-1.914-.679-.445Z" transform="translate(-967.059 -787.372)" fill="#231f20"/>
          <path id="Path_363" data-name="Path 363" d="M1106.554,709.755l-.672-.455-1.282,1.885.677.447Z" transform="translate(-1100.963 -707.913)" fill="#231f20"/>
          <path id="Path_373" data-name="Path 373" d="M1024.1,828.9l.67.457,1.3-1.91-.677-.445Z" transform="translate(-1021.994 -823.374)" fill="#231f20"/>
        </g>
      </g>
    </g>
  </g>
</svg>
