<svg xmlns="http://www.w3.org/2000/svg" xmlns:xlink="http://www.w3.org/1999/xlink" width="91" height="59.851" viewBox="0 0 91 59.851"><defs><clipPath id="a"><path d="M322.406,283.716c0-.027-.027-1-.054-1.11-.108-.488-.054-1.083-.19-1.625a4.378,4.378,0,0,1-.135-1.977c-.054-.054-.054-.027-.081-.081-.19,0-.677.081-.785.054a1.756,1.756,0,0,0-.785-.081c-.677.162-1.49.19-2.167.379h-.515c-.677.163-1.6.163-2.248.325-1.842-.027-3.684-.027-5.552-.054-.46.108-1.192-.081-1.706.054a6.19,6.19,0,0,1-1.436.054c-.65,0-1.408-.054-1.977-.054a3,3,0,0,1-.515.054c-1.436-.217-3.115.054-4.523-.271h-.84a8.436,8.436,0,0,1-1.192-.135h-.542c-.46-.108-1.083-.081-1.517-.19h-.6c-.515-.135-1.219-.108-1.761-.244h-.46c-.217-.054-.569-.081-.785-.135h-.406c-.217-.054-.569-.081-.785-.135h-.406c-1.083-.271-2.356-.244-3.413-.515-.406-.108-.812-.027-1.246-.135-.731-.217-1.517-.271-2.3-.515-.271-.054-.542-.081-.84-.135-.569-.19-1.246-.325-1.788-.515a4.587,4.587,0,0,1-.6-.108c-2.329-.785-4.848-1.3-7.1-2.113a2.626,2.626,0,0,1,.921-1.327c.054-.054.135-.027.19-.081.379-.488.785-.867,1.165-1.327.217-.19.433-.406.65-.6.135-.163.19-.379.325-.542.081-.135.271-.217.379-.325.054-.054.054-.163.108-.217.135-.19.406-.352.542-.542.081-.135.108-.244.19-.379.135-.108.244-.217.379-.325.108-.135.135-.271.244-.406.271-.271.542-.515.84-.785.515-.7,1.138-1.273,1.652-1.977.081-.081.19-.163.271-.244,1.083-1.49,2.248-2.9,3.359-4.388.108-.163.352-.271.46-.406.054-.081.027-.163.081-.244.163-.163.325-.3.515-.46a4.05,4.05,0,0,0,.325-.379v-.081c.108-.081.217-.19.325-.271.108-.135.135-.244.244-.379a.591.591,0,0,0,.135-.081c.054-.108.027-.244.081-.325a4.59,4.59,0,0,1,.379-.271c.027-.054.027-.081.054-.135.3-.3.623-.542.921-.84.108-.135.217-.244.325-.379.081-.054.163-.027.244-.081.352-.271.542-.758.867-1,.135-.108.352-.163.46-.271a.3.3,0,0,0,0-.406v-.379c-.054-.081-.244-.108-.325-.19a5.685,5.685,0,0,1-.65-.731c-.352-.433-.84-.84-1.246-1.246-.108-.081-.217-.19-.325-.271-.163-.244-.217-.488-.379-.731-.217-.352-.731-.46-.975-.785h-.325c-.163.135-.325.108-.542.19-.19.081-.433.217-.65.325-1,.542-2.14,1-3.088,1.625-1.408.867-2.654,1.9-3.981,2.871-.081.081-.162.19-.244.271s-.19.081-.271.135c-.19.135-.325.406-.515.542a13.5,13.5,0,0,0-3.088,3.358c-.244.352-.6.677-.84,1.056-.108,0-.108-.027-.19-.054a2.113,2.113,0,0,1,.135-.65v-.379c.027-.081.163-.217.19-.325v-1a1.256,1.256,0,0,1-.054-.379c.19-.731.46-1.327.677-2.031.027-.244.027-.488.054-.731.054-.217.108-.569.19-.84a.855.855,0,0,1,0-.379c.027-.054.108-.135.135-.19.054-.135.027-.271.081-.379.108-.163.271-.163.325-.406a.771.771,0,0,0-.081-.542c-.054-.108-.108-.135-.244-.19a1.128,1.128,0,0,0-.7-.081c-.027,0-.108.135-.135.135-.135.027-.271.027-.406.054-.027.027-.027.054-.054.108l-1.11.081c-.7-.135-1.435.108-2.086-.054h-.569c-.7-.163-1.49-.217-2.221-.406a1.685,1.685,0,0,0-.921-.081c-.027.027-.135.135-.19.135h-.271c-.054.027-.054.135-.081.19-.135.081-.244.19-.379.271a5.949,5.949,0,0,1-.433,1.815l-.081.975c-.027.135-.108.433-.135.6.027.081.027.163.054.244-.271,1.273,0,2.411-.325,3.684v.65c0,.244-.054.7-.081.921a1.358,1.358,0,0,0,.054.325c-.217,1.165-.3,2.438-.542,3.494v.84a5.547,5.547,0,0,0-.135.65c.027.19.054.379.081.542-.054.244-.081.731-.135,1v.515c-.081.3-.163.677-.244.975.027.163.027.325.054.515a19.771,19.771,0,0,0-.081,2.492,23.01,23.01,0,0,0,.054,4.117c0,.108-.054.244-.054.406a12.391,12.391,0,0,0,.135,2.438c.027.6.027,1.165.054,1.76.108.46-.027,1.138.081,1.625.108.515-.027,1.165.081,1.625a13.119,13.119,0,0,1,.135,1.95c-.027.163-.027.3-.054.46.081.379.163.921.271,1.3v.271c.135.135.244.271.379.406.46,0,.379-.108.65-.217a5.733,5.733,0,0,1,1.029-.244c.108-.027.3-.163.406-.19.3-.027.623-.027.921-.054.542-.163,1.246-.325,1.815-.46.515-.135,1.3.325,1.706,0h1.436c.054-.027.108-.135.19-.19a9.5,9.5,0,0,0-.081-2.167c.027-.163.027-.352.054-.515-.163-.677-.027-1.49-.135-2.031a10.649,10.649,0,0,1-.271-3.684,18.335,18.335,0,0,0,0-2.113c.027-.163-.108-.352,0-.515v-.081h.081a4.32,4.32,0,0,0,.569.406c.217.244.433.46.65.7.163.162.325.3.515.46v.081c.163.163.406.271.542.46v.081h.081c.162.19.352.379.515.542.108.081.244.135.379.217.244.19.433.515.7.7.162.108.325.163.515.271.054.054.081.135.135.19.244.163.46.244.7.406a1.148,1.148,0,0,1,.135.19c.054.027.135.027.19.054.081.108.19.217.271.325.108.081.244.108.379.19.054.081.135.163.19.244.379.271.758.488,1.165.731.19.135.379.325.542.46.108.081.217.054.325.135.027.054.054.081.081.135.19.135.379.163.542.271a.476.476,0,0,0,.108.135,24.9,24.9,0,0,0,2.411,1.192c.623.271,1.273.7,1.9.975,1.165.515,2.465.867,3.684,1.3.135.027.244.027.379.054,1.463.488,3.088.758,4.659,1.192h.325c.65.19,1.463.271,2.113.46h.325c.569.163,1.3.217,1.842.379.217.027.46.027.7.054.135.027.433.108.6.135h.325c.352.108.813.271,1.165.379l1.625.081c.027,0,.163.135.19.135.163.054.569-.163.867-.081.6.163,1.436.027,2.086.19.325-.027.65-.027.975-.054.731.163,1.652-.081,2.438.054a9.112,9.112,0,0,0,2.275-.054c.379-.027.731-.027,1.11-.054.84-.217,1.761-.352,2.546-.6.3-.054.6-.081.867-.135a10.974,10.974,0,0,0,2.438-1.3c.244-.081.46-.19.7-.271a5.2,5.2,0,0,0,.406-.379c.217-.135.46-.19.7-.325.271-.163.488-.433.731-.6.054-.054.217-.081.271-.135.163-.163.244-.379.406-.515.108-.054.244-.054.325-.135.027-.081.054-.19.081-.271.163-.027.352-.054.515-.081a2.872,2.872,0,0,0-.135-1.435A1.018,1.018,0,0,1,322.406,283.716Z" transform="translate(-262.418 -250.7)"/></clipPath></defs><g transform="translate(-262.418 -178.4)"><g transform="translate(264.905 178.4)"><g transform="translate(0 0)"><path d="M271.6,191.161V180.3h2.275v10.861Z" transform="translate(-271.6 -179.785)" fill="#002a57"/><path d="M289.413,191.485a3,3,0,0,1,2.058-.785,2.634,2.634,0,0,1,2.221,1,3.269,3.269,0,0,1,2.519-1,3.045,3.045,0,0,1,2.058.7,2.908,2.908,0,0,1,.921,2.248v5.065H297.1v-4.794a1.4,1.4,0,1,0-2.79-.054v4.848H292.2v-4.794a1.4,1.4,0,1,0-2.79-.027v4.794H287.3v-7.882h2.113v.677Z" transform="translate(-283.048 -187.369)" fill="#002a57"/><path d="M341.27,198.817v-.65a2.621,2.621,0,0,1-2.058.758,2.993,2.993,0,0,1-2.14-.7,2.308,2.308,0,0,1-.677-1.788c0-1.273.921-2.3,2.871-2.3h1.977v-.406c0-.867-.46-1.246-1.571-1.246a1.927,1.927,0,0,0-1.625.65l-1.327-1.246a3.581,3.581,0,0,1,3.034-1.083c2.356,0,3.575.948,3.575,2.817v5.2H341.27Zm-.054-3.331h-1.652c-.758,0-1.192.325-1.192.894,0,.542.379.921,1.219.921a1.806,1.806,0,0,0,1.327-.379,1.271,1.271,0,0,0,.3-1Z" transform="translate(-318.844 -187.441)" fill="#002a57"/><path d="M372.348,190.935h2.113v7.638c0,1.9-1.463,3.3-3.711,3.277a4.1,4.1,0,0,1-3.061-1.029l1.3-1.246a2.2,2.2,0,0,0,1.652.623,1.559,1.559,0,0,0,1.706-1.652v-.813a2.575,2.575,0,0,1-2,.785,2.949,2.949,0,0,1-2-.7c-.785-.758-.84-1.761-.84-3.169,0-1.381.054-2.383.867-3.142a2.972,2.972,0,0,1,2.031-.7,2.592,2.592,0,0,1,1.977.758v-.623Zm-1.381,1.679c-1.246,0-1.381,1-1.381,2.058s.135,2.086,1.381,2.086,1.381-1.029,1.381-2.058C372.348,193.617,372.213,192.615,370.967,192.615Z" transform="translate(-341.526 -187.441)" fill="#002a57"/><path d="M400.327,180.892a1.248,1.248,0,1,1,0-2.492,1.247,1.247,0,1,1,0,2.492Zm-1.056,8.884.027-7.882h2.113v7.882Z" transform="translate(-364.494 -178.4)" fill="#002a57"/><path d="M416.54,191.785A3,3,0,0,1,418.6,191a2.828,2.828,0,0,1,1.977.7,2.747,2.747,0,0,1,.84,2.248v5.011H419.3v-4.74a1.4,1.4,0,1,0-2.79-.027v4.74H414.4v-7.882h2.113v.731Z" transform="translate(-375.723 -187.587)" fill="#002a57"/><path d="M448.058,195.686a1.673,1.673,0,0,0,1.842,1.761,2.391,2.391,0,0,0,1.9-.731l1.273,1.192a4.119,4.119,0,0,1-3.2,1.246c-1.977,0-3.9-.867-3.873-4.09,0-2.6,1.49-4.063,3.684-4.063a3.5,3.5,0,0,1,3.656,3.792v.894Zm3.006-2.194a1.459,1.459,0,0,0-1.408-.84,1.483,1.483,0,0,0-1.408.813,1.85,1.85,0,0,0-.19.867h3.2A2.553,2.553,0,0,0,451.064,193.492Z" transform="translate(-398.763 -187.587)" fill="#002a57"/></g><g transform="translate(34.669 14.192)"><path d="M400.711,240.961h.6c.758,0,.948-.19,1.192-.758l.488-1.165L399.6,231.4h2.221l2.221,5.363L406.1,231.4h2.248l-4.09,9.588a2.559,2.559,0,0,1-.7,1,2.848,2.848,0,0,1-1.95.6h-.867Z" transform="translate(-399.6 -231.238)" fill="#002a57"/><path d="M437.327,239.28a4.2,4.2,0,0,1-2.763-.921,3.9,3.9,0,0,1-1.165-3.142,3.827,3.827,0,0,1,1.11-3.142,4.3,4.3,0,0,1,2.79-.975h.054a4.246,4.246,0,0,1,2.79.921,3.876,3.876,0,0,1,1.165,3.115,3.8,3.8,0,0,1-1.11,3.142,4.25,4.25,0,0,1-2.817.975Zm-.027-6.527a1.864,1.864,0,0,0-1.246.406,2.571,2.571,0,0,0-.569,2.031,2.521,2.521,0,0,0,.6,2,2.1,2.1,0,0,0,2.519-.027c.488-.406.569-1.11.569-2.031a2.454,2.454,0,0,0-.6-2,1.914,1.914,0,0,0-1.246-.406H437.3Z" transform="translate(-424.245 -231.019)" fill="#002a57"/><path d="M471.177,239.5a3.7,3.7,0,0,1-2.3-.7,2.654,2.654,0,0,1-.975-2.275V231.4h2.086v4.875a1.494,1.494,0,0,0,1.706,1.571,1.868,1.868,0,0,0,1.381-.488,1.515,1.515,0,0,0,.406-1.11v-4.821h2.113v7.909h-2.14v-.488a3.612,3.612,0,0,1-2.221.677l-.054-.027Z" transform="translate(-449.401 -231.237)" fill="#002a57"/><path d="M502.9,238.871v-7.909h2.113v.6a3.51,3.51,0,0,1,2.248-.758h.054a6.643,6.643,0,0,1,.731.054l.108.027V232.7l-.19-.081a3.6,3.6,0,0,0-1.138-.19h-.108a1.785,1.785,0,0,0-1.192.433,1.533,1.533,0,0,0-.488,1.165v4.794H502.9Z" transform="translate(-474.921 -230.8)" fill="#002a57"/></g></g><g transform="translate(262.418 197.982)"><path d="M322.406,283.716c0-.027-.027-1-.054-1.11-.108-.488-.054-1.083-.19-1.625a4.378,4.378,0,0,1-.135-1.977c-.054-.054-.054-.027-.081-.081-.19,0-.677.081-.785.054a1.756,1.756,0,0,0-.785-.081c-.677.162-1.49.19-2.167.379h-.515c-.677.163-1.6.163-2.248.325-1.842-.027-3.684-.027-5.552-.054-.46.108-1.192-.081-1.706.054a6.19,6.19,0,0,1-1.436.054c-.65,0-1.408-.054-1.977-.054a3,3,0,0,1-.515.054c-1.436-.217-3.115.054-4.523-.271h-.84a8.436,8.436,0,0,1-1.192-.135h-.542c-.46-.108-1.083-.081-1.517-.19h-.6c-.515-.135-1.219-.108-1.761-.244h-.46c-.217-.054-.569-.081-.785-.135h-.406c-.217-.054-.569-.081-.785-.135h-.406c-1.083-.271-2.356-.244-3.413-.515-.406-.108-.812-.027-1.246-.135-.731-.217-1.517-.271-2.3-.515-.271-.054-.542-.081-.84-.135-.569-.19-1.246-.325-1.788-.515a4.587,4.587,0,0,1-.6-.108c-2.329-.785-4.848-1.3-7.1-2.113a2.626,2.626,0,0,1,.921-1.327c.054-.054.135-.027.19-.081.379-.488.785-.867,1.165-1.327.217-.19.433-.406.65-.6.135-.163.19-.379.325-.542.081-.135.271-.217.379-.325.054-.054.054-.163.108-.217.135-.19.406-.352.542-.542.081-.135.108-.244.19-.379.135-.108.244-.217.379-.325.108-.135.135-.271.244-.406.271-.271.542-.515.84-.785.515-.7,1.138-1.273,1.652-1.977.081-.081.19-.163.271-.244,1.083-1.49,2.248-2.9,3.359-4.388.108-.163.352-.271.46-.406.054-.081.027-.163.081-.244.163-.163.325-.3.515-.46a4.05,4.05,0,0,0,.325-.379v-.081c.108-.081.217-.19.325-.271.108-.135.135-.244.244-.379a.591.591,0,0,0,.135-.081c.054-.108.027-.244.081-.325a4.59,4.59,0,0,1,.379-.271c.027-.054.027-.081.054-.135.3-.3.623-.542.921-.84.108-.135.217-.244.325-.379.081-.054.163-.027.244-.081.352-.271.542-.758.867-1,.135-.108.352-.163.46-.271a.3.3,0,0,0,0-.406v-.379c-.054-.081-.244-.108-.325-.19a5.685,5.685,0,0,1-.65-.731c-.352-.433-.84-.84-1.246-1.246-.108-.081-.217-.19-.325-.271-.163-.244-.217-.488-.379-.731-.217-.352-.731-.46-.975-.785h-.325c-.163.135-.325.108-.542.19-.19.081-.433.217-.65.325-1,.542-2.14,1-3.088,1.625-1.408.867-2.654,1.9-3.981,2.871-.081.081-.162.19-.244.271s-.19.081-.271.135c-.19.135-.325.406-.515.542a13.5,13.5,0,0,0-3.088,3.358c-.244.352-.6.677-.84,1.056-.108,0-.108-.027-.19-.054a2.113,2.113,0,0,1,.135-.65v-.379c.027-.081.163-.217.19-.325v-1a1.256,1.256,0,0,1-.054-.379c.19-.731.46-1.327.677-2.031.027-.244.027-.488.054-.731.054-.217.108-.569.19-.84a.855.855,0,0,1,0-.379c.027-.054.108-.135.135-.19.054-.135.027-.271.081-.379.108-.163.271-.163.325-.406a.771.771,0,0,0-.081-.542c-.054-.108-.108-.135-.244-.19a1.128,1.128,0,0,0-.7-.081c-.027,0-.108.135-.135.135-.135.027-.271.027-.406.054-.027.027-.027.054-.054.108l-1.11.081c-.7-.135-1.435.108-2.086-.054h-.569c-.7-.163-1.49-.217-2.221-.406a1.685,1.685,0,0,0-.921-.081c-.027.027-.135.135-.19.135h-.271c-.054.027-.054.135-.081.19-.135.081-.244.19-.379.271a5.949,5.949,0,0,1-.433,1.815l-.081.975c-.027.135-.108.433-.135.6.027.081.027.163.054.244-.271,1.273,0,2.411-.325,3.684v.65c0,.244-.054.7-.081.921a1.358,1.358,0,0,0,.054.325c-.217,1.165-.3,2.438-.542,3.494v.84a5.547,5.547,0,0,0-.135.65c.027.19.054.379.081.542-.054.244-.081.731-.135,1v.515c-.081.3-.163.677-.244.975.027.163.027.325.054.515a19.771,19.771,0,0,0-.081,2.492,23.01,23.01,0,0,0,.054,4.117c0,.108-.054.244-.054.406a12.391,12.391,0,0,0,.135,2.438c.027.6.027,1.165.054,1.76.108.46-.027,1.138.081,1.625.108.515-.027,1.165.081,1.625a13.119,13.119,0,0,1,.135,1.95c-.027.163-.027.3-.054.46.081.379.163.921.271,1.3v.271c.135.135.244.271.379.406.46,0,.379-.108.65-.217a5.733,5.733,0,0,1,1.029-.244c.108-.027.3-.163.406-.19.3-.027.623-.027.921-.054.542-.163,1.246-.325,1.815-.46.515-.135,1.3.325,1.706,0h1.436c.054-.027.108-.135.19-.19a9.5,9.5,0,0,0-.081-2.167c.027-.163.027-.352.054-.515-.163-.677-.027-1.49-.135-2.031a10.649,10.649,0,0,1-.271-3.684,18.335,18.335,0,0,0,0-2.113c.027-.163-.108-.352,0-.515v-.081h.081a4.32,4.32,0,0,0,.569.406c.217.244.433.46.65.7.163.162.325.3.515.46v.081c.163.163.406.271.542.46v.081h.081c.162.19.352.379.515.542.108.081.244.135.379.217.244.19.433.515.7.7.162.108.325.163.515.271.054.054.081.135.135.19.244.163.46.244.7.406a1.148,1.148,0,0,1,.135.19c.054.027.135.027.19.054.081.108.19.217.271.325.108.081.244.108.379.19.054.081.135.163.19.244.379.271.758.488,1.165.731.19.135.379.325.542.46.108.081.217.054.325.135.027.054.054.081.081.135.19.135.379.163.542.271a.476.476,0,0,0,.108.135,24.9,24.9,0,0,0,2.411,1.192c.623.271,1.273.7,1.9.975,1.165.515,2.465.867,3.684,1.3.135.027.244.027.379.054,1.463.488,3.088.758,4.659,1.192h.325c.65.19,1.463.271,2.113.46h.325c.569.163,1.3.217,1.842.379.217.027.46.027.7.054.135.027.433.108.6.135h.325c.352.108.813.271,1.165.379l1.625.081c.027,0,.163.135.19.135.163.054.569-.163.867-.081.6.163,1.436.027,2.086.19.325-.027.65-.027.975-.054.731.163,1.652-.081,2.438.054a9.112,9.112,0,0,0,2.275-.054c.379-.027.731-.027,1.11-.054.84-.217,1.761-.352,2.546-.6.3-.054.6-.081.867-.135a10.974,10.974,0,0,0,2.438-1.3c.244-.081.46-.19.7-.271a5.2,5.2,0,0,0,.406-.379c.217-.135.46-.19.7-.325.271-.163.488-.433.731-.6.054-.054.217-.081.271-.135.163-.163.244-.379.406-.515.108-.054.244-.054.325-.135.027-.081.054-.19.081-.271.163-.027.352-.054.515-.081a2.872,2.872,0,0,0-.135-1.435A1.018,1.018,0,0,1,322.406,283.716Z" transform="translate(-262.418 -250.7)" fill="#002a57"/><path d="M425.494,273.448c.081-.027.054,0,.081-.054.488-.108,1.056-.921,1.436-1.192a17.846,17.846,0,0,1,2.167-1.327c.027,0,.054.027.081.027a3,3,0,0,1,.515-.244c.081-.027.19-.054.271-.081a.574.574,0,0,1,.19-.081c.054-.027.135,0,.19,0,.108,0,.19-.054.3-.054.054,0,.081.027.135.027.081,0,.108-.027.19-.027.108-.027.244,0,.352-.027.054,0,.19-.054.244-.054s.054.054.081.081a1.11,1.11,0,0,0,.3.027,1.321,1.321,0,0,1,.325.027,1.657,1.657,0,0,1,.352.081.9.9,0,0,1,.271.163,3.157,3.157,0,0,0,.7.271c.19.027.271.135.488.163a2.119,2.119,0,0,1-.46.7c-.135.135-.3.217-.406.352a9.01,9.01,0,0,0-.894,1.354c-.027.054-.054.135-.081.19-.054.108-.135.135-.19.217-.081.135.027.217-.217.19.027,0-.081.135-.081.135a.5.5,0,0,1-.19.054,1.425,1.425,0,0,1-.46-.108c-.081-.027-.163,0-.244-.027-.054,0-.081-.027-.135-.054s-.135,0-.217,0a1.113,1.113,0,0,1-.3-.027.962.962,0,0,0-.271.054c-.081.027-.163.027-.244.054-.054.027-.135.054-.19.081-.217.108-.352.325-.542.46a4.793,4.793,0,0,0-1.381,1.381c-.054.162-.135.325-.19.515-.081.054-.19.135-.271.19-.135.217-.19.433-.325.65-.108.163-.352.244-.406.46a7.311,7.311,0,0,0,.135,1.3c.027.135-.081.081-.081.135v.7a2.922,2.922,0,0,0-.081.515,2.516,2.516,0,0,0,.081.65,3.951,3.951,0,0,0-.054,1.165c.352.352-.135,1.165-.271,1.571-.054.163.081.244.081.325-.027.081-.108.352-.135.46v.406c-.027.027-.054.027-.081.054-.027.244.271.488.244.731-.027.027-.054.027-.081.054a1.117,1.117,0,0,0,.054.542s-.081.975-.081,1.056c0,.054-.108.162-.135.271a1.36,1.36,0,0,1-.054.325c0,.027-.135.108-.135.135-.19.406.217,1.381.054,1.815-.054.108-.081.027-.081.271-.135.108-.244.271-.406.325-.6.19-1.571-.217-2.248-.054a2.738,2.738,0,0,1-.84.054.839.839,0,0,0-.19-.054,10.143,10.143,0,0,1-1.842.081c-.081-.135-.108-.108-.135-.325.325-.352.108-1.029.217-1.571.244-.975-.108-2.221.135-3.2v-.975a8.615,8.615,0,0,0,.054-1.9c-.027-.162-.027-.3-.054-.46a4.686,4.686,0,0,0-.054-1.625c.027-.163.027-.3.054-.461-.19-.785-.163-1.95-.325-2.627,0-.027.054-.3.054-.406-.027-.433-.027-.867-.054-1.3a2.557,2.557,0,0,0,.054-1.029c-.135-.406.108.217-.027-.325.027-.081.027-.162.054-.244a2.51,2.51,0,0,0-.135-.271c-.027-.054.081-.081.054-.19-.108-.433.135-.108,0-.515V273.2a7.257,7.257,0,0,0-.244-.7,1.83,1.83,0,0,0-.054-.379c-.108-.3-.46-.406-.515-.731l.054-.054a1.406,1.406,0,0,0,.731-.19c.217-.027.515-.433.731-.46a6.029,6.029,0,0,0,.84-.379c.163-.081.325-.054.46-.135.108-.054.163.135.271.081h.19s.433-.3.46-.325c.135,0,.379-.027.515-.027a2.732,2.732,0,0,0,.19.406c.054.081.217.108.271.19.081.108.054.244.135.379.081.081.19.162.271.244.027.054.027.135.054.19.081.135.244.325.325.46v.135c.054.108.271.325.325.46l.054.569Z" transform="translate(-376.882 -264.7)" fill="#002a57"/><path d="M544.528,285.982V285.9c-.054-.027-.081-.027-.135-.054a4.862,4.862,0,0,0-.515-.542c-.135-.135-.271-.244-.406-.379-.054-.081-.081-.163-.135-.244-.108-.108-.325-.19-.406-.325s-.081-.3-.19-.406a4.157,4.157,0,0,1-.46-.515c-.108-.19-.054-.406-.19-.542-.108-.135-.352-.217-.46-.379s-.054-.406-.135-.6c-.054-.027-.081-.054-.135-.081-.027-.081-.054-.19-.081-.271l-.135-.135a7.545,7.545,0,0,0-.244-1.3c-.027-.217-.027-.433-.054-.65-.027-.027-.054-.027-.081-.054v-.7l-.081-.108v-.6c-.135-.325-.271-.758-.379-1.056-.081-.244-.081-.623-.135-.84V275.8a5.121,5.121,0,0,1-.271-.84v-.569c-.027-.027-.054-.027-.081-.054-.027-.135-.027-.271-.054-.406-.027,0-.054-.027-.081-.054V273.6c-.027-.027-.054-.027-.081-.054v-.406a5.86,5.86,0,0,0-.6-.975c-.081-.135-.081-.271-.19-.406-.054-.027-.081-.054-.135-.081-.027-.081-.027-.163-.054-.244-.379-.6-.65-1.3-1.056-1.9a4.371,4.371,0,0,0-.975-.731c-.217-.135-.379-.406-.6-.542-.19-.135-.352-.163-.515-.271-.054-.054-.081-.135-.135-.19-.108-.054-.19-.027-.325-.081-.027-.027-.081-.108-.135-.135-.108-.027-.217-.027-.325-.054-.054-.027-.162-.163-.244-.19-.108-.027-.244-.027-.379-.054-.19-.081-.406-.3-.6-.379-.244-.108-.406-.081-.65-.19-.271-.108-.352-.325-.731-.325-.054.081-.19.135-.244.19-.135.217-.054.515-.19.785-.027.054-.162.135-.19.19l-.081.406a1.55,1.55,0,0,1-.19.217c-.108.244-.081.542-.244.731,0,.352.027.406.325.46h.19c.027.054.027.135.054.19.3.027.6.054.867.081.027.027.027.054.054.081.135.027.244.027.379.054a8.755,8.755,0,0,1,1.11.6c.027.054.054.081.081.135.108.081.217.054.325.135.135.108.19.379.325.515a1.308,1.308,0,0,1-.081.19c-.677-.081-1.49-.108-1.977-.217-.379.027-.731.027-1.111.054-.244-.054-.731,0-.975-.081-.163-.054-.325-.217-.6-.081a2.2,2.2,0,0,0-.271.244c-.163.108-.352.163-.515.271-.054.054-.081.135-.135.19-.108.054-.163.027-.271.081-.135.081-.19.271-.325.379-.054.027-.135.027-.19.054-.027.054-.027.081-.054.135a4.873,4.873,0,0,0-.542.515v.135c-.135.19-.379.325-.515.515-.081.108-.054.244-.135.379-.054.081-.217.19-.271.271v.135a3.742,3.742,0,0,0-.46.785v.19a1.642,1.642,0,0,1-.19.271c.027.027.027.054.054.081-.027.027-.054.027-.081.054a.884.884,0,0,1,0,.379c-.027.081-.19.271-.19.325s.081.081.054.19c0,.027-.135.108-.135.135v.217c-.027.108-.108.325-.135.406v.6a1.579,1.579,0,0,0-.081.515c0,.054.081.163.054.271a2.9,2.9,0,0,0-.19,1.056v1.3a10.473,10.473,0,0,0,.406,3.359,7.734,7.734,0,0,0,.975,1.11h.135c.027.054.027.081.054.135.054,0,.081.027.135.054.19.135.325.379.515.515.163.054.3.081.461.135.027.054.054.081.081.135h.244c.027.054.054.081.081.135.325.217.677.325,1,.542.027.054.054.081.081.135.081.027.19.027.271.054.379.163.921.352,1.327.515a4.822,4.822,0,0,0,1.788-.081h.46c.108-.054.217-.217.325-.271.135-.054.271-.081.406-.135.027-.054.054-.081.081-.135.081-.027.19-.054.271-.081.027-.054.054-.081.081-.135.108-.081.244-.027.379-.081.054-.027.108-.163.19-.19s.19-.027.271-.054c.135-.081.244-.3.379-.379h.19c.054-.027.054-.163.081-.19.108-.081.352-.054.46-.135a5.037,5.037,0,0,0,.379-.379V285.6c.054-.054.325-.135.406-.19a6.3,6.3,0,0,1,.7-.46,10.912,10.912,0,0,1,.7.867c.217.325.271.731.515,1.029.081.108.217.081.325.135.135.163.271.3.406.46.054.054.19.027.217.081v.135a4.752,4.752,0,0,0,1.056.867c.054.027.081.163.135.19.162.108.406.081.6.19a5.373,5.373,0,0,0,.515.325c.081.027.054-.027.081-.054.46-.054.569-.488.785-.785.217-.19.433-.379.65-.542a5.105,5.105,0,0,1,1.192-1.327C544.988,286.253,544.69,286.2,544.528,285.982Zm-8.044-6.04c-.027.081-.163.081-.217.135-.135.163-.271.3-.406.46-.054.027-.135.027-.19.054-.081.054-.163.163-.271.244-.135.108-.19.325-.325.406-.433.325-.84.6-1.3.921-.027.054-.054.081-.081.135-.135.108-.325.081-.46.19a3.6,3.6,0,0,1-.515.379c-.217.081-.244,0-.379.135-.461,0-.461-.163-.731-.271s-.6,0-.785-.19v-.081c-.054-.081-.19-.054-.217-.108-.081-.081-.162-.3-.271-.379a1.725,1.725,0,0,0-.19-.054c-.108-.108-.027-.163-.19-.271.027-.352.027-.7.054-1.056-.054-.217.054-.325.054-.406a5.8,5.8,0,0,1,.6-3.142c.081-.054.162-.081.244-.135.135-.163.271-.325.406-.515.135-.108.217-.054.379-.135.135-.054.217-.244.325-.325.081-.027.19-.054.271-.081a1.491,1.491,0,0,1,.19-.244c.054-.027.135-.027.19-.054s.108-.19.135-.217c.135-.108.379-.081.515-.19.433.163.921-.027,1.327.081a8.044,8.044,0,0,1,1.571.731,1.862,1.862,0,0,0,.135.65v.6a9.147,9.147,0,0,0,.081,1.49c.054.271-.054.542.081.731A3.276,3.276,0,0,0,536.484,279.942Z" transform="translate(-454.07 -262.148)" fill="#002a57"/><path d="M467.2,289.213a.7.7,0,0,0,.406.027c.081,0,.379-.081.433-.027l.081.081c.271.081.6.027.84.081.19-.027.379-.027.542-.054l.081.081h.515c0-.027.027-.054.054-.081h.65l.081-.081c.244-.027.487-.027.731-.054.054-.027.135-.108.19-.135.19-.081.3,0,.46-.081a2.815,2.815,0,0,1,.46-.325,4.009,4.009,0,0,1,.515-.081c.108-.054.19-.19.271-.244.135-.081.244-.027.379-.081l.46-.406a2.514,2.514,0,0,1,.135-.271c.081-.081.19-.027.271-.081s.081-.217.135-.271c.054-.081.217-.108.271-.19.054-.163.081-.3.135-.46.027-.081.19-.163.244-.244v-.867a6.985,6.985,0,0,0-.271-2.167c.027-.108.027-.217.054-.325-.027-.108-.19-.19-.217-.271v-.271c-.027-.081-.19-.163-.244-.244-.081-.108-.054-.217-.135-.325-.162-.217-.433-.433-.6-.65-.081-.108-.108-.244-.19-.379a3.069,3.069,0,0,0-.731-.6c-.271-.19-.487-.542-.785-.731a2.4,2.4,0,0,0-.7-.217c-.135-.054-.3-.217-.406-.271a8.108,8.108,0,0,0-.867-.271c-.054-.027-.135-.108-.19-.135a4.547,4.547,0,0,0-.785-.081c-.244-.054-.488-.217-.7-.271-.054.027-.135.027-.19.054-.054-.027-.081-.108-.19-.081-.027,0-.054.081-.135.054a1.376,1.376,0,0,0-.46-.081c-.488.054-.65-.19-1.111-.19-.081.081-.162.081-.271.135-.217.135-.352.406-.6.515-.162.054-.244,0-.379.081s-.19.271-.271.406c-.244.271-.487.542-.731.84a7.544,7.544,0,0,0-2.6,2.627,2.454,2.454,0,0,1-.3.433c-.135.163-.135.352-.244.515-.054.054-.135.19-.19.244s-.19.081-.217.135c-.054.054-.054.135-.081.19-.027.027-.054.027-.081.054-.054.081-.135.19-.19.271a2.282,2.282,0,0,1-.163.379,2.258,2.258,0,0,0-.217.325,5.463,5.463,0,0,0-.217.785,1.583,1.583,0,0,0-.054.515c0,.379-.19.84-.081,1.192.027.108.081.163.081.271,0,.081-.027.163-.027.244.027.135.081.271.108.406a1.774,1.774,0,0,1,0,.379,2.88,2.88,0,0,0,.325.921c.027.135.027.271.054.406.108.379.271.894.379,1.3.081.271,0,.46.081.731.054.19.217.46.271.65a5.344,5.344,0,0,0,.19.7c.027.081.163.163.19.217.108.244.163.731.271.921.081.081.19.163.271.244.054.081.027.163.081.217a2.87,2.87,0,0,0,.542.325h.244c.027.054.054.081.081.135.135.081.244.027.379.081.054.027.135.108.19.135a5.886,5.886,0,0,1,.65.19c.081.054.19.19.271.217.19.081.352.054.542.135.3.135.677.325.975.46h.244c.027,0,.108.135.135.135a1.718,1.718,0,0,1,.19-.054c.027.027.027.054.054.081.244.027.461.054.7.081.027.027.027.081.108.081h.054c.027-.027.027-.054.054-.081.135-.027.271-.027.406-.054.027-.027.027-.054.054-.108.271-.108.623,0,.867-.081.3-.108.623-.3.921-.406a2.092,2.092,0,0,0,.406-.054,2.4,2.4,0,0,1,.46-.217h.244c0-.027.027-.054.054-.081h.135c.108-.054.217-.217.325-.271.352-.163.813-.108,1.165-.271.081-.027.135-.135.19-.19.217-.135.433-.163.6-.325.081-.135.19-.244.271-.379.081-.054.271-.054.325-.081.027-.027.108-.217.135-.217.054-.054.135-.027.19-.081v-.135c.108-.163.406-.244.515-.406v-.135a1.488,1.488,0,0,0,.244-.19,7.194,7.194,0,0,0,1-1.381c.135-.325.108-1.029.379-1.192-.027-.19-.271-.3-.406-.406-.108-.081-.352-.108-.542-.244-.054-.027-.135-.163-.19-.19-.081-.027-.19-.027-.271-.054-.3-.108-.7-.46-1-.406-.6.027-.325.244-.6.515-.081.081-.244.054-.325.135s-.135.244-.244.325c-.135.135-.3.325-.461.46h-.081c-.054.054-.081.19-.135.244-.108.081-.217.054-.325.135-.135.081-.271.3-.406.379-.406.217-1.435.054-1.95.217l-.108.081h-.731c-.027.027-.027.054-.054.081h-.84a9.048,9.048,0,0,1-1.165.135c-.027-.027-.027-.054-.054-.081a.963.963,0,0,0-.271.054c-.081-.027-.217-.19-.271-.244-.135-.081-.379-.135-.46-.271v-.135a5.845,5.845,0,0,1-.46-.921v-.19c-.027-.027-.135-.108-.135-.135-.027-.163-.027-.3-.054-.46a3.516,3.516,0,0,1-.217-.46c-.027-.135-.027-.271-.054-.406-.054-.163-.325-.379-.325-.542,0-.19.3.027.406.054.081.027.19.054.271.081a.963.963,0,0,0,.271.054,1.3,1.3,0,0,1,.325,0c.135.027.217.135.379.163.108.027.19,0,.271.054.325.163.731.135,1.056.3C467.15,289.213,467.177,289.213,467.2,289.213Zm-2.627-3.656c.054-.163.081-.3.135-.46a1.424,1.424,0,0,0,.108-.46c0-.054.217-.813.217-.813l.569-1.056c.054-.054.135-.054.19-.081a7.447,7.447,0,0,1,.6-.7l.325-.081a5.911,5.911,0,0,0,.84-.6,3.36,3.36,0,0,1,1,.379c.108.027.135-.054.19-.054,0,.027.027.054.054.081a7.257,7.257,0,0,1,1.435.785,1.894,1.894,0,0,1,.217.271c.217.163.433.217.65.379.271.19.379.6.65.785a5.5,5.5,0,0,1-.406,1.95c-.217.3-1.571.46-2.086.515h-.785c-.406.027-.785-.081-1.165-.027a.75.75,0,0,1-.244-.027c-.027,0-.054-.054-.081-.054-.054-.027-.108,0-.163-.027a.97.97,0,0,0-.3-.108c-.081-.027-.19-.027-.271-.054-.108-.027-.135-.054-.244-.027h-.3c-.135-.108-.19-.217-.406-.217a.378.378,0,0,1-.244-.081.594.594,0,0,1-.135-.081A.723.723,0,0,0,464.577,285.557Z" transform="translate(-406.322 -270.606)" fill="#002a57"/><g transform="translate(21.199 7.502)"><path d="M361.222,291.238a5.735,5.735,0,0,0,.054-2.627v-.7a5.156,5.156,0,0,0-.244-1.192v-.65c-.054-.135-.271-.19-.379-.271-.054-.054-.054-.108-.081-.19a4.288,4.288,0,0,0-.84-.7c-.271-.19-.569-.433-.84-.6-.081-.027-.19-.054-.271-.081a1.144,1.144,0,0,1-.135-.19c-.433-.244-.894-.352-1.327-.6-.325-.19-.623-.46-.921-.65a7.6,7.6,0,0,0-1.435-.6c-.217-.081-.569-.108-.785-.217-.054-.027-.163-.162-.244-.19,0,0-.975.081-1,.081l-.081.081h-.379c-.054.027-.135.163-.19.19-.244.163-.488.271-.731.46-.081.081-.163.19-.244.271-.244.19-.46.325-.7.515-.163.163-.3.325-.46.515H349.9c-.108.108-.163.271-.271.379a4.109,4.109,0,0,0-.84.84c-.108.135-.325.162-.406.217-.054.135-.081.271-.135.406-.108.162-.352.244-.406.46a5.519,5.519,0,0,0,.325,2.275c.054.108.163.271.217.379a8.535,8.535,0,0,0,.731,1.3c.081.081.19.108.271.19.217.217.352.6.6.785a4.456,4.456,0,0,1,.6.379c.027.054.027.081.054.135a.36.36,0,0,1,.081.135h.081c.081.081.108.244.19.325.054.081.163.081.217.19a4.244,4.244,0,0,0,.7-.271c.027-.027.108-.244.135-.271.054-.054.135-.054.19-.081v-.081c.081-.027.19-.054.271-.081.135-.135.244-.271.379-.406.081-.027.19-.054.271-.081.027-.054.027-.081.054-.135.108-.081.217-.19.325-.271v-.081c.217-.244.6-.379.731-.7.054-.054.027,0,.054-.081a27.444,27.444,0,0,0-1.9-2.086c-.135-.108-.19-.3-.379-.406.054-.46,1.083-1.273,1.436-1.517.19-.135.379-.163.515-.325.542.027.65.7.867,1.056.163.271.433.542.6.84.217.352.325.7.542,1.056.081.135.406.406.325.677a6.3,6.3,0,0,1-.46.7c-.027.081-.054.19-.081.271a5.2,5.2,0,0,1-.379.406c-.3.406-.569.867-.84,1.3-.163.244-.352.785-.542.921-.406.271-1.029.19-1.571.325a12.759,12.759,0,0,1-2.925.19c-.433.027-.867.027-1.3.054A10.027,10.027,0,0,1,346,290.669a7.513,7.513,0,0,1-.406-1.625v-2.086a6.249,6.249,0,0,1,2.627-3.277c.19-.135.352-.406.542-.542.081-.054.163-.054.217-.135s.054-.19.135-.244c.163-.054.325-.081.515-.135a4.616,4.616,0,0,1,.6-.406c.19-.054.379-.135.542-.19.108-.081.19-.217.325-.271-.054-.569-.6-.84-.867-1.192a23.9,23.9,0,0,1-1.517-2.167h-.325c-.135.108-.271.027-.46.081-.135.054-.271.217-.379.271-.081.027-.19.054-.271.081-.108.081-.217.244-.325.325-.081.027-.19.054-.271.081-.027.054-.054.081-.081.135-.244.163-.542.217-.785.379-.867.542-1.679,1.165-2.492,1.76a4.836,4.836,0,0,0-.84.975c-.081.054-.163.135-.244.19-.081.108-.081.271-.19.379h-.081a1.749,1.749,0,0,0-.054.19c-.081.135-.244.325-.325.46-.027.081-.027.163-.054.244-.081.162-.3.406-.379.6a8.89,8.89,0,0,0-.325,4.334v.46a15.068,15.068,0,0,0,.515,1.9,10.492,10.492,0,0,0,4.063,5.119,7.693,7.693,0,0,0,1.192.406,11.245,11.245,0,0,0,1.435.542c.6.163,1.246.135,1.842.271a1.63,1.63,0,0,0,.84-.108c.325-.081.758-.027,1.056-.081l2.356-.081c.542-.135,1.273-.325,1.788-.46h.515c.135-.054.271-.217.406-.271h.379a3.5,3.5,0,0,0,.7-.217c.217-.244.433-.46.65-.7a9.085,9.085,0,0,0,1.165-1.327c.054-.081.19-.163.244-.244.027-.081.027-.19.054-.271.054-.108.217-.19.271-.325v-.19c.027-.054.163-.217.19-.271a.447.447,0,0,1,0-.325c.054-.108.19-.352.244-.46.054-.135-.027-.217.054-.325A3.788,3.788,0,0,0,361.222,291.238Z" transform="translate(-340.688 -278.4)" fill="#002a57"/></g><g transform="translate(0 0)"><g clip-path="url(#a)"><path d="M421.2,362.111a18.9,18.9,0,0,0,2.573-.325,12.608,12.608,0,0,0,.84-1.246c.135-.325-.217-.488-.3-.7-.081-1.11-.19-2.221-.271-3.3.081-.3-.325-.677-.163-1.165.163-.433-.135-1-.217-1.6-.19-1.381-.135-3.223-.785-4.171-.271-.406-.19-1.029-.379-1.327-.542-.785,0-3.2-.488-3.467-.163-.163-.027-.081-.217-.163a23.364,23.364,0,0,0-4.442-.135c-.406.623-.163,1.273-.542,1.95-.217.406-.785,1.056-1,1.436.081.515.135,1,.217,1.517-.515,1.219.217,2.329-.108,3.521-.081.3.325.813.379,1.219.19,1.354.488,3.034,0,4.252.054.3.081.6.135.894-.352.785-1.408,2.952.081,3.413A20.76,20.76,0,0,0,421.2,362.111Z" transform="translate(-374.215 -319.073)" fill="#00aeef"/><path d="M400.867,367.672a14.116,14.116,0,0,0,2.031-.135,10.212,10.212,0,0,0,.7-1.056c.108-.271-.163-.46-.217-.623,0-.433-.027-.867-.027-1.273a4.692,4.692,0,0,1-.081-.867,1.584,1.584,0,0,0,.054-.352,2.783,2.783,0,0,1-.027-.46c.081-.244-.244-.623-.081-1.056a1.476,1.476,0,0,0,0-.84l-.081-.162c-.027-.054,0-.135-.027-.19,0-.027-.054,0-.054-.027-.054-.163-.054,0,.027-.163a.529.529,0,0,0,.027-.19c-.027-.081-.081-.108-.081-.217a.635.635,0,0,1,.054-.325,1.53,1.53,0,0,0,0-.352c0-.271-.027-.569-.027-.84-.027-.325-.054-.623-.108-.948a1.535,1.535,0,0,0-.217-.7c-.054-.054-.108-.081-.135-.163-.027-.054,0-.135-.027-.217,0-.027-.054-.054-.054-.108-.027-.081.027-.163.054-.271-.054-.108-.217-.081-.19-.217.027-.054.081-.054.081-.108.027-.027.027-.108.027-.135-.081-.027-.244-.027-.271-.135.19,0,.027-.65.027-.785a6.283,6.283,0,0,1,.027-1c.027-.3.163-1.192-.108-1.408-.108-.163-.027-.081-.162-.163a16.62,16.62,0,0,0-3.494-.379c-.352.515-.163,1.11-.488,1.706-.19.352-.65.894-.84,1.219.027.46.081.894.108,1.354-.433,1.056.081,2.086-.217,3.142-.081.271.217.758.244,1.11a8.855,8.855,0,0,1-.163,3.792c.027.271.054.542.054.813-.3.677-1.219,2.519-.054,3.061A22.184,22.184,0,0,0,400.867,367.672Z" transform="translate(-360.245 -324.417)" fill="#a4238e"/><path d="M438.463,363.3A12.834,12.834,0,0,0,440.3,362.1c.054-.406.19-.921.19-1.246,0-.3-.352-.3-.488-.433-.46-.813-.921-1.625-1.408-2.438-.027-.271-.488-.406-.542-.84-.054-.379-.46-.7-.758-1.138-.65-1-1.273-2.411-2.113-2.9-.352-.217-.515-.731-.785-.867-.677-.406-1.165-2.465-1.625-2.492-.163-.054-.054-.054-.217-.054a20.3,20.3,0,0,0-3.44,1.517c-.081.027.027.46.027.542.054.19.108.352.163.542a.8.8,0,0,1,.027.433,3.018,3.018,0,0,0,.054.46v.488c.027.027.081.081.081.108s-.027.081-.027.108c0,.081.027.135.027.217a.667.667,0,0,1-.027.325.849.849,0,0,0,.054.515.948.948,0,0,1,.135.217c.027.054.19.244.19.3a1.5,1.5,0,0,0,.054.488c.054.135.217.163.244.325.027.081-.027.135.027.244.108.244.3.488.433.731a2.526,2.526,0,0,1,.406,1c.054.244.379.433.542.6a1.544,1.544,0,0,1,.217.19c.054.054.108.081.135.135s-.027.108,0,.163c.054.081.027.027.135.054.217.081.163.108.163.271a1.761,1.761,0,0,0,.3.6c.135.217.244.46.379.677a5.423,5.423,0,0,1,.271.7l.081.325c.027.081,0,.271.027.325l.406.65c.027.731-.027,2.763,1.3,2.6A18.976,18.976,0,0,0,438.463,363.3Z" transform="translate(-383.946 -322.886)" fill="#ffd165"/><path d="M448.913,349.887c-1.408,0-3.034-.027-3.981.054-.19.135-.46.217-.6.433-.108.162-.054.162-.135.325s-.271.217-.325.433c-.054.162.027.325,0,.515a3.677,3.677,0,0,0-.108.731c.027.19.135.406.054.6a.3.3,0,0,0-.081.271c0,.081.081.135.081.217,0,.135-.081.244-.054.379.027.108.081.135.054.217-.027.271-.19.352-.054.65.108.217.217.433.027.623-.3.352.081.867.108,1.381.027.325.027.65.027.975,0,.054-.027.135,0,.19s.081.054.081.108c.027.108-.054.217-.027.325.027.081.108.108.081.217a1.646,1.646,0,0,1-.19.271c.108.135.027.352,0,.487a2.444,2.444,0,0,1,.433.081c.027,0-.054.244-.081.271-.081.081-.19,0-.244.108-.19.3.325.271.433.325.46.271.108,1.083.46,1.408.7.7-.488,2.708.244,2.979.217.135.027.081.325.163a66.605,66.605,0,0,0,6.771.488c.7-.488.433-1.056,1.11-1.6.406-.325,1.354-.84,1.733-1.138-.027-.433-.054-.867-.108-1.3.948-1,0-1.977.677-2.979.163-.244-.352-.7-.406-1.083-.081-1.165-.3-2.6.623-3.6a7.134,7.134,0,0,1-.054-.758c.65-.623,2.573-2.383.379-2.9A59.718,59.718,0,0,0,448.913,349.887Z" transform="translate(-394.586 -322.883)" fill="#ed1c24"/></g></g></g></g></svg>