<?xml version="1.0" encoding="utf-8"?>
<!-- Generator: Adobe Illustrator 25.2.0, SVG Export Plug-In . SVG Version: 6.00 Build 0)  -->
<svg version="1.1" id="Layer_1" xmlns="http://www.w3.org/2000/svg" xmlns:xlink="http://www.w3.org/1999/xlink" x="0px" y="0px"
	 viewBox="0 0 256 256" enable-background="new 0 0 256 256" xml:space="preserve">
<g>
	<linearGradient id="SVGID_1_" gradientUnits="userSpaceOnUse" x1="0" y1="128" x2="256" y2="128">
		<stop  offset="0" style="stop-color:#0025FF"/>
		<stop  offset="1" style="stop-color:#FF1549"/>
	</linearGradient>
	<circle fill="url(#SVGID_1_)" cx="128" cy="128" r="128"/>
</g>
<g>
	<g>
		<path fill="#FFFFFF" d="M40,191.2V64.8h19.1v60.3h1.5l53-60.3h24l-50.9,56.9l51.1,69.4h-22.9L74,134.7l-14.9,17.1v39.3H40z"/>
	</g>
	<g>
		<path fill="#FFFFFF" d="M197,64h19v89.6c0,8.1-1.6,15-4.8,20.8c-3.2,5.8-7.7,10.1-13.4,13.2c-5.8,3-12.5,4.5-20.2,4.5
			c-7.1,0-13.5-1.3-19.2-3.9c-5.7-2.6-10.1-6.4-13.4-11.3c-3.3-5-4.9-11-4.9-18.1H159c0,3.5,0.8,6.5,2.4,9.1c1.6,2.5,3.9,4.5,6.7,6
			c2.9,1.4,6.1,2.1,9.8,2.1c4,0,7.5-0.9,10.3-2.6c2.8-1.7,5-4.2,6.4-7.6c1.5-3.3,2.2-7.4,2.2-12.2V64z"/>
	</g>
</g>
</svg>
